<svg xmlns="http://www.w3.org/2000/svg" width="1200" height="1000"><rect width="1200" height="1000" x="0" y="0" fill="#FFFFFF" id="backgorund"/><g transform="translate(20,20)" id="viz"><g id="nodes"><g transform="translate(481,481)"><path id="p_1442" d="M-8.817456953860942e-14,480A480,480,0,1,1,8.817456953860942e-14,-480A480,480,0,1,1,-8.817456953860942e-14,480Z" fill="none" stroke="#ccc"/><text fill="black" text-anchor="middle" font-family="'Arial', sans-serif" font-size="8" dominant-baseline="middle" x="0" y="-480"/></g><g transform="translate(312.94299340213126,450.1788678103453)" id="Gas"><path id="p_943.1343861978282" d="M-3.3067764379461587e-14,180.01252498535172A180.01252498535172,180.01252498535172,0,1,1,3.3067764379461587e-14,-180.01252498535172A180.01252498535172,180.01252498535172,0,1,1,-3.3067764379461587e-14,180.01252498535172Z" fill="none" stroke="#ccc"/><text fill="black" text-anchor="middle" font-family="'Arial', sans-serif" font-size="8" dominant-baseline="middle" x="0" y="-180.01252498535172">Gas</text></g><g transform="translate(643.2445436703044,450.1788678103453)" id="Natural Gas"><path id="p_1238.277173050696" d="M-2.6609204317681668e-14,144.85376157004634A144.85376157004634,144.85376157004634,0,1,1,2.6609204317681668e-14,-144.85376157004634A144.85376157004634,144.85376157004634,0,1,1,-2.6609204317681668e-14,144.85376157004634Z" fill="none" stroke="#ccc"/><text fill="black" text-anchor="middle" font-family="'Arial', sans-serif" font-size="8" dominant-baseline="middle" x="0" y="-144.85376157004634">Natural Gas</text></g><g transform="translate(511.09016835882557,711.0188121674962)" id="Gas imports"><path id="p_1364.2276423623734" d="M-2.6106774647493865e-14,142.11866183605167A142.11866183605167,142.11866183605167,0,1,1,2.6106774647493865e-14,-142.11866183605167A142.11866183605167,142.11866183605167,0,1,1,-2.6106774647493865e-14,142.11866183605167Z" fill="none" stroke="#ccc"/><text fill="black" text-anchor="middle" font-family="'Arial', sans-serif" font-size="8" dominant-baseline="middle" x="0" y="-142.11866183605167">Gas imports</text></g><g transform="translate(512.4303301005266,174.65866693657148)" id="Thermal generation"><path id="p_841.7979054544971" d="M-2.8419565423942316e-14,154.70890841739907A154.70890841739907,154.70890841739907,0,1,1,2.8419565423942316e-14,-154.70890841739907A154.70890841739907,154.70890841739907,0,1,1,-2.8419565423942316e-14,154.70890841739907Z" fill="none" stroke="#ccc"/><text fill="black" text-anchor="middle" font-family="'Arial', sans-serif" font-size="8" dominant-baseline="middle" x="0" y="-154.70890841739907">Thermal generation</text></g><g transform="translate(246.62513840815268,747.7809782881662)" id="Liquid"><path id="p_1113.8600729126078" d="M-2.194333576886494e-14,119.4539562162889A119.4539562162889,119.4539562162889,0,1,1,2.194333576886494e-14,-119.4539562162889A119.4539562162889,119.4539562162889,0,1,1,-2.194333576886494e-14,119.4539562162889Z" fill="none" stroke="#ccc"/><text fill="black" text-anchor="middle" font-family="'Arial', sans-serif" font-size="8" dominant-baseline="middle" x="0" y="-119.4539562162889">Liquid</text></g><g transform="translate(256.9496137904192,175.0339281916141)" id="Oil"><path id="p_527.3203617618935" d="M-1.751308967764409e-14,95.33681977986026A95.33681977986026,95.33681977986026,0,1,1,1.751308967764409e-14,-95.33681977986026A95.33681977986026,95.33681977986026,0,1,1,-1.751308967764409e-14,95.33681977986026Z" fill="none" stroke="#ccc"/><text fill="black" text-anchor="middle" font-family="'Arial', sans-serif" font-size="8" dominant-baseline="middle" x="0" y="-95.33681977986026">Oil</text></g><g transform="translate(744.3282715507905,667.7924617610237)" id="Oil imports"><path id="p_1501.7766940452602" d="M-1.646953280050435e-14,89.65596073344621A89.65596073344621,89.65596073344621,0,1,1,1.646953280050435e-14,-89.65596073344621A89.65596073344621,89.65596073344621,0,1,1,-1.646953280050435e-14,89.65596073344621Z" fill="none" stroke="#ccc"/><text fill="black" text-anchor="middle" font-family="'Arial', sans-serif" font-size="8" dominant-baseline="middle" x="0" y="-89.65596073344621">Oil imports</text></g><g transform="translate(764.1117853660733,233.04283328298715)" id="Electricity grid"><path id="p_1095.3750451088426" d="M-1.8042799631229046e-14,98.22042645978223A98.22042645978223,98.22042645978223,0,1,1,1.8042799631229046e-14,-98.22042645978223A98.22042645978223,98.22042645978223,0,1,1,-1.8042799631229046e-14,98.22042645978223Z" fill="none" stroke="#ccc"/><text fill="black" text-anchor="middle" font-family="'Arial', sans-serif" font-size="8" dominant-baseline="middle" x="0" y="-98.22042645978223">Electricity grid</text></g><g transform="translate(140.06625876175673,280.59216919961045)" id="Solid"><path id="p_477.3800298261409" d="M-1.0419589224930849e-14,56.72160186477371A56.72160186477371,56.72160186477371,0,1,1,1.0419589224930849e-14,-56.72160186477371A56.72160186477371,56.72160186477371,0,1,1,-1.0419589224930849e-14,56.72160186477371Z" fill="none" stroke="#ccc"/><text fill="black" text-anchor="middle" font-family="'Arial', sans-serif" font-size="8" dominant-baseline="middle" x="0" y="-56.72160186477371">Solid</text></g><g transform="translate(159.75097044293932,611.3122773589034)" id="Oil reserves"><path id="p_807.9480288524437" d="M-6.7756243576304175e-15,36.88478105060099A36.88478105060099,36.88478105060099,0,1,1,6.7756243576304175e-15,-36.88478105060099A36.88478105060099,36.88478105060099,0,1,1,-6.7756243576304175e-15,36.88478105060099Z" fill="none" stroke="#ccc"/><text fill="black" text-anchor="middle" font-family="'Arial', sans-serif" font-size="8" dominant-baseline="middle" x="0" y="-36.88478105060099">Oil reserves</text></g><g transform="translate(812.3994262578785,546.2289635456549)" id="Bio-conversion"><path id="p_1402.861844440073" d="M-8.125553795380124e-15,44.2334546365393A44.2334546365393,44.2334546365393,0,1,1,8.125553795380124e-15,-44.2334546365393A44.2334546365393,44.2334546365393,0,1,1,-8.125553795380124e-15,44.2334546365393Z" fill="none" stroke="#ccc"/><text fill="black" text-anchor="middle" font-family="'Arial', sans-serif" font-size="8" dominant-baseline="middle" x="0" y="-44.2334546365393">Bio-conversion</text></g><g transform="translate(807.6698219729564,364.7055866986167)" id="Coal"><path id="p_1207.4005866461089" d="M-6.434020814412242e-15,35.02517797453578A35.02517797453578,35.02517797453578,0,1,1,6.434020814412242e-15,-35.02517797453578A35.02517797453578,35.02517797453578,0,1,1,-6.434020814412242e-15,35.02517797453578Z" fill="none" stroke="#ccc"/><text fill="black" text-anchor="middle" font-family="'Arial', sans-serif" font-size="8" dominant-baseline="middle" x="0" y="-35.02517797453578">Coal</text></g><g transform="translate(346.5775479225457,75.84109982524768)" id="Gas reserves"><path id="p_455.3341993457385" d="M-6.0464887359889574e-15,32.91555159794513A32.91555159794513,32.91555159794513,0,1,1,6.0464887359889574e-15,-32.91555159794513A32.91555159794513,32.91555159794513,0,1,1,-6.0464887359889574e-15,32.91555159794513Z" fill="none" stroke="#ccc"/><text fill="black" text-anchor="middle" font-family="'Arial', sans-serif" font-size="8" dominant-baseline="middle" x="0" y="-32.91555159794513">Gas reserves</text></g><g transform="translate(378.4192631559124,828.5227996888987)" id="Coal reserves"><path id="p_1236.6132940057196" d="M-5.450516740195184e-15,29.671231160908576A29.671231160908576,29.671231160908576,0,1,1,5.450516740195184e-15,-29.671231160908576A29.671231160908576,29.671231160908576,0,1,1,-5.450516740195184e-15,29.671231160908576Z" fill="none" stroke="#ccc"/><text fill="black" text-anchor="middle" font-family="'Arial', sans-serif" font-size="8" dominant-baseline="middle" x="0" y="-29.671231160908576">Coal reserves</text></g><g transform="translate(681.6647939228537,786.1554678086738)" id="Other waste"><path id="p_1506.656303475067" d="M-7.134065131916784e-15,38.83604174353944A38.83604174353944,38.83604174353944,0,1,1,7.134065131916784e-15,-38.83604174353944A38.83604174353944,38.83604174353944,0,1,1,-7.134065131916784e-15,38.83604174353944Z" fill="none" stroke="#ccc"/><text fill="black" text-anchor="middle" font-family="'Arial', sans-serif" font-size="8" dominant-baseline="middle" x="0" y="-38.83604174353944">Other waste</text></g><g transform="translate(129.9847058786753,552.0776187902578)" id="Agricultural 'waste'"><path id="p_706.0353812197494" d="M-4.403779045610353e-15,23.973056550816317A23.973056550816317,23.973056550816317,0,1,1,4.403779045610353e-15,-23.973056550816317A23.973056550816317,23.973056550816317,0,1,1,-4.403779045610353e-15,23.973056550816317Z" fill="none" stroke="#ccc"/><text fill="black" text-anchor="middle" font-family="'Arial', sans-serif" font-size="8" dominant-baseline="middle" x="0" y="-23.973056550816317">Agricultural 'waste'</text></g><g transform="translate(123.97119462759451,363.6116946456884)" id="Coal imports"><path id="p_509.9913398411537" d="M-4.116365589269208e-15,22.408450567870847A22.408450567870847,22.408450567870847,0,1,1,4.116365589269208e-15,-22.408450567870847A22.408450567870847,22.408450567870847,0,1,1,-4.116365589269208e-15,22.408450567870847Z" fill="none" stroke="#ccc"/><text fill="black" text-anchor="middle" font-family="'Arial', sans-serif" font-size="8" dominant-baseline="middle" x="0" y="-22.408450567870847">Coal imports</text></g><g transform="translate(687.0746547338629,138.66666232992827)" id="UK land based bioenergy"><path id="p_843.9116550617575" d="M-3.3378369402952588e-15,18.170337997966385A18.170337997966385,18.170337997966385,0,1,1,3.3378369402952588e-15,-18.170337997966385A18.170337997966385,18.170337997966385,0,1,1,-3.3378369402952588e-15,18.170337997966385Z" fill="none" stroke="#ccc"/><text fill="black" text-anchor="middle" font-family="'Arial', sans-serif" font-size="8" dominant-baseline="middle" x="0" y="-18.170337997966385">UK land based bioenergy</text></g><g transform="translate(808.6416955362349,479.0553145224215)" id="District heating"><path id="p_1305.3069633911828" d="M-3.2348959472719026e-15,17.60995333252637A17.60995333252637,17.60995333252637,0,1,1,3.2348959472719026e-15,-17.60995333252637A17.60995333252637,17.60995333252637,0,1,1,-3.2348959472719026e-15,17.60995333252637Z" fill="none" stroke="#ccc"/><text fill="black" text-anchor="middle" font-family="'Arial', sans-serif" font-size="8" dominant-baseline="middle" x="0" y="-17.60995333252637">District heating</text></g><g transform="translate(124.521582062449,510.602535640397)" id="Hydro"><path id="p_647.5491363463904" d="M-2.282438896674427e-15,12.425018643544407A12.425018643544407,12.425018643544407,0,1,1,2.282438896674427e-15,-12.425018643544407A12.425018643544407,12.425018643544407,0,1,1,-2.282438896674427e-15,12.425018643544407Z" fill="none" stroke="#ccc"/><text fill="black" text-anchor="middle" font-family="'Arial', sans-serif" font-size="8" dominant-baseline="middle" x="0" y="-12.425018643544407">Hydro</text></g><g transform="translate(794.4643197165294,409.5547020270504)" id="Wind"><path id="p_1210.3114242006377" d="M-1.1558955791974312e-15,6.292402457057881A6.292402457057881,6.292402457057881,0,1,1,1.1558955791974312e-15,-6.292402457057881A6.292402457057881,6.292402457057881,0,1,1,-1.1558955791974312e-15,6.292402457057881Z" fill="none" stroke="#ccc"/><text fill="black" text-anchor="middle" font-family="'Arial', sans-serif" font-size="8" dominant-baseline="middle" x="0" y="-6.292402457057881">Wind</text></g><g transform="translate(241.2576430871435,450.1788678103453)" id="Thermal generation"><path id="p_794.3284218550776" d="M-1.8900937411854836e-14,102.89191095758879A102.89191095758879,102.89191095758879,0,1,1,1.8900937411854836e-14,-102.89191095758879A102.89191095758879,102.89191095758879,0,1,1,-1.8900937411854836e-14,102.89191095758879Z" fill="rgb(253, 198, 118)" stroke="none"/></g><g transform="translate(418.5525362161076,450.1788678103453)" id="Heating and cooling - homes"><path id="p_937.6991224850532" d="M-1.2669164348223086e-14,68.96771845860022A68.96771845860022,68.96771845860022,0,1,1,1.2669164348223086e-14,-68.96771845860022A68.96771845860022,68.96771845860022,0,1,1,-1.2669164348223086e-14,68.96771845860022Z" fill="rgb(253, 198, 118)" stroke="none"/></g><g transform="translate(357.44044138804395,561.4440233156565)" id="Industry"><path id="p_971.4248674087941" d="M-9.651515399805873e-15,52.540402705093605A52.540402705093605,52.540402705093605,0,1,1,9.651515399805873e-15,-52.540402705093605A52.540402705093605,52.540402705093605,0,1,1,-9.651515399805873e-15,52.540402705093605Z" fill="rgb(253, 198, 118)" stroke="none"/></g><g transform="translate(354.2842933924496,360.35399415400616)" id="Heating and cooling - commercial"><path id="p_750.6840037061063" d="M-6.621490637683497e-15,36.045716159650475A36.045716159650475,36.045716159650475,0,1,1,6.621490637683497e-15,-36.045716159650475A36.045716159650475,36.045716159650475,0,1,1,-6.621490637683497e-15,36.045716159650475Z" fill="rgb(253, 198, 118)" stroke="none"/></g><g transform="translate(300.87434688323873,342.35553186454797)" id="Losses"><path id="p_658.109940658687" d="M-2.7334230285447926e-15,14.880061910900396A14.880061910900396,14.880061910900396,0,1,1,2.7334230285447926e-15,-14.880061910900396A14.880061910900396,14.880061910900396,0,1,1,-2.7334230285447926e-15,14.880061910900396Z" fill="rgb(253, 198, 118)" stroke="none"/></g><g transform="translate(290.50939783393216,556.7963740992467)" id="Lighting &amp; appliances - commercial"><path id="p_856.4223199256365" d="M-1.6746826977354726e-15,9.116547992457646A9.116547992457646,9.116547992457646,0,1,1,1.6746826977354726e-15,-9.116547992457646A9.116547992457646,9.116547992457646,0,1,1,-1.6746826977354726e-15,9.116547992457646Z" fill="rgb(253, 198, 118)" stroke="none"/></g><g transform="translate(403.6803358520351,368.5318932683115)" id="Lighting &amp; appliances - homes"><path id="p_780.7996728759216" d="M-1.5774878262184238e-15,8.58744375557498A8.58744375557498,8.58744375557498,0,1,1,1.5774878262184238e-15,-8.58744375557498A8.58744375557498,8.58744375557498,0,1,1,-1.5774878262184238e-15,8.58744375557498Z" fill="rgb(253, 198, 118)" stroke="none"/></g><g transform="translate(276.15441864584477,342.97613980773053)" id="Agriculture"><path id="p_623.5429501988978" d="M-8.1054321412401105e-16,4.412391745322504A4.412391745322504,4.412391745322504,0,1,1,8.1054321412401105e-16,-4.412391745322504A4.412391745322504,4.412391745322504,0,1,1,-8.1054321412401105e-16,4.412391745322504Z" fill="rgb(253, 198, 118)" stroke="none"/></g><g transform="translate(643.2445436703044,450.1788678103453)" id="Gas"><path id="p_1232.841909337921" d="M-2.5610762571425895e-14,139.4184978572712A139.4184978572712,139.4184978572712,0,1,1,2.5610762571425895e-14,-139.4184978572712A139.4184978572712,139.4184978572712,0,1,1,-2.5610762571425895e-14,139.4184978572712Z" fill="rgb(224, 243, 161)" stroke="none"/></g><g transform="translate(511.09016835882557,711.0188121674962)" id="Natural Gas"><path id="p_1358.7923786495983" d="M-2.5108332901238086e-14,136.6833981232765A136.6833981232765,136.6833981232765,0,1,1,2.5108332901238086e-14,-136.6833981232765A136.6833981232765,136.6833981232765,0,1,1,-2.5108332901238086e-14,136.6833981232765Z" fill="rgb(254, 221, 141)" stroke="none"/></g><g transform="translate(436.98017002186265,174.65866693657148)" id="Losses"><path id="p_685.4623215843941" d="M-1.3561154122362856e-14,73.82348462595996A73.82348462595996,73.82348462595996,0,1,1,1.3561154122362856e-14,-73.82348462595996A73.82348462595996,73.82348462595996,0,1,1,-1.3561154122362856e-14,73.82348462595996Z" fill="rgb(66, 136, 181)" stroke="none"/></g><g transform="translate(588.9714465828741,174.65866693657148)" id="Electricity grid"><path id="p_836.362641741722" d="M-1.336074868219579e-14,72.73252822227636A72.73252822227636,72.73252822227636,0,1,1,1.336074868219579e-14,-72.73252822227636A72.73252822227636,72.73252822227636,0,1,1,-1.336074868219579e-14,72.73252822227636Z" fill="rgb(66, 136, 181)" stroke="none"/></g><g transform="translate(513.6281799644647,224.51000742754667)" id="District heating"><path id="p_750.3128770117626" d="M-2.236454201016125e-15,12.174689619751216A12.174689619751216,12.174689619751216,0,1,1,2.236454201016125e-15,-12.174689619751216A12.174689619751216,12.174689619751216,0,1,1,-2.236454201016125e-15,12.174689619751216Z" fill="rgb(66, 136, 181)" stroke="none"/></g><g transform="translate(187.50528475969264,739.9328884126397)" id="Road transport"><path id="p_981.8183746645062" d="M-9.989480954156816e-15,54.38020149217381A54.38020149217381,54.38020149217381,0,1,1,9.989480954156816e-15,-54.38020149217381A54.38020149217381,54.38020149217381,0,1,1,-9.989480954156816e-15,54.38020149217381Z" fill="rgb(241, 249, 171)" stroke="none"/></g><g transform="translate(290.09832837000647,739.9328884126397)" id="Industry"><path id="p_1072.8087951880111" d="M-7.858113670410752e-15,42.777578405364864A42.777578405364864,42.777578405364864,0,1,1,7.858113670410752e-15,-42.777578405364864A42.777578405364864,42.777578405364864,0,1,1,-7.858113670410752e-15,42.777578405364864Z" fill="rgb(241, 249, 171)" stroke="none"/></g><g transform="translate(249.61690171590536,820.1224452875048)" id="International aviation"><path id="p_1111.35473505674" d="M-7.644622766217829e-15,41.61538805332995A41.61538805332995,41.61538805332995,0,1,1,7.644622766217829e-15,-41.61538805332995A41.61538805332995,41.61538805332995,0,1,1,-7.644622766217829e-15,41.61538805332995Z" fill="rgb(241, 249, 171)" stroke="none"/></g><g transform="translate(248.8105968822394,668.2781747649439)" id="International shipping"><path id="p_951.5746281847007" d="M-6.334949073678847e-15,34.48585653751751A34.48585653751751,34.48585653751751,0,1,1,6.334949073678847e-15,-34.48585653751751A34.48585653751751,34.48585653751751,0,1,1,-6.334949073678847e-15,34.48585653751751Z" fill="rgb(241, 249, 171)" stroke="none"/></g><g transform="translate(194.56243850881958,666.0823887107962)" id="National navigation"><path id="p_875.0162862348473" d="M-2.6399941923121002e-15,14.371459015231533A14.371459015231533,14.371459015231533,0,1,1,2.6399941923121002e-15,-14.371459015231533A14.371459015231533,14.371459015231533,0,1,1,-2.6399941923121002e-15,14.371459015231533Z" fill="rgb(241, 249, 171)" stroke="none"/></g><g transform="translate(191.58525008484517,811.2822640929535)" id="Domestic aviation"><path id="p_1014.5179816052935" d="M-2.140156146547808e-15,11.65046742749484A11.65046742749484,11.65046742749484,0,1,1,2.140156146547808e-15,-11.65046742749484A11.65046742749484,11.65046742749484,0,1,1,-2.140156146547808e-15,11.65046742749484Z" fill="rgb(241, 249, 171)" stroke="none"/></g><g transform="translate(294.5185668929,683.605078621977)" id="Rail transport"><path id="p_986.4117827193325" d="M-1.5225061047495683e-15,8.288137204455447A8.288137204455447,8.288137204455447,0,1,1,1.5225061047495683e-15,-8.288137204455447A8.288137204455447,8.288137204455447,0,1,1,-1.5225061047495683e-15,8.288137204455447Z" fill="rgb(241, 249, 171)" stroke="none"/></g><g transform="translate(295.4158838189241,793.7047319279277)" id="Agriculture"><path id="p_1094.9419068315765" d="M-1.0693538240719673e-15,5.82129108472469A5.82129108472469,5.82129108472469,0,1,1,1.0693538240719673e-15,-5.82129108472469A5.82129108472469,5.82129108472469,0,1,1,-1.0693538240719673e-15,5.82129108472469Z" fill="rgb(241, 249, 171)" stroke="none"/></g><g transform="translate(256.9496137904192,175.0339281916141)" id="Liquid"><path id="p_521.8850980491185" d="M-1.6514647931388315e-14,89.90155606708512A89.90155606708512,89.90155606708512,0,1,1,1.6514647931388315e-14,-89.90155606708512A89.90155606708512,89.90155606708512,0,1,1,-1.6514647931388315e-14,89.90155606708512Z" fill="rgb(200, 233, 159)" stroke="none"/></g><g transform="translate(744.3282715507905,667.7924617610237)" id="Oil"><path id="p_1496.341430332485" d="M-1.5471091054248575e-14,84.22069702067105A84.22069702067105,84.22069702067105,0,1,1,1.5471091054248575e-14,-84.22069702067105A84.22069702067105,84.22069702067105,0,1,1,-1.5471091054248575e-14,84.22069702067105Z" fill="rgb(169, 221, 162)" stroke="none"/></g><g transform="translate(731.2387312739089,233.81842245930596)" id="Industry"><path id="p_1010.7977747548898" d="M-8.402415768780956e-15,45.740621021674954A45.740621021674954,45.740621021674954,0,1,1,8.402415768780956e-15,-45.740621021674954A45.740621021674954,45.740621021674954,0,1,1,-8.402415768780956e-15,45.740621021674954Z" fill="rgb(252, 172, 99)" stroke="none"/></g><g transform="translate(813.2299161664561,233.81842245930596)" id="Lighting &amp; appliances - homes"><path id="p_1077.863638783859" d="M-5.660678805506769e-15,30.815300158097035A30.815300158097035,30.815300158097035,0,1,1,5.660678805506769e-15,-30.815300158097035A30.815300158097035,30.815300158097035,0,1,1,-5.660678805506769e-15,30.815300158097035Z" fill="rgb(252, 172, 99)" stroke="none"/></g><g transform="translate(785.4924003473084,293.01149375734803)" id="Lighting &amp; appliances - commercial"><path id="p_1107.6229674785523" d="M-5.349087000221768e-15,29.119073373895837A29.119073373895837,29.119073373895837,0,1,1,5.349087000221768e-15,-29.119073373895837A29.119073373895837,29.119073373895837,0,1,1,-5.349087000221768e-15,29.119073373895837Z" fill="rgb(252, 172, 99)" stroke="none"/></g><g transform="translate(784.4878263859795,181.3203817508366)" id="Heating and cooling - homes"><path id="p_989.4087261540526" d="M-4.33534482720421e-15,23.600518017236457A23.600518017236457,23.600518017236457,0,1,1,4.33534482720421e-15,-23.600518017236457A23.600518017236457,23.600518017236457,0,1,1,-4.33534482720421e-15,23.600518017236457Z" fill="rgb(252, 172, 99)" stroke="none"/></g><g transform="translate(739.4328557898419,163.82301196696866)" id="Losses"><path id="p_922.5533905359284" d="M-3.544897425437967e-15,19.297522779117827A19.297522779117827,19.297522779117827,0,1,1,3.544897425437967e-15,-19.297522779117827A19.297522779117827,19.297522779117827,0,1,1,-3.544897425437967e-15,19.297522779117827Z" fill="rgb(252, 172, 99)" stroke="none"/></g><g transform="translate(734.7244149817286,301.8891249379055)" id="Heating and cooling - commercial"><path id="p_1053.5975446132118" d="M-3.1199110477040287e-15,16.984004693577678A16.984004693577678,16.984004693577678,0,1,1,3.1199110477040287e-15,-16.984004693577678A16.984004693577678,16.984004693577678,0,1,1,-3.1199110477040287e-15,16.984004693577678Z" fill="rgb(252, 172, 99)" stroke="none"/></g><g transform="translate(824.3049865744676,187.6024351708207)" id="Road transport"><path id="p_1023.1813217387445" d="M-2.070981831134003e-15,11.27389999345608A11.27389999345608,11.27389999345608,0,1,1,2.070981831134003e-15,-11.27389999345608A11.27389999345608,11.27389999345608,0,1,1,-2.070981831134003e-15,11.27389999345608Z" fill="rgb(252, 172, 99)" stroke="none"/></g><g transform="translate(824.710179801281,276.5366131882405)" id="Rail transport"><path id="p_1109.2301558297013" d="M-1.4665199622986999e-15,7.983362840179706A7.983362840179706,7.983362840179706,0,1,1,1.4665199622986999e-15,-7.983362840179706A7.983362840179706,7.983362840179706,0,1,1,-1.4665199622986999e-15,7.983362840179706Z" fill="rgb(252, 172, 99)" stroke="none"/></g><g transform="translate(712.4595959492424,179.38367734524587)" id="Agriculture"><path id="p_898.2503495743418" d="M-1.176960818702355e-15,6.407076279853647A6.407076279853647,6.407076279853647,0,1,1,1.176960818702355e-15,-6.407076279853647A6.407076279853647,6.407076279853647,0,1,1,-1.176960818702355e-15,6.407076279853647Z" fill="rgb(252, 172, 99)" stroke="none"/></g><g transform="translate(119.98759955222923,280.59216919961045)" id="Industry"><path id="p_431.78744769431074" d="M-5.732757618857318e-15,31.207678942471073A31.207678942471073,31.207678942471073,0,1,1,5.732757618857318e-15,-31.207678942471073A31.207678942471073,31.207678942471073,0,1,1,-5.732757618857318e-15,31.207678942471073Z" fill="rgb(78, 164, 176)" stroke="none"/></g><g transform="translate(173.99156956061537,280.59216919961045)" id="Thermal generation"><path id="p_471.94476611336574" d="M-3.1891689866898658e-15,17.361027353139914A17.361027353139914,17.361027353139914,0,1,1,3.1891689866898658e-15,-17.361027353139914A17.361027353139914,17.361027353139914,0,1,1,-3.1891689866898658e-15,17.361027353139914Z" fill="rgb(78, 164, 176)" stroke="none"/></g><g transform="translate(155.34274026224045,298.2106460901856)" id="Agriculture"><path id="p_456.41230064806786" d="M-5.251740361791533e-16,2.8589142956418123A2.8589142956418123,2.8589142956418123,0,1,1,5.251740361791533e-16,-2.8589142956418123A2.8589142956418123,2.8589142956418123,0,1,1,-5.251740361791533e-16,2.8589142956418123Z" fill="rgb(78, 164, 176)" stroke="none"/></g><g transform="translate(159.75097044293932,611.3122773589034)" id="Oil"><path id="p_802.5127651396685" d="M-5.77718261137464e-15,31.44951733782584A31.44951733782584,31.44951733782584,0,1,1,5.77718261137464e-15,-31.44951733782584A31.44951733782584,31.44951733782584,0,1,1,-5.77718261137464e-15,31.44951733782584Z" fill="rgb(137, 207, 165)" stroke="none"/></g><g transform="translate(793.052150469414,542.3593126459455)" id="Gas"><path id="p_1354.4791882939737" d="M-3.5026842910517227e-15,19.067725178614374A19.067725178614374,19.067725178614374,0,1,1,3.5026842910517227e-15,-19.067725178614374A19.067725178614374,19.067725178614374,0,1,1,-3.5026842910517227e-15,19.067725178614374Z" fill="rgb(185, 31, 72)" stroke="none"/></g><g transform="translate(834.2060384752799,542.3593126459455)" id="Solid"><path id="p_1393.2162502357019" d="M-3.0587205455203607e-15,16.65089911447644A16.65089911447644,16.65089911447644,0,1,1,3.0587205455203607e-15,-16.65089911447644A16.65089911447644,16.65089911447644,0,1,1,-3.0587205455203607e-15,16.65089911447644Z" fill="rgb(185, 31, 72)" stroke="none"/></g><g transform="translate(815.7500564559543,571.988840099884)" id="Losses"><path id="p_1400.5602138645315" d="M-2.3552377804415148e-15,12.821317308692995A12.821317308692995,12.821317308692995,0,1,1,2.3552377804415148e-15,-12.821317308692995A12.821317308692995,12.821317308692995,0,1,1,-2.3552377804415148e-15,12.821317308692995Z" fill="rgb(185, 31, 72)" stroke="none"/></g><g transform="translate(815.4922254226389,518.2535561890188)" id="Liquid"><path id="p_1342.1767335453046" d="M-1.5487407448959176e-15,8.430951933647107A8.430951933647107,8.430951933647107,0,1,1,1.5487407448959176e-15,-8.430951933647107A8.430951933647107,8.430951933647107,0,1,1,-1.5487407448959176e-15,8.430951933647107Z" fill="rgb(185, 31, 72)" stroke="none"/></g><g transform="translate(807.6698219729564,364.7055866986167)" id="Solid"><path id="p_1201.9653229333337" d="M-5.4355790681564644e-15,29.589914261760626A29.589914261760626,29.589914261760626,0,1,1,5.4355790681564644e-15,-29.589914261760626A29.589914261760626,29.589914261760626,0,1,1,-5.4355790681564644e-15,29.589914261760626Z" fill="rgb(209, 60, 75)" stroke="none"/></g><g transform="translate(346.5775479225457,75.84109982524768)" id="Natural Gas"><path id="p_449.89893563296334" d="M-5.04804698973318e-15,27.48028788516998A27.48028788516998,27.48028788516998,0,1,1,5.04804698973318e-15,-27.48028788516998A27.48028788516998,27.48028788516998,0,1,1,-5.04804698973318e-15,27.48028788516998Z" fill="rgb(254, 238, 163)" stroke="none"/></g><g transform="translate(378.4192631559124,828.5227996888987)" id="Coal"><path id="p_1231.1780302929444" d="M-4.452074993939405e-15,24.23596744813342A24.23596744813342,24.23596744813342,0,1,1,4.452074993939405e-15,-24.23596744813342A24.23596744813342,24.23596744813342,0,1,1,-4.452074993939405e-15,24.23596744813342Z" fill="rgb(240, 112, 74)" stroke="none"/></g><g transform="translate(667.5115048838989,786.1554678086738)" id="Bio-conversion"><path id="p_1472.914461684382" d="M-3.5357063678165047e-15,19.247488991809455A19.247488991809455,19.247488991809455,0,1,1,3.5357063678165047e-15,-19.247488991809455A19.247488991809455,19.247488991809455,0,1,1,-3.5357063678165047e-15,19.247488991809455Z" fill="rgb(105, 189, 169)" stroke="none"/></g><g transform="translate(703.6299147710507,786.1554678086738)" id="Solid"><path id="p_1501.2210397622919" d="M-2.100696144716613e-15,11.43565718256725A11.43565718256725,11.43565718256725,0,1,1,2.100696144716613e-15,-11.43565718256725A11.43565718256725,11.43565718256725,0,1,1,-2.100696144716613e-15,11.43565718256725Z" fill="rgb(105, 189, 169)" stroke="none"/></g><g transform="translate(129.9847058786753,552.0776187902578)" id="Bio-conversion"><path id="p_700.6001175069742" d="M-3.4053372993545756e-15,18.537792838041163A18.537792838041163,18.537792838041163,0,1,1,3.4053372993545756e-15,-18.537792838041163A18.537792838041163,18.537792838041163,0,1,1,-3.4053372993545756e-15,18.537792838041163Z" fill="rgb(158, 1, 66)" stroke="none"/></g><g transform="translate(123.97119462759451,363.6116946456884)" id="Coal"><path id="p_504.5560761283786" d="M-3.1179238430134306e-15,16.973186855095694A16.973186855095694,16.973186855095694,0,1,1,3.1179238430134306e-15,-16.973186855095694A16.973186855095694,16.973186855095694,0,1,1,-3.1179238430134306e-15,16.973186855095694Z" fill="rgb(228, 86, 73)" stroke="none"/></g><g transform="translate(687.0746547338629,138.66666232992827)" id="Bio-conversion"><path id="p_838.4763913489824" d="M-2.3393951940394808e-15,12.73507428519123A12.73507428519123,12.73507428519123,0,1,1,2.3393951940394808e-15,-12.73507428519123A12.73507428519123,12.73507428519123,0,1,1,-2.3393951940394808e-15,12.73507428519123Z" fill="rgb(74, 108, 174)" stroke="none"/></g><g transform="translate(808.6416955362349,479.0553145224215)" id="Industry"><path id="p_1299.8716996784076" d="M-2.236454201016125e-15,12.174689619751216A12.174689619751216,12.174689619751216,0,1,1,2.236454201016125e-15,-12.174689619751216A12.174689619751216,12.174689619751216,0,1,1,-2.236454201016125e-15,12.174689619751216Z" fill="rgb(248, 142, 83)" stroke="none"/></g><g transform="translate(124.521582062449,510.602535640397)" id="Electricity grid"><path id="p_642.1138726336152" d="M-1.2839971504186492e-15,6.989754930769252A6.989754930769252,6.989754930769252,0,1,1,1.2839971504186492e-15,-6.989754930769252A6.989754930769252,6.989754930769252,0,1,1,-1.2839971504186492e-15,6.989754930769252Z" fill="rgb(251, 248, 176)" stroke="none"/></g><g transform="translate(794.4643197165294,409.5547020270504)" id="Electricity grid"><path id="p_1204.8761604878625" d="M-1.574538329416538e-16,0.8571387442827287A0.8571387442827287,0.8571387442827287,0,1,1,1.574538329416538e-16,-0.8571387442827287A0.8571387442827287,0.8571387442827287,0,1,1,-1.574538329416538e-16,0.8571387442827287Z" fill="rgb(94, 79, 162)" stroke="none"/></g></g><g id="labels"><g transform="translate(241.2576430871435,450.1788678103453)"><text text-anchor="middle" dominant-baseline="text-before-edge" transform="translate(0,-5.599999904632568)"><tspan x="0" y="0" dy="0" style="font-family: Arial, sans-serif; font-size: 10px; fill: black; font-weight: bold;">Thermal generation</tspan></text></g><g transform="translate(418.5525362161076,450.1788678103453)"><text text-anchor="middle" dominant-baseline="text-before-edge" transform="translate(0,-5.599999904632568)"><tspan x="0" y="0" dy="0" style="font-family: Arial, sans-serif; font-size: 10px; fill: black; font-weight: bold;">Heating and cooling - homes</tspan></text></g><g transform="translate(357.44044138804395,561.4440233156565)"><text text-anchor="middle" dominant-baseline="text-before-edge" transform="translate(0,-5.599999904632568)"><tspan x="0" y="0" dy="0" style="font-family: Arial, sans-serif; font-size: 10px; fill: black; font-weight: bold;">Industry</tspan></text></g><g transform="translate(354.2842933924496,360.35399415400616)"><text text-anchor="middle" dominant-baseline="text-before-edge" transform="translate(0,-5.599999904632568)"><tspan x="0" y="0" dy="0" style="font-family: Arial, sans-serif; font-size: 10px; fill: black; font-weight: bold;">Heating and cooling - commercial</tspan></text></g><g transform="translate(300.87434688323873,342.35553186454797)"><text text-anchor="middle" dominant-baseline="text-before-edge" transform="translate(0,-5.599999904632568)"><tspan x="0" y="0" dy="0" style="font-family: Arial, sans-serif; font-size: 10px; fill: black; font-weight: bold;">Losses</tspan></text></g><g transform="translate(290.50939783393216,556.7963740992467)"><text text-anchor="middle" dominant-baseline="text-before-edge" transform="translate(0,-5.599999904632568)"><tspan x="0" y="0" dy="0" style="font-family: Arial, sans-serif; font-size: 10px; fill: black; font-weight: bold;">Lighting &amp; appliances - commercial</tspan></text></g><g transform="translate(403.6803358520351,368.5318932683115)"><text text-anchor="middle" dominant-baseline="text-before-edge" transform="translate(0,-5.599999904632568)"><tspan x="0" y="0" dy="0" style="font-family: Arial, sans-serif; font-size: 10px; fill: black; font-weight: bold;">Lighting &amp; appliances - homes</tspan></text></g><g transform="translate(276.15441864584477,342.97613980773053)"><text text-anchor="middle" dominant-baseline="text-before-edge" transform="translate(0,-5.599999904632568)"><tspan x="0" y="0" dy="0" style="font-family: Arial, sans-serif; font-size: 10px; fill: black; font-weight: bold;">Agriculture</tspan></text></g><g transform="translate(643.2445436703044,450.1788678103453)"><text text-anchor="middle" dominant-baseline="text-before-edge" transform="translate(0,-5.599999904632568)"><tspan x="0" y="0" dy="0" style="font-family: Arial, sans-serif; font-size: 10px; fill: black; font-weight: bold;">Gas</tspan></text></g><g transform="translate(511.09016835882557,711.0188121674962)"><text text-anchor="middle" dominant-baseline="text-before-edge" transform="translate(0,-5.599999904632568)"><tspan x="0" y="0" dy="0" style="font-family: Arial, sans-serif; font-size: 10px; fill: black; font-weight: bold;">Natural Gas</tspan></text></g><g transform="translate(436.98017002186265,174.65866693657148)"><text text-anchor="middle" dominant-baseline="text-before-edge" transform="translate(0,-5.599999904632568)"><tspan x="0" y="0" dy="0" style="font-family: Arial, sans-serif; font-size: 10px; fill: black; font-weight: bold;">Losses</tspan></text></g><g transform="translate(588.9714465828741,174.65866693657148)"><text text-anchor="middle" dominant-baseline="text-before-edge" transform="translate(0,-5.599999904632568)"><tspan x="0" y="0" dy="0" style="font-family: Arial, sans-serif; font-size: 10px; fill: black; font-weight: bold;">Electricity grid</tspan></text></g><g transform="translate(513.6281799644647,224.51000742754667)"><text text-anchor="middle" dominant-baseline="text-before-edge" transform="translate(0,-5.599999904632568)"><tspan x="0" y="0" dy="0" style="font-family: Arial, sans-serif; font-size: 10px; fill: black; font-weight: bold;">District heating</tspan></text></g><g transform="translate(187.50528475969264,739.9328884126397)"><text text-anchor="middle" dominant-baseline="text-before-edge" transform="translate(0,-5.599999904632568)"><tspan x="0" y="0" dy="0" style="font-family: Arial, sans-serif; font-size: 10px; fill: black; font-weight: bold;">Road transport</tspan></text></g><g transform="translate(290.09832837000647,739.9328884126397)"><text text-anchor="middle" dominant-baseline="text-before-edge" transform="translate(0,-5.599999904632568)"><tspan x="0" y="0" dy="0" style="font-family: Arial, sans-serif; font-size: 10px; fill: black; font-weight: bold;">Industry</tspan></text></g><g transform="translate(249.61690171590536,820.1224452875048)"><text text-anchor="middle" dominant-baseline="text-before-edge" transform="translate(0,-5.599999904632568)"><tspan x="0" y="0" dy="0" style="font-family: Arial, sans-serif; font-size: 10px; fill: black; font-weight: bold;">International aviation</tspan></text></g><g transform="translate(248.8105968822394,668.2781747649439)"><text text-anchor="middle" dominant-baseline="text-before-edge" transform="translate(0,-5.599999904632568)"><tspan x="0" y="0" dy="0" style="font-family: Arial, sans-serif; font-size: 10px; fill: black; font-weight: bold;">International shipping</tspan></text></g><g transform="translate(194.56243850881958,666.0823887107962)"><text text-anchor="middle" dominant-baseline="text-before-edge" transform="translate(0,-5.599999904632568)"><tspan x="0" y="0" dy="0" style="font-family: Arial, sans-serif; font-size: 10px; fill: black; font-weight: bold;">National navigation</tspan></text></g><g transform="translate(191.58525008484517,811.2822640929535)"><text text-anchor="middle" dominant-baseline="text-before-edge" transform="translate(0,-5.599999904632568)"><tspan x="0" y="0" dy="0" style="font-family: Arial, sans-serif; font-size: 10px; fill: black; font-weight: bold;">Domestic aviation</tspan></text></g><g transform="translate(294.5185668929,683.605078621977)"><text text-anchor="middle" dominant-baseline="text-before-edge" transform="translate(0,-5.599999904632568)"><tspan x="0" y="0" dy="0" style="font-family: Arial, sans-serif; font-size: 10px; fill: black; font-weight: bold;">Rail transport</tspan></text></g><g transform="translate(295.4158838189241,793.7047319279277)"><text text-anchor="middle" dominant-baseline="text-before-edge" transform="translate(0,-5.599999904632568)"><tspan x="0" y="0" dy="0" style="font-family: Arial, sans-serif; font-size: 10px; fill: black; font-weight: bold;">Agriculture</tspan></text></g><g transform="translate(256.9496137904192,175.0339281916141)"><text text-anchor="middle" dominant-baseline="text-before-edge" transform="translate(0,-5.599999904632568)"><tspan x="0" y="0" dy="0" style="font-family: Arial, sans-serif; font-size: 10px; fill: black; font-weight: bold;">Liquid</tspan></text></g><g transform="translate(744.3282715507905,667.7924617610237)"><text text-anchor="middle" dominant-baseline="text-before-edge" transform="translate(0,-5.599999904632568)"><tspan x="0" y="0" dy="0" style="font-family: Arial, sans-serif; font-size: 10px; fill: black; font-weight: bold;">Oil</tspan></text></g><g transform="translate(731.2387312739089,233.81842245930596)"><text text-anchor="middle" dominant-baseline="text-before-edge" transform="translate(0,-5.599999904632568)"><tspan x="0" y="0" dy="0" style="font-family: Arial, sans-serif; font-size: 10px; fill: black; font-weight: bold;">Industry</tspan></text></g><g transform="translate(813.2299161664561,233.81842245930596)"><text text-anchor="middle" dominant-baseline="text-before-edge" transform="translate(0,-5.599999904632568)"><tspan x="0" y="0" dy="0" style="font-family: Arial, sans-serif; font-size: 10px; fill: black; font-weight: bold;">Lighting &amp; appliances - homes</tspan></text></g><g transform="translate(785.4924003473084,293.01149375734803)"><text text-anchor="middle" dominant-baseline="text-before-edge" transform="translate(0,-5.599999904632568)"><tspan x="0" y="0" dy="0" style="font-family: Arial, sans-serif; font-size: 10px; fill: black; font-weight: bold;">Lighting &amp; appliances - commercial</tspan></text></g><g transform="translate(784.4878263859795,181.3203817508366)"><text text-anchor="middle" dominant-baseline="text-before-edge" transform="translate(0,-5.599999904632568)"><tspan x="0" y="0" dy="0" style="font-family: Arial, sans-serif; font-size: 10px; fill: black; font-weight: bold;">Heating and cooling - homes</tspan></text></g><g transform="translate(739.4328557898419,163.82301196696866)"><text text-anchor="middle" dominant-baseline="text-before-edge" transform="translate(0,-5.599999904632568)"><tspan x="0" y="0" dy="0" style="font-family: Arial, sans-serif; font-size: 10px; fill: black; font-weight: bold;">Losses</tspan></text></g><g transform="translate(734.7244149817286,301.8891249379055)"><text text-anchor="middle" dominant-baseline="text-before-edge" transform="translate(0,-5.599999904632568)"><tspan x="0" y="0" dy="0" style="font-family: Arial, sans-serif; font-size: 10px; fill: black; font-weight: bold;">Heating and cooling - commercial</tspan></text></g><g transform="translate(824.3049865744676,187.6024351708207)"><text text-anchor="middle" dominant-baseline="text-before-edge" transform="translate(0,-5.599999904632568)"><tspan x="0" y="0" dy="0" style="font-family: Arial, sans-serif; font-size: 10px; fill: black; font-weight: bold;">Road transport</tspan></text></g><g transform="translate(824.710179801281,276.5366131882405)"><text text-anchor="middle" dominant-baseline="text-before-edge" transform="translate(0,-5.599999904632568)"><tspan x="0" y="0" dy="0" style="font-family: Arial, sans-serif; font-size: 10px; fill: black; font-weight: bold;">Rail transport</tspan></text></g><g transform="translate(712.4595959492424,179.38367734524587)"><text text-anchor="middle" dominant-baseline="text-before-edge" transform="translate(0,-5.599999904632568)"><tspan x="0" y="0" dy="0" style="font-family: Arial, sans-serif; font-size: 10px; fill: black; font-weight: bold;">Agriculture</tspan></text></g><g transform="translate(119.98759955222923,280.59216919961045)"><text text-anchor="middle" dominant-baseline="text-before-edge" transform="translate(0,-5.599999904632568)"><tspan x="0" y="0" dy="0" style="font-family: Arial, sans-serif; font-size: 10px; fill: black; font-weight: bold;">Industry</tspan></text></g><g transform="translate(173.99156956061537,280.59216919961045)"><text text-anchor="middle" dominant-baseline="text-before-edge" transform="translate(0,-5.599999904632568)"><tspan x="0" y="0" dy="0" style="font-family: Arial, sans-serif; font-size: 10px; fill: black; font-weight: bold;">Thermal generation</tspan></text></g><g transform="translate(155.34274026224045,298.2106460901856)"><text text-anchor="middle" dominant-baseline="text-before-edge" transform="translate(0,-5.599999904632568)"><tspan x="0" y="0" dy="0" style="font-family: Arial, sans-serif; font-size: 10px; fill: black; font-weight: bold;">Agriculture</tspan></text></g><g transform="translate(159.75097044293932,611.3122773589034)"><text text-anchor="middle" dominant-baseline="text-before-edge" transform="translate(0,-5.599999904632568)"><tspan x="0" y="0" dy="0" style="font-family: Arial, sans-serif; font-size: 10px; fill: black; font-weight: bold;">Oil</tspan></text></g><g transform="translate(793.052150469414,542.3593126459455)"><text text-anchor="middle" dominant-baseline="text-before-edge" transform="translate(0,-5.599999904632568)"><tspan x="0" y="0" dy="0" style="font-family: Arial, sans-serif; font-size: 10px; fill: black; font-weight: bold;">Gas</tspan></text></g><g transform="translate(834.2060384752799,542.3593126459455)"><text text-anchor="middle" dominant-baseline="text-before-edge" transform="translate(0,-5.599999904632568)"><tspan x="0" y="0" dy="0" style="font-family: Arial, sans-serif; font-size: 10px; fill: black; font-weight: bold;">Solid</tspan></text></g><g transform="translate(815.7500564559543,571.988840099884)"><text text-anchor="middle" dominant-baseline="text-before-edge" transform="translate(0,-5.599999904632568)"><tspan x="0" y="0" dy="0" style="font-family: Arial, sans-serif; font-size: 10px; fill: black; font-weight: bold;">Losses</tspan></text></g><g transform="translate(815.4922254226389,518.2535561890188)"><text text-anchor="middle" dominant-baseline="text-before-edge" transform="translate(0,-5.599999904632568)"><tspan x="0" y="0" dy="0" style="font-family: Arial, sans-serif; font-size: 10px; fill: black; font-weight: bold;">Liquid</tspan></text></g><g transform="translate(807.6698219729564,364.7055866986167)"><text text-anchor="middle" dominant-baseline="text-before-edge" transform="translate(0,-5.599999904632568)"><tspan x="0" y="0" dy="0" style="font-family: Arial, sans-serif; font-size: 10px; fill: black; font-weight: bold;">Solid</tspan></text></g><g transform="translate(346.5775479225457,75.84109982524768)"><text text-anchor="middle" dominant-baseline="text-before-edge" transform="translate(0,-5.599999904632568)"><tspan x="0" y="0" dy="0" style="font-family: Arial, sans-serif; font-size: 10px; fill: black; font-weight: bold;">Natural Gas</tspan></text></g><g transform="translate(378.4192631559124,828.5227996888987)"><text text-anchor="middle" dominant-baseline="text-before-edge" transform="translate(0,-5.599999904632568)"><tspan x="0" y="0" dy="0" style="font-family: Arial, sans-serif; font-size: 10px; fill: black; font-weight: bold;">Coal</tspan></text></g><g transform="translate(667.5115048838989,786.1554678086738)"><text text-anchor="middle" dominant-baseline="text-before-edge" transform="translate(0,-5.599999904632568)"><tspan x="0" y="0" dy="0" style="font-family: Arial, sans-serif; font-size: 10px; fill: black; font-weight: bold;">Bio-conversion</tspan></text></g><g transform="translate(703.6299147710507,786.1554678086738)"><text text-anchor="middle" dominant-baseline="text-before-edge" transform="translate(0,-5.599999904632568)"><tspan x="0" y="0" dy="0" style="font-family: Arial, sans-serif; font-size: 10px; fill: black; font-weight: bold;">Solid</tspan></text></g><g transform="translate(129.9847058786753,552.0776187902578)"><text text-anchor="middle" dominant-baseline="text-before-edge" transform="translate(0,-5.599999904632568)"><tspan x="0" y="0" dy="0" style="font-family: Arial, sans-serif; font-size: 10px; fill: black; font-weight: bold;">Bio-conversion</tspan></text></g><g transform="translate(123.97119462759451,363.6116946456884)"><text text-anchor="middle" dominant-baseline="text-before-edge" transform="translate(0,-5.599999904632568)"><tspan x="0" y="0" dy="0" style="font-family: Arial, sans-serif; font-size: 10px; fill: black; font-weight: bold;">Coal</tspan></text></g><g transform="translate(687.0746547338629,138.66666232992827)"><text text-anchor="middle" dominant-baseline="text-before-edge" transform="translate(0,-5.599999904632568)"><tspan x="0" y="0" dy="0" style="font-family: Arial, sans-serif; font-size: 10px; fill: black; font-weight: bold;">Bio-conversion</tspan></text></g><g transform="translate(808.6416955362349,479.0553145224215)"><text text-anchor="middle" dominant-baseline="text-before-edge" transform="translate(0,-5.599999904632568)"><tspan x="0" y="0" dy="0" style="font-family: Arial, sans-serif; font-size: 10px; fill: black; font-weight: bold;">Industry</tspan></text></g><g transform="translate(124.521582062449,510.602535640397)"><text text-anchor="middle" dominant-baseline="text-before-edge" transform="translate(0,-5.599999904632568)"><tspan x="0" y="0" dy="0" style="font-family: Arial, sans-serif; font-size: 10px; fill: black; font-weight: bold;">Electricity grid</tspan></text></g><g transform="translate(794.4643197165294,409.5547020270504)"><text text-anchor="middle" dominant-baseline="text-before-edge" transform="translate(0,-5.599999904632568)"><tspan x="0" y="0" dy="0" style="font-family: Arial, sans-serif; font-size: 10px; fill: black; font-weight: bold;">Electricity grid</tspan></text></g></g></g><g id="legend" transform="translate(1000,20)"><g transform="translate(5,0)"><g class="legendSize" transform="translate(0,0)"><g class="legendCells" transform="translate(50,16)"><g class="cell" transform="translate(0, 25)"><circle class="swatch" r="25" fill="none" stroke="#ccc"/><text class="label" transform="translate( 55,&#10;          5)" font-family="&quot;Arial&quot;, sans-serif" font-size="10px"><tspan x="0" dy="0em">68.1</tspan></text></g><g class="cell" transform="translate(0, 125)"><circle class="swatch" r="50" fill="none" stroke="#ccc"/><text class="label" transform="translate( 55,&#10;          5)" font-family="&quot;Arial&quot;, sans-serif" font-size="10px"><tspan x="0" dy="0em">272.2</tspan></text></g></g><text class="legendTitle" font-family="&quot;Arial&quot;, sans-serif" font-size="12px" font-weight="bold"><tspan x="0" dy="0em">TWh [mean]</tspan></text></g><g class="legendColor" transform="translate(0,223.8000030517578)"><g class="legendCells" transform="translate(0,16)"><g class="cell" transform="translate(0, 0)"><rect class="swatch" height="15" width="15" style="fill: rgb(158, 1, 66);"/><text class="label" transform="translate( 20, 12.5)" font-family="&quot;Arial&quot;, sans-serif" font-size="10px"><tspan x="0" dy="0em">Agricultural 'waste'</tspan></text></g><g class="cell" transform="translate(0, 21)"><rect class="swatch" height="15" width="15" style="fill: rgb(185, 31, 72);"/><text class="label" transform="translate( 20, 12.5)" font-family="&quot;Arial&quot;, sans-serif" font-size="10px"><tspan x="0" dy="0em">Bio-conversion</tspan></text></g><g class="cell" transform="translate(0, 42)"><rect class="swatch" height="15" width="15" style="fill: rgb(209, 60, 75);"/><text class="label" transform="translate( 20, 12.5)" font-family="&quot;Arial&quot;, sans-serif" font-size="10px"><tspan x="0" dy="0em">Coal</tspan></text></g><g class="cell" transform="translate(0, 63)"><rect class="swatch" height="15" width="15" style="fill: rgb(228, 86, 73);"/><text class="label" transform="translate( 20, 12.5)" font-family="&quot;Arial&quot;, sans-serif" font-size="10px"><tspan x="0" dy="0em">Coal imports</tspan></text></g><g class="cell" transform="translate(0, 84)"><rect class="swatch" height="15" width="15" style="fill: rgb(240, 112, 74);"/><text class="label" transform="translate( 20, 12.5)" font-family="&quot;Arial&quot;, sans-serif" font-size="10px"><tspan x="0" dy="0em">Coal reserves</tspan></text></g><g class="cell" transform="translate(0, 105)"><rect class="swatch" height="15" width="15" style="fill: rgb(248, 142, 83);"/><text class="label" transform="translate( 20, 12.5)" font-family="&quot;Arial&quot;, sans-serif" font-size="10px"><tspan x="0" dy="0em">District heating</tspan></text></g><g class="cell" transform="translate(0, 126)"><rect class="swatch" height="15" width="15" style="fill: rgb(252, 172, 99);"/><text class="label" transform="translate( 20, 12.5)" font-family="&quot;Arial&quot;, sans-serif" font-size="10px"><tspan x="0" dy="0em">Electricity grid</tspan></text></g><g class="cell" transform="translate(0, 147)"><rect class="swatch" height="15" width="15" style="fill: rgb(253, 198, 118);"/><text class="label" transform="translate( 20, 12.5)" font-family="&quot;Arial&quot;, sans-serif" font-size="10px"><tspan x="0" dy="0em">Gas</tspan></text></g><g class="cell" transform="translate(0, 168)"><rect class="swatch" height="15" width="15" style="fill: rgb(254, 221, 141);"/><text class="label" transform="translate( 20, 12.5)" font-family="&quot;Arial&quot;, sans-serif" font-size="10px"><tspan x="0" dy="0em">Gas imports</tspan></text></g><g class="cell" transform="translate(0, 189)"><rect class="swatch" height="15" width="15" style="fill: rgb(254, 238, 163);"/><text class="label" transform="translate( 20, 12.5)" font-family="&quot;Arial&quot;, sans-serif" font-size="10px"><tspan x="0" dy="0em">Gas reserves</tspan></text></g><g class="cell" transform="translate(0, 210)"><rect class="swatch" height="15" width="15" style="fill: rgb(251, 248, 176);"/><text class="label" transform="translate( 20, 12.5)" font-family="&quot;Arial&quot;, sans-serif" font-size="10px"><tspan x="0" dy="0em">Hydro</tspan></text></g><g class="cell" transform="translate(0, 231)"><rect class="swatch" height="15" width="15" style="fill: rgb(241, 249, 171);"/><text class="label" transform="translate( 20, 12.5)" font-family="&quot;Arial&quot;, sans-serif" font-size="10px"><tspan x="0" dy="0em">Liquid</tspan></text></g><g class="cell" transform="translate(0, 252)"><rect class="swatch" height="15" width="15" style="fill: rgb(224, 243, 161);"/><text class="label" transform="translate( 20, 12.5)" font-family="&quot;Arial&quot;, sans-serif" font-size="10px"><tspan x="0" dy="0em">Natural Gas</tspan></text></g><g class="cell" transform="translate(0, 273)"><rect class="swatch" height="15" width="15" style="fill: rgb(200, 233, 159);"/><text class="label" transform="translate( 20, 12.5)" font-family="&quot;Arial&quot;, sans-serif" font-size="10px"><tspan x="0" dy="0em">Oil</tspan></text></g><g class="cell" transform="translate(0, 294)"><rect class="swatch" height="15" width="15" style="fill: rgb(169, 221, 162);"/><text class="label" transform="translate( 20, 12.5)" font-family="&quot;Arial&quot;, sans-serif" font-size="10px"><tspan x="0" dy="0em">Oil imports</tspan></text></g><g class="cell" transform="translate(0, 315)"><rect class="swatch" height="15" width="15" style="fill: rgb(137, 207, 165);"/><text class="label" transform="translate( 20, 12.5)" font-family="&quot;Arial&quot;, sans-serif" font-size="10px"><tspan x="0" dy="0em">Oil reserves</tspan></text></g><g class="cell" transform="translate(0, 336)"><rect class="swatch" height="15" width="15" style="fill: rgb(105, 189, 169);"/><text class="label" transform="translate( 20, 12.5)" font-family="&quot;Arial&quot;, sans-serif" font-size="10px"><tspan x="0" dy="0em">Other waste</tspan></text></g><g class="cell" transform="translate(0, 357)"><rect class="swatch" height="15" width="15" style="fill: rgb(78, 164, 176);"/><text class="label" transform="translate( 20, 12.5)" font-family="&quot;Arial&quot;, sans-serif" font-size="10px"><tspan x="0" dy="0em">Solid</tspan></text></g><g class="cell" transform="translate(0, 378)"><rect class="swatch" height="15" width="15" style="fill: rgb(66, 136, 181);"/><text class="label" transform="translate( 20, 12.5)" font-family="&quot;Arial&quot;, sans-serif" font-size="10px"><tspan x="0" dy="0em">Thermal generation</tspan></text></g><g class="cell" transform="translate(0, 399)"><rect class="swatch" height="15" width="15" style="fill: rgb(74, 108, 174);"/><text class="label" transform="translate( 20, 12.5)" font-family="&quot;Arial&quot;, sans-serif" font-size="10px"><tspan x="0" dy="0em">UK land based bioenergy</tspan></text></g><g class="cell" transform="translate(0, 420)"><rect class="swatch" height="15" width="15" style="fill: rgb(94, 79, 162);"/><text class="label" transform="translate( 20, 12.5)" font-family="&quot;Arial&quot;, sans-serif" font-size="10px"><tspan x="0" dy="0em">Wind</tspan></text></g></g><text class="legendTitle" font-family="&quot;Arial&quot;, sans-serif" font-size="12px" font-weight="bold"><tspan x="0" dy="0em">From [csvDistinct]</tspan></text></g></g></g></svg>