<svg xmlns="http://www.w3.org/2000/svg" width="1000" height="1000"><rect width="1000" height="1000" x="0" y="0" fill="#FFFFFF" id="backgorund"/><g transform="translate(20,10)" id="viz"><g id="links"><path d="M0,525.3984174210452C145,525.3984174210452,145,83.94309275929214,290,83.94309275929214" fill="none" stroke="#ccc"/><path d="M0,525.3984174210452C145,525.3984174210452,145,188.16228842933128,290,188.16228842933128" fill="none" stroke="#ccc"/><path d="M0,525.3984174210452C145,525.3984174210452,145,245.1133040034432,290,245.1133040034432" fill="none" stroke="#ccc"/><path d="M0,525.3984174210452C145,525.3984174210452,145,318.82013644868283,290,318.82013644868283" fill="none" stroke="#ccc"/><path d="M0,525.3984174210452C145,525.3984174210452,145,426.9553652716538,290,426.9553652716538" fill="none" stroke="#ccc"/><path d="M0,525.3984174210452C145,525.3984174210452,145,511.85505293965224,290,511.85505293965224" fill="none" stroke="#ccc"/><path d="M0,525.3984174210452C145,525.3984174210452,145,550.6657074893285,290,550.6657074893285" fill="none" stroke="#ccc"/><path d="M0,525.3984174210452C145,525.3984174210452,145,642.3473566794962,290,642.3473566794962" fill="none" stroke="#ccc"/><path d="M0,525.3984174210452C145,525.3984174210452,145,731.5577442559377,290,731.5577442559377" fill="none" stroke="#ccc"/><path d="M0,525.3984174210452C145,525.3984174210452,145,759.4535578260422,290,759.4535578260422" fill="none" stroke="#ccc"/><path d="M0,525.3984174210452C145,525.3984174210452,145,795.7215415008427,290,795.7215415008427" fill="none" stroke="#ccc"/><path d="M0,525.3984174210452C145,525.3984174210452,145,829.7666425342609,290,829.7666425342609" fill="none" stroke="#ccc"/><path d="M0,525.3984174210452C145,525.3984174210452,145,847.7558232830389,290,847.7558232830389" fill="none" stroke="#ccc"/><path d="M0,525.3984174210452C145,525.3984174210452,145,864.7926323098751,290,864.7926323098751" fill="none" stroke="#ccc"/><path d="M0,525.3984174210452C145,525.3984174210452,145,887.0126700118559,290,887.0126700118559" fill="none" stroke="#ccc"/><path d="M0,525.3984174210452C145,525.3984174210452,145,906.8295183425344,290,906.8295183425344" fill="none" stroke="#ccc"/><path d="M0,525.3984174210452C145,525.3984174210452,145,920.9836976378451,290,920.9836976378451" fill="none" stroke="#ccc"/><path d="M0,525.3984174210452C145,525.3984174210452,145,934.1056767166621,290,934.1056767166621" fill="none" stroke="#ccc"/><path d="M0,525.3984174210452C145,525.3984174210452,145,946.374088654482,290,946.374088654482" fill="none" stroke="#ccc"/><path d="M0,525.3984174210452C145,525.3984174210452,145,957.6205106702596,290,957.6205106702596" fill="none" stroke="#ccc"/><path d="M0,525.3984174210452C145,525.3984174210452,145,966.8537420827985,290,966.8537420827985" fill="none" stroke="#ccc"/><path d="M290,83.94309275929214C435,83.94309275929214,435,13.146257917201561,580,13.146257917201561" fill="none" stroke="#ccc"/><path d="M290,83.94309275929214C435,83.94309275929214,435,51.55443203940845,580,51.55443203940845" fill="none" stroke="#ccc"/><path d="M290,83.94309275929214C435,83.94309275929214,435,81.00597019079373,580,81.00597019079373" fill="none" stroke="#ccc"/><path d="M290,83.94309275929214C435,83.94309275929214,435,104.60127085782064,580,104.60127085782064" fill="none" stroke="#ccc"/><path d="M290,83.94309275929214C435,83.94309275929214,435,121.49746806722757,580,121.49746806722757" fill="none" stroke="#ccc"/><path d="M290,83.94309275929214C435,83.94309275929214,435,133.60344618208273,580,133.60344618208273" fill="none" stroke="#ccc"/><path d="M290,83.94309275929214C435,83.94309275929214,435,144.59007967198642,580,144.59007967198642" fill="none" stroke="#ccc"/><path d="M290,83.94309275929214C435,83.94309275929214,435,154.73992760138273,580,154.73992760138273" fill="none" stroke="#ccc"/><path d="M290,188.16228842933128C435,188.16228842933128,435,188.16228842933128,580,188.16228842933128" fill="none" stroke="#ccc"/><path d="M290,245.1133040034432C435,245.1133040034432,435,245.1133040034432,580,245.1133040034432" fill="none" stroke="#ccc"/><path d="M290,318.82013644868283C435,318.82013644868283,435,290.39613573551577,580,290.39613573551577" fill="none" stroke="#ccc"/><path d="M290,318.82013644868283C435,318.82013644868283,435,324.30324742265304,580,324.30324742265304" fill="none" stroke="#ccc"/><path d="M290,318.82013644868283C435,318.82013644868283,435,347.24413716185,580,347.24413716185" fill="none" stroke="#ccc"/><path d="M290,426.9553652716538C435,426.9553652716538,435,366.9204750446293,580,366.9204750446293" fill="none" stroke="#ccc"/><path d="M290,426.9553652716538C435,426.9553652716538,435,392.0405214481896,580,392.0405214481896" fill="none" stroke="#ccc"/><path d="M290,426.9553652716538C435,426.9553652716538,435,414.8899350311033,580,414.8899350311033" fill="none" stroke="#ccc"/><path d="M290,426.9553652716538C435,426.9553652716538,435,436.2643990659479,580,436.2643990659479" fill="none" stroke="#ccc"/><path d="M290,426.9553652716538C435,426.9553652716538,435,452.79265365686695,580,452.79265365686695" fill="none" stroke="#ccc"/><path d="M290,426.9553652716538C435,426.9553652716538,435,465.2588994895795,580,465.2588994895795" fill="none" stroke="#ccc"/><path d="M290,426.9553652716538C435,426.9553652716538,435,476.64303078702835,580,476.64303078702835" fill="none" stroke="#ccc"/><path d="M290,426.9553652716538C435,426.9553652716538,435,486.99025549867827,580,486.99025549867827" fill="none" stroke="#ccc"/><path d="M290,511.85505293965224C435,511.85505293965224,435,511.85505293965224,580,511.85505293965224" fill="none" stroke="#ccc"/><path d="M290,550.6657074893285C435,550.6657074893285,435,550.6657074893285,580,550.6657074893285" fill="none" stroke="#ccc"/><path d="M290,642.3473566794962C435,642.3473566794962,435,581.6209187154527,580,581.6209187154527" fill="none" stroke="#ccc"/><path d="M290,642.3473566794962C435,642.3473566794962,435,603.0762616123769,580,603.0762616123769" fill="none" stroke="#ccc"/><path d="M290,642.3473566794962C435,642.3473566794962,435,621.5749274062783,580,621.5749274062783" fill="none" stroke="#ccc"/><path d="M290,642.3473566794962C435,642.3473566794962,435,638.7902120366913,580,638.7902120366913" fill="none" stroke="#ccc"/><path d="M290,642.3473566794962C435,642.3473566794962,435,654.258417852597,580,654.258417852597" fill="none" stroke="#ccc"/><path d="M290,642.3473566794962C435,642.3473566794962,435,668.549663865453,580,668.549663865453" fill="none" stroke="#ccc"/><path d="M290,642.3473566794962C435,642.3473566794962,435,681.4136503789911,580,681.4136503789911" fill="none" stroke="#ccc"/><path d="M290,642.3473566794962C435,642.3473566794962,435,692.6765831131595,580,692.6765831131595" fill="none" stroke="#ccc"/><path d="M290,642.3473566794962C435,642.3473566794962,435,703.0737946435396,580,703.0737946435396" fill="none" stroke="#ccc"/><path d="M290,731.5577442559377C435,731.5577442559377,435,717.6021981127274,580,717.6021981127274" fill="none" stroke="#ccc"/><path d="M290,731.5577442559377C435,731.5577442559377,435,734.0791142602966,580,734.0791142602966" fill="none" stroke="#ccc"/><path d="M290,731.5577442559377C435,731.5577442559377,435,745.513290399148,580,745.513290399148" fill="none" stroke="#ccc"/><path d="M290,759.4535578260422C435,759.4535578260422,435,759.4535578260422,580,759.4535578260422" fill="none" stroke="#ccc"/><path d="M290,795.7215415008427C435,795.7215415008427,435,776.2770838411533,580,776.2770838411533" fill="none" stroke="#ccc"/><path d="M290,795.7215415008427C435,795.7215415008427,435,790.468199410225,580,790.468199410225" fill="none" stroke="#ccc"/><path d="M290,795.7215415008427C435,795.7215415008427,435,803.5481903405747,580,803.5481903405747" fill="none" stroke="#ccc"/><path d="M290,795.7215415008427C435,795.7215415008427,435,815.1659991605321,580,815.1659991605321" fill="none" stroke="#ccc"/><path d="M290,829.7666425342609C435,829.7666425342609,435,829.7666425342609,580,829.7666425342609" fill="none" stroke="#ccc"/><path d="M290,847.7558232830389C435,847.7558232830389,435,847.7558232830389,580,847.7558232830389" fill="none" stroke="#ccc"/><path d="M290,864.7926323098751C435,864.7926323098751,435,864.7926323098751,580,864.7926323098751" fill="none" stroke="#ccc"/><path d="M290,887.0126700118559C435,887.0126700118559,435,880.3649731356984,580,880.3649731356984" fill="none" stroke="#ccc"/><path d="M290,887.0126700118559C435,887.0126700118559,435,893.6603668880134,580,893.6603668880134" fill="none" stroke="#ccc"/><path d="M290,906.8295183425344C435,906.8295183425344,435,906.8295183425344,580,906.8295183425344" fill="none" stroke="#ccc"/><path d="M290,920.9836976378451C435,920.9836976378451,435,920.9836976378451,580,920.9836976378451" fill="none" stroke="#ccc"/><path d="M290,934.1056767166621C435,934.1056767166621,435,934.1056767166621,580,934.1056767166621" fill="none" stroke="#ccc"/><path d="M290,946.374088654482C435,946.374088654482,435,946.374088654482,580,946.374088654482" fill="none" stroke="#ccc"/><path d="M290,957.6205106702596C435,957.6205106702596,435,957.6205106702596,580,957.6205106702596" fill="none" stroke="#ccc"/><path d="M290,966.8537420827985C435,966.8537420827985,435,966.8537420827985,580,966.8537420827985" fill="none" stroke="#ccc"/></g><g id="nodes"><g transform="translate(0,525.3984174210452)"><circle fill="#ccc" r="5"/><text text-anchor="end" dominant-baseline="text-before-edge" transform="translate(0,0)"><tspan x="-8" y="0" dy="0" style="font-family: Arial, sans-serif; font-size: 10px; fill: black; font-weight: normal;"/></text></g><g id="Gas" transform="translate(290,83.94309275929214)"><circle fill="#ccc" r="5"/><text text-anchor="end" dominant-baseline="text-before-edge" transform="translate(0,-5.599999904632568)"><tspan x="-8" y="0" dy="0" style="font-family: Arial, sans-serif; font-size: 10px; fill: black; font-weight: normal;">Gas</tspan></text></g><g id="Natural Gas" transform="translate(290,188.16228842933128)"><circle fill="rgb(250, 155, 90)" r="5"/><text text-anchor="end" dominant-baseline="text-before-edge" transform="translate(0,-5.599999904632568)"><tspan x="-8" y="0" dy="0" style="font-family: Arial, sans-serif; font-size: 10px; fill: black; font-weight: normal;">Natural Gas</tspan></text></g><g id="Gas imports" transform="translate(290,245.1133040034432)"><circle fill="rgb(122, 199, 166)" r="5"/><text text-anchor="end" dominant-baseline="text-before-edge" transform="translate(0,-5.599999904632568)"><tspan x="-8" y="0" dy="0" style="font-family: Arial, sans-serif; font-size: 10px; fill: black; font-weight: normal;">Gas imports</tspan></text></g><g id="Thermal generation" transform="translate(290,318.82013644868283)"><circle fill="#ccc" r="5"/><text text-anchor="end" dominant-baseline="text-before-edge" transform="translate(0,-5.599999904632568)"><tspan x="-8" y="0" dy="0" style="font-family: Arial, sans-serif; font-size: 10px; fill: black; font-weight: normal;">Thermal generation</tspan></text></g><g id="Liquid" transform="translate(290,426.9553652716538)"><circle fill="#ccc" r="5"/><text text-anchor="end" dominant-baseline="text-before-edge" transform="translate(0,-5.599999904632568)"><tspan x="-8" y="0" dy="0" style="font-family: Arial, sans-serif; font-size: 10px; fill: black; font-weight: normal;">Liquid</tspan></text></g><g id="Oil" transform="translate(290,511.85505293965224)"><circle fill="rgb(207, 236, 158)" r="5"/><text text-anchor="end" dominant-baseline="text-before-edge" transform="translate(0,-5.599999904632568)"><tspan x="-8" y="0" dy="0" style="font-family: Arial, sans-serif; font-size: 10px; fill: black; font-weight: normal;">Oil</tspan></text></g><g id="Oil imports" transform="translate(290,550.6657074893285)"><circle fill="rgb(94, 181, 171)" r="5"/><text text-anchor="end" dominant-baseline="text-before-edge" transform="translate(0,-5.599999904632568)"><tspan x="-8" y="0" dy="0" style="font-family: Arial, sans-serif; font-size: 10px; fill: black; font-weight: normal;">Oil imports</tspan></text></g><g id="Electricity grid" transform="translate(290,642.3473566794962)"><circle fill="#ccc" r="5"/><text text-anchor="end" dominant-baseline="text-before-edge" transform="translate(0,-5.599999904632568)"><tspan x="-8" y="0" dy="0" style="font-family: Arial, sans-serif; font-size: 10px; fill: black; font-weight: normal;">Electricity grid</tspan></text></g><g id="Solid" transform="translate(290,731.5577442559377)"><circle fill="#ccc" r="5"/><text text-anchor="end" dominant-baseline="text-before-edge" transform="translate(0,-5.599999904632568)"><tspan x="-8" y="0" dy="0" style="font-family: Arial, sans-serif; font-size: 10px; fill: black; font-weight: normal;">Solid</tspan></text></g><g id="Oil reserves" transform="translate(290,759.4535578260422)"><circle fill="rgb(94, 181, 171)" r="5"/><text text-anchor="end" dominant-baseline="text-before-edge" transform="translate(0,-5.599999904632568)"><tspan x="-8" y="0" dy="0" style="font-family: Arial, sans-serif; font-size: 10px; fill: black; font-weight: normal;">Oil reserves</tspan></text></g><g id="Bio-conversion" transform="translate(290,795.7215415008427)"><circle fill="#ccc" r="5"/><text text-anchor="end" dominant-baseline="text-before-edge" transform="translate(0,-5.599999904632568)"><tspan x="-8" y="0" dy="0" style="font-family: Arial, sans-serif; font-size: 10px; fill: black; font-weight: normal;">Bio-conversion</tspan></text></g><g id="Coal" transform="translate(290,829.7666425342609)"><circle fill="rgb(76, 105, 173)" r="5"/><text text-anchor="end" dominant-baseline="text-before-edge" transform="translate(0,-5.599999904632568)"><tspan x="-8" y="0" dy="0" style="font-family: Arial, sans-serif; font-size: 10px; fill: black; font-weight: normal;">Coal</tspan></text></g><g id="Gas reserves" transform="translate(290,847.7558232830389)"><circle fill="rgb(122, 199, 166)" r="5"/><text text-anchor="end" dominant-baseline="text-before-edge" transform="translate(0,-5.599999904632568)"><tspan x="-8" y="0" dy="0" style="font-family: Arial, sans-serif; font-size: 10px; fill: black; font-weight: normal;">Gas reserves</tspan></text></g><g id="Coal reserves" transform="translate(290,864.7926323098751)"><circle fill="rgb(205, 55, 75)" r="5"/><text text-anchor="end" dominant-baseline="text-before-edge" transform="translate(0,-5.599999904632568)"><tspan x="-8" y="0" dy="0" style="font-family: Arial, sans-serif; font-size: 10px; fill: black; font-weight: normal;">Coal reserves</tspan></text></g><g id="Other waste" transform="translate(290,887.0126700118559)"><circle fill="#ccc" r="5"/><text text-anchor="end" dominant-baseline="text-before-edge" transform="translate(0,-5.599999904632568)"><tspan x="-8" y="0" dy="0" style="font-family: Arial, sans-serif; font-size: 10px; fill: black; font-weight: normal;">Other waste</tspan></text></g><g id="Agricultural 'waste'" transform="translate(290,906.8295183425344)"><circle fill="rgb(183, 29, 72)" r="5"/><text text-anchor="end" dominant-baseline="text-before-edge" transform="translate(0,-5.599999904632568)"><tspan x="-8" y="0" dy="0" style="font-family: Arial, sans-serif; font-size: 10px; fill: black; font-weight: normal;">Agricultural 'waste'</tspan></text></g><g id="Coal imports" transform="translate(290,920.9836976378451)"><circle fill="rgb(205, 55, 75)" r="5"/><text text-anchor="end" dominant-baseline="text-before-edge" transform="translate(0,-5.599999904632568)"><tspan x="-8" y="0" dy="0" style="font-family: Arial, sans-serif; font-size: 10px; fill: black; font-weight: normal;">Coal imports</tspan></text></g><g id="UK land based bioenergy" transform="translate(290,934.1056767166621)"><circle fill="rgb(183, 29, 72)" r="5"/><text text-anchor="end" dominant-baseline="text-before-edge" transform="translate(0,-5.599999904632568)"><tspan x="-8" y="0" dy="0" style="font-family: Arial, sans-serif; font-size: 10px; fill: black; font-weight: normal;">UK land based bioenergy</tspan></text></g><g id="District heating" transform="translate(290,946.374088654482)"><circle fill="rgb(254, 224, 145)" r="5"/><text text-anchor="end" dominant-baseline="text-before-edge" transform="translate(0,-5.599999904632568)"><tspan x="-8" y="0" dy="0" style="font-family: Arial, sans-serif; font-size: 10px; fill: black; font-weight: normal;">District heating</tspan></text></g><g id="Hydro" transform="translate(290,957.6205106702596)"><circle fill="rgb(245, 128, 78)" r="5"/><text text-anchor="end" dominant-baseline="text-before-edge" transform="translate(0,-5.599999904632568)"><tspan x="-8" y="0" dy="0" style="font-family: Arial, sans-serif; font-size: 10px; fill: black; font-weight: normal;">Hydro</tspan></text></g><g id="Wind" transform="translate(290,966.8537420827985)"><circle fill="rgb(245, 128, 78)" r="5"/><text text-anchor="end" dominant-baseline="text-before-edge" transform="translate(0,-5.599999904632568)"><tspan x="-8" y="0" dy="0" style="font-family: Arial, sans-serif; font-size: 10px; fill: black; font-weight: normal;">Wind</tspan></text></g><g id="Thermal generation" transform="translate(580,13.146257917201561)"><circle fill="rgb(94, 79, 162)" r="18.450189992529495"/><text text-anchor="start" dominant-baseline="text-before-edge" transform="translate(0,-5.599999904632568)"><tspan x="20.450189992529495" y="0" dy="0" style="font-family: Arial, sans-serif; font-size: 10px; fill: black; font-weight: bold;">Thermal generation</tspan></text></g><g id="Heating and cooling - homes" transform="translate(580,51.55443203940845)"><circle fill="rgb(254, 205, 124)" r="12.367031548640965"/><text text-anchor="start" dominant-baseline="text-before-edge" transform="translate(0,-5.599999904632568)"><tspan x="14.367031548640965" y="0" dy="0" style="font-family: Arial, sans-serif; font-size: 10px; fill: black; font-weight: bold;">Heating and cooling - homes</tspan></text></g><g id="Industry" transform="translate(580,81.00597019079373)"><circle fill="rgb(254, 224, 145)" r="9.421347151308701"/><text text-anchor="start" dominant-baseline="text-before-edge" transform="translate(0,-5.599999904632568)"><tspan x="11.421347151308701" y="0" dy="0" style="font-family: Arial, sans-serif; font-size: 10px; fill: black; font-weight: bold;">Industry</tspan></text></g><g id="Heating and cooling - commercial" transform="translate(580,104.60127085782064)"><circle fill="rgb(252, 182, 106)" r="6.463582077277875"/><text text-anchor="start" dominant-baseline="text-before-edge" transform="translate(0,-5.599999904632568)"><tspan x="8.463582077277875" y="0" dy="0" style="font-family: Arial, sans-serif; font-size: 10px; fill: black; font-weight: bold;">Heating and cooling - commercial</tspan></text></g><g id="Losses" transform="translate(580,121.49746806722757)"><circle fill="rgb(181, 225, 161)" r="2.6682366650754203"/><text text-anchor="start" dominant-baseline="text-before-edge" transform="translate(0,-5.599999904632568)"><tspan x="4.668236665075421" y="0" dy="0" style="font-family: Arial, sans-serif; font-size: 10px; fill: black; font-weight: bold;">Losses</tspan></text></g><g id="Lighting &amp; appliances - commercial" transform="translate(580,133.60344618208273)"><circle fill="rgb(242, 249, 172)" r="1.6347450540226474"/><text text-anchor="start" dominant-baseline="text-before-edge" transform="translate(0,-5.599999904632568)"><tspan x="3.6347450540226474" y="0" dy="0" style="font-family: Arial, sans-serif; font-size: 10px; fill: black; font-weight: bold;">Lighting &amp; appliances - commercial</tspan></text></g><g id="Lighting &amp; appliances - homes" transform="translate(580,144.59007967198642)"><circle fill="rgb(228, 244, 162)" r="1.5398680748171454"/><text text-anchor="start" dominant-baseline="text-before-edge" transform="translate(0,-5.599999904632568)"><tspan x="3.5398680748171456" y="0" dy="0" style="font-family: Arial, sans-serif; font-size: 10px; fill: black; font-weight: bold;">Lighting &amp; appliances - homes</tspan></text></g><g id="Agriculture" transform="translate(580,154.73992760138273)"><circle fill="rgb(158, 1, 66)" r="0.7912134711563996"/><text text-anchor="start" dominant-baseline="text-before-edge" transform="translate(0,-5.599999904632568)"><tspan x="2.7912134711563996" y="0" dy="0" style="font-family: Arial, sans-serif; font-size: 10px; fill: black; font-weight: bold;">Agriculture</tspan></text></g><g id="Gas" transform="translate(580,188.16228842933128)"><circle fill="rgb(250, 155, 90)" r="25"/><text text-anchor="start" dominant-baseline="text-before-edge" transform="translate(0,-5.599999904632568)"><tspan x="27" y="0" dy="0" style="font-family: Arial, sans-serif; font-size: 10px; fill: black; font-weight: bold;">Gas</tspan></text></g><g id="Natural Gas" transform="translate(580,245.1133040034432)"><circle fill="rgb(122, 199, 166)" r="24.509552215805193"/><text text-anchor="start" dominant-baseline="text-before-edge" transform="translate(0,-5.599999904632568)"><tspan x="26.509552215805193" y="0" dy="0" style="font-family: Arial, sans-serif; font-size: 10px; fill: black; font-weight: bold;">Natural Gas</tspan></text></g><g id="Losses" transform="translate(580,290.39613573551577)"><circle fill="rgb(181, 225, 161)" r="13.237749251454476"/><text text-anchor="start" dominant-baseline="text-before-edge" transform="translate(0,-5.599999904632568)"><tspan x="15.237749251454476" y="0" dy="0" style="font-family: Arial, sans-serif; font-size: 10px; fill: black; font-weight: bold;">Losses</tspan></text></g><g id="Electricity grid" transform="translate(580,324.30324742265304)"><circle fill="rgb(245, 128, 78)" r="13.042123057575871"/><text text-anchor="start" dominant-baseline="text-before-edge" transform="translate(0,-5.599999904632568)"><tspan x="15.042123057575871" y="0" dy="0" style="font-family: Arial, sans-serif; font-size: 10px; fill: black; font-weight: bold;">Electricity grid</tspan></text></g><g id="District heating" transform="translate(580,347.24413716185)"><circle fill="rgb(223, 79, 74)" r="2.183119493981168"/><text text-anchor="start" dominant-baseline="text-before-edge" transform="translate(0,-5.599999904632568)"><tspan x="4.1831194939811684" y="0" dy="0" style="font-family: Arial, sans-serif; font-size: 10px; fill: black; font-weight: bold;">District heating</tspan></text></g><g id="Road transport" transform="translate(580,366.9204750446293)"><circle fill="rgb(66, 131, 180)" r="9.751252941314359"/><text text-anchor="start" dominant-baseline="text-before-edge" transform="translate(0,-5.599999904632568)"><tspan x="11.751252941314359" y="0" dy="0" style="font-family: Arial, sans-serif; font-size: 10px; fill: black; font-weight: bold;">Road transport</tspan></text></g><g id="Industry" transform="translate(580,392.0405214481896)"><circle fill="rgb(254, 224, 145)" r="7.6707142636764996"/><text text-anchor="start" dominant-baseline="text-before-edge" transform="translate(0,-5.599999904632568)"><tspan x="9.6707142636765" y="0" dy="0" style="font-family: Arial, sans-serif; font-size: 10px; fill: black; font-weight: bold;">Industry</tspan></text></g><g id="International aviation" transform="translate(580,414.8899350311033)"><circle fill="rgb(254, 240, 165)" r="7.462314666439285"/><text text-anchor="start" dominant-baseline="text-before-edge" transform="translate(0,-5.599999904632568)"><tspan x="9.462314666439285" y="0" dy="0" style="font-family: Arial, sans-serif; font-size: 10px; fill: black; font-weight: bold;">International aviation</tspan></text></g><g id="International shipping" transform="translate(580,436.2643990659479)"><circle fill="rgb(251, 248, 176)" r="6.183873924108369"/><text text-anchor="start" dominant-baseline="text-before-edge" transform="translate(0,-5.599999904632568)"><tspan x="8.183873924108369" y="0" dy="0" style="font-family: Arial, sans-serif; font-size: 10px; fill: black; font-weight: bold;">International shipping</tspan></text></g><g id="National navigation" transform="translate(580,452.79265365686695)"><circle fill="rgb(152, 213, 164)" r="2.5770359091704287"/><text text-anchor="start" dominant-baseline="text-before-edge" transform="translate(0,-5.599999904632568)"><tspan x="4.577035909170428" y="0" dy="0" style="font-family: Arial, sans-serif; font-size: 10px; fill: black; font-weight: bold;">National navigation</tspan></text></g><g id="Domestic aviation" transform="translate(580,465.2588994895795)"><circle fill="rgb(236, 102, 73)" r="2.089117944632773"/><text text-anchor="start" dominant-baseline="text-before-edge" transform="translate(0,-5.599999904632568)"><tspan x="4.089117944632773" y="0" dy="0" style="font-family: Arial, sans-serif; font-size: 10px; fill: black; font-weight: bold;">Domestic aviation</tspan></text></g><g id="Rail transport" transform="translate(580,476.64303078702835)"><circle fill="rgb(73, 157, 178)" r="1.4861975512281689"/><text text-anchor="start" dominant-baseline="text-before-edge" transform="translate(0,-5.599999904632568)"><tspan x="3.4861975512281687" y="0" dy="0" style="font-family: Arial, sans-serif; font-size: 10px; fill: black; font-weight: bold;">Rail transport</tspan></text></g><g id="Agriculture" transform="translate(580,486.99025549867827)"><circle fill="rgb(158, 1, 66)" r="1.043851994927567"/><text text-anchor="start" dominant-baseline="text-before-edge" transform="translate(0,-5.599999904632568)"><tspan x="3.043851994927567" y="0" dy="0" style="font-family: Arial, sans-serif; font-size: 10px; fill: black; font-weight: bold;">Agriculture</tspan></text></g><g id="Liquid" transform="translate(580,511.85505293965224)"><circle fill="rgb(207, 236, 158)" r="16.120808473908763"/><text text-anchor="start" dominant-baseline="text-before-edge" transform="translate(0,-5.599999904632568)"><tspan x="18.120808473908763" y="0" dy="0" style="font-family: Arial, sans-serif; font-size: 10px; fill: black; font-weight: bold;">Liquid</tspan></text></g><g id="Oil" transform="translate(580,550.6657074893285)"><circle fill="rgb(94, 181, 171)" r="15.1021382232384"/><text text-anchor="start" dominant-baseline="text-before-edge" transform="translate(0,-5.599999904632568)"><tspan x="17.1021382232384" y="0" dy="0" style="font-family: Arial, sans-serif; font-size: 10px; fill: black; font-weight: bold;">Oil</tspan></text></g><g id="Industry" transform="translate(580,581.6209187154527)"><circle fill="rgb(254, 224, 145)" r="8.202035907118585"/><text text-anchor="start" dominant-baseline="text-before-edge" transform="translate(0,-5.599999904632568)"><tspan x="10.202035907118585" y="0" dy="0" style="font-family: Arial, sans-serif; font-size: 10px; fill: black; font-weight: bold;">Industry</tspan></text></g><g id="Lighting &amp; appliances - homes" transform="translate(580,603.0762616123769)"><circle fill="rgb(228, 244, 162)" r="5.525683577089606"/><text text-anchor="start" dominant-baseline="text-before-edge" transform="translate(0,-5.599999904632568)"><tspan x="7.525683577089606" y="0" dy="0" style="font-family: Arial, sans-serif; font-size: 10px; fill: black; font-weight: bold;">Lighting &amp; appliances - homes</tspan></text></g><g id="Lighting &amp; appliances - commercial" transform="translate(580,621.5749274062783)"><circle fill="rgb(242, 249, 172)" r="5.221522577962772"/><text text-anchor="start" dominant-baseline="text-before-edge" transform="translate(0,-5.599999904632568)"><tspan x="7.221522577962772" y="0" dy="0" style="font-family: Arial, sans-serif; font-size: 10px; fill: black; font-weight: bold;">Lighting &amp; appliances - commercial</tspan></text></g><g id="Heating and cooling - homes" transform="translate(580,638.7902120366913)"><circle fill="rgb(254, 205, 124)" r="4.231956013720171"/><text text-anchor="start" dominant-baseline="text-before-edge" transform="translate(0,-5.599999904632568)"><tspan x="6.231956013720171" y="0" dy="0" style="font-family: Arial, sans-serif; font-size: 10px; fill: black; font-weight: bold;">Heating and cooling - homes</tspan></text></g><g id="Losses" transform="translate(580,654.258417852597)"><circle fill="rgb(181, 225, 161)" r="3.4603591122595407"/><text text-anchor="start" dominant-baseline="text-before-edge" transform="translate(0,-5.599999904632568)"><tspan x="5.460359112259541" y="0" dy="0" style="font-family: Arial, sans-serif; font-size: 10px; fill: black; font-weight: bold;">Losses</tspan></text></g><g id="Heating and cooling - commercial" transform="translate(580,668.549663865453)"><circle fill="rgb(252, 182, 106)" r="3.0455077616323454"/><text text-anchor="start" dominant-baseline="text-before-edge" transform="translate(0,-5.599999904632568)"><tspan x="5.045507761632345" y="0" dy="0" style="font-family: Arial, sans-serif; font-size: 10px; fill: black; font-weight: bold;">Heating and cooling - commercial</tspan></text></g><g id="Road transport" transform="translate(580,681.4136503789911)"><circle fill="rgb(66, 131, 180)" r="2.0215932904752827"/><text text-anchor="start" dominant-baseline="text-before-edge" transform="translate(0,-5.599999904632568)"><tspan x="4.021593290475282" y="0" dy="0" style="font-family: Arial, sans-serif; font-size: 10px; fill: black; font-weight: bold;">Road transport</tspan></text></g><g id="Rail transport" transform="translate(580,692.6765831131595)"><circle fill="rgb(73, 157, 178)" r="1.431546559975245"/><text text-anchor="start" dominant-baseline="text-before-edge" transform="translate(0,-5.599999904632568)"><tspan x="3.431546559975245" y="0" dy="0" style="font-family: Arial, sans-serif; font-size: 10px; fill: black; font-weight: bold;">Rail transport</tspan></text></g><g id="Agriculture" transform="translate(580,703.0737946435396)"><circle fill="rgb(158, 1, 66)" r="1.1488927901111177"/><text text-anchor="start" dominant-baseline="text-before-edge" transform="translate(0,-5.599999904632568)"><tspan x="3.148892790111118" y="0" dy="0" style="font-family: Arial, sans-serif; font-size: 10px; fill: black; font-weight: bold;">Agriculture</tspan></text></g><g id="Industry" transform="translate(580,717.6021981127274)"><circle fill="rgb(254, 224, 145)" r="5.596043463045294"/><text text-anchor="start" dominant-baseline="text-before-edge" transform="translate(0,-5.599999904632568)"><tspan x="7.596043463045294" y="0" dy="0" style="font-family: Arial, sans-serif; font-size: 10px; fill: black; font-weight: bold;">Industry</tspan></text></g><g id="Thermal generation" transform="translate(580,734.0791142602966)"><circle fill="rgb(94, 79, 162)" r="3.113114045116373"/><text text-anchor="start" dominant-baseline="text-before-edge" transform="translate(0,-5.599999904632568)"><tspan x="5.113114045116372" y="0" dy="0" style="font-family: Arial, sans-serif; font-size: 10px; fill: black; font-weight: bold;">Thermal generation</tspan></text></g><g id="Agriculture" transform="translate(580,745.513290399148)"><circle fill="rgb(158, 1, 66)" r="0.5126497451164278"/><text text-anchor="start" dominant-baseline="text-before-edge" transform="translate(0,-5.599999904632568)"><tspan x="2.512649745116428" y="0" dy="0" style="font-family: Arial, sans-serif; font-size: 10px; fill: black; font-weight: bold;">Agriculture</tspan></text></g><g id="Oil" transform="translate(580,759.4535578260422)"><circle fill="rgb(94, 181, 171)" r="5.639409013361714"/><text text-anchor="start" dominant-baseline="text-before-edge" transform="translate(0,-5.599999904632568)"><tspan x="7.639409013361714" y="0" dy="0" style="font-family: Arial, sans-serif; font-size: 10px; fill: black; font-weight: bold;">Oil</tspan></text></g><g id="Gas" transform="translate(580,776.2770838411533)"><circle fill="rgb(250, 155, 90)" r="3.41915267193146"/><text text-anchor="start" dominant-baseline="text-before-edge" transform="translate(0,-5.599999904632568)"><tspan x="5.41915267193146" y="0" dy="0" style="font-family: Arial, sans-serif; font-size: 10px; fill: black; font-weight: bold;">Gas</tspan></text></g><g id="Solid" transform="translate(580,790.468199410225)"><circle fill="rgb(76, 105, 173)" r="2.9857765236293634"/><text text-anchor="start" dominant-baseline="text-before-edge" transform="translate(0,-5.599999904632568)"><tspan x="4.985776523629363" y="0" dy="0" style="font-family: Arial, sans-serif; font-size: 10px; fill: black; font-weight: bold;">Solid</tspan></text></g><g id="Losses" transform="translate(580,803.5481903405747)"><circle fill="rgb(181, 225, 161)" r="2.2990703360286413"/><text text-anchor="start" dominant-baseline="text-before-edge" transform="translate(0,-5.599999904632568)"><tspan x="4.299070336028642" y="0" dy="0" style="font-family: Arial, sans-serif; font-size: 10px; fill: black; font-weight: bold;">Losses</tspan></text></g><g id="Liquid" transform="translate(580,815.1659991605321)"><circle fill="rgb(207, 236, 158)" r="1.5118065506411928"/><text text-anchor="start" dominant-baseline="text-before-edge" transform="translate(0,-5.599999904632568)"><tspan x="3.511806550641193" y="0" dy="0" style="font-family: Arial, sans-serif; font-size: 10px; fill: black; font-weight: bold;">Liquid</tspan></text></g><g id="Solid" transform="translate(580,829.7666425342609)"><circle fill="rgb(76, 105, 173)" r="5.305951992836187"/><text text-anchor="start" dominant-baseline="text-before-edge" transform="translate(0,-5.599999904632568)"><tspan x="7.305951992836187" y="0" dy="0" style="font-family: Arial, sans-serif; font-size: 10px; fill: black; font-weight: bold;">Solid</tspan></text></g><g id="Natural Gas" transform="translate(580,847.7558232830389)"><circle fill="rgb(122, 199, 166)" r="4.927661735622548"/><text text-anchor="start" dominant-baseline="text-before-edge" transform="translate(0,-5.599999904632568)"><tspan x="6.927661735622548" y="0" dy="0" style="font-family: Arial, sans-serif; font-size: 10px; fill: black; font-weight: bold;">Natural Gas</tspan></text></g><g id="Coal" transform="translate(580,864.7926323098751)"><circle fill="rgb(205, 55, 75)" r="4.3459024126312205"/><text text-anchor="start" dominant-baseline="text-before-edge" transform="translate(0,-5.599999904632568)"><tspan x="6.3459024126312205" y="0" dy="0" style="font-family: Arial, sans-serif; font-size: 10px; fill: black; font-weight: bold;">Coal</tspan></text></g><g id="Bio-conversion" transform="translate(580,880.3649731356984)"><circle fill="rgb(183, 29, 72)" r="3.451387241941516"/><text text-anchor="start" dominant-baseline="text-before-edge" transform="translate(0,-5.599999904632568)"><tspan x="5.451387241941516" y="0" dy="0" style="font-family: Arial, sans-serif; font-size: 10px; fill: black; font-weight: bold;">Bio-conversion</tspan></text></g><g id="Solid" transform="translate(580,893.6603668880134)"><circle fill="rgb(76, 105, 173)" r="2.050598980465711"/><text text-anchor="start" dominant-baseline="text-before-edge" transform="translate(0,-5.599999904632568)"><tspan x="4.050598980465711" y="0" dy="0" style="font-family: Arial, sans-serif; font-size: 10px; fill: black; font-weight: bold;">Solid</tspan></text></g><g id="Bio-conversion" transform="translate(580,906.8295183425344)"><circle fill="rgb(183, 29, 72)" r="3.3241272002907234"/><text text-anchor="start" dominant-baseline="text-before-edge" transform="translate(0,-5.599999904632568)"><tspan x="5.324127200290723" y="0" dy="0" style="font-family: Arial, sans-serif; font-size: 10px; fill: black; font-weight: bold;">Bio-conversion</tspan></text></g><g id="Coal" transform="translate(580,920.9836976378451)"><circle fill="rgb(205, 55, 75)" r="3.0435679475746262"/><text text-anchor="start" dominant-baseline="text-before-edge" transform="translate(0,-5.599999904632568)"><tspan x="5.043567947574626" y="0" dy="0" style="font-family: Arial, sans-serif; font-size: 10px; fill: black; font-weight: bold;">Coal</tspan></text></g><g id="Bio-conversion" transform="translate(580,934.1056767166621)"><circle fill="rgb(183, 29, 72)" r="2.283605561836687"/><text text-anchor="start" dominant-baseline="text-before-edge" transform="translate(0,-5.599999904632568)"><tspan x="4.283605561836687" y="0" dy="0" style="font-family: Arial, sans-serif; font-size: 10px; fill: black; font-weight: bold;">Bio-conversion</tspan></text></g><g id="Industry" transform="translate(580,946.374088654482)"><circle fill="rgb(254, 224, 145)" r="2.183119493981168"/><text text-anchor="start" dominant-baseline="text-before-edge" transform="translate(0,-5.599999904632568)"><tspan x="4.1831194939811684" y="0" dy="0" style="font-family: Arial, sans-serif; font-size: 10px; fill: black; font-weight: bold;">Industry</tspan></text></g><g id="Electricity grid" transform="translate(580,957.6205106702596)"><circle fill="rgb(245, 128, 78)" r="1.2533765314852572"/><text text-anchor="start" dominant-baseline="text-before-edge" transform="translate(0,-5.599999904632568)"><tspan x="3.253376531485257" y="0" dy="0" style="font-family: Arial, sans-serif; font-size: 10px; fill: black; font-weight: bold;">Electricity grid</tspan></text></g><g id="Electricity grid" transform="translate(580,966.8537420827985)"><circle fill="rgb(245, 128, 78)" r="0.1536988917281656"/><text text-anchor="start" dominant-baseline="text-before-edge" transform="translate(0,-5.599999904632568)"><tspan x="2.1536988917281654" y="0" dy="0" style="font-family: Arial, sans-serif; font-size: 10px; fill: black; font-weight: bold;">Electricity grid</tspan></text></g></g></g><g id="legend" transform="translate(800,10)"><g transform="translate(5,0)"><g class="legendSize" transform="translate(0,0)"><g class="legendCells" transform="translate(25,16)"><g class="cell" transform="translate(0, 0)"><circle class="swatch" r="0" fill="none" stroke="#ccc"/><text class="label" transform="translate( 30,&#10;          5)" font-family="&quot;Arial&quot;, sans-serif" font-size="10px"><tspan x="0" dy="0em">0.0</tspan></text></g><g class="cell" transform="translate(0, 41)"><circle class="swatch" r="25" fill="none" stroke="#ccc"/><text class="label" transform="translate( 30,&#10;          5)" font-family="&quot;Arial&quot;, sans-serif" font-size="10px"><tspan x="0" dy="0em">2116.6</tspan></text></g></g><text class="legendTitle" font-family="&quot;Arial&quot;, sans-serif" font-size="12px" font-weight="bold"><tspan x="0" dy="0em">TWh</tspan></text></g><g class="legendColor" transform="translate(0,114.80000305175781)"><g class="legendCells" transform="translate(0,16)"><g class="cell" transform="translate(0, 0)"><rect class="swatch" height="15" width="15" style="fill: rgb(158, 1, 66);"/><text class="label" transform="translate( 20, 12.5)" font-family="&quot;Arial&quot;, sans-serif" font-size="10px"><tspan x="0" dy="0em">Agriculture</tspan></text></g><g class="cell" transform="translate(0, 21)"><rect class="swatch" height="15" width="15" style="fill: rgb(183, 29, 72);"/><text class="label" transform="translate( 20, 12.5)" font-family="&quot;Arial&quot;, sans-serif" font-size="10px"><tspan x="0" dy="0em">Bio-conversion</tspan></text></g><g class="cell" transform="translate(0, 42)"><rect class="swatch" height="15" width="15" style="fill: rgb(205, 55, 75);"/><text class="label" transform="translate( 20, 12.5)" font-family="&quot;Arial&quot;, sans-serif" font-size="10px"><tspan x="0" dy="0em">Coal</tspan></text></g><g class="cell" transform="translate(0, 63)"><rect class="swatch" height="15" width="15" style="fill: rgb(223, 79, 74);"/><text class="label" transform="translate( 20, 12.5)" font-family="&quot;Arial&quot;, sans-serif" font-size="10px"><tspan x="0" dy="0em">District heating</tspan></text></g><g class="cell" transform="translate(0, 84)"><rect class="swatch" height="15" width="15" style="fill: rgb(236, 102, 73);"/><text class="label" transform="translate( 20, 12.5)" font-family="&quot;Arial&quot;, sans-serif" font-size="10px"><tspan x="0" dy="0em">Domestic aviation</tspan></text></g><g class="cell" transform="translate(0, 105)"><rect class="swatch" height="15" width="15" style="fill: rgb(245, 128, 78);"/><text class="label" transform="translate( 20, 12.5)" font-family="&quot;Arial&quot;, sans-serif" font-size="10px"><tspan x="0" dy="0em">Electricity grid</tspan></text></g><g class="cell" transform="translate(0, 126)"><rect class="swatch" height="15" width="15" style="fill: rgb(250, 155, 90);"/><text class="label" transform="translate( 20, 12.5)" font-family="&quot;Arial&quot;, sans-serif" font-size="10px"><tspan x="0" dy="0em">Gas</tspan></text></g><g class="cell" transform="translate(0, 147)"><rect class="swatch" height="15" width="15" style="fill: rgb(252, 182, 106);"/><text class="label" transform="translate( 20, 12.5)" font-family="&quot;Arial&quot;, sans-serif" font-size="10px"><tspan x="0" dy="0em">Heating and cooling -</tspan><tspan x="0" dy="1.2em">commercial</tspan></text></g><g class="cell" transform="translate(0, 183.5999984741211)"><rect class="swatch" height="15" width="15" style="fill: rgb(254, 205, 124);"/><text class="label" transform="translate( 20, 12.5)" font-family="&quot;Arial&quot;, sans-serif" font-size="10px"><tspan x="0" dy="0em">Heating and cooling -</tspan><tspan x="0" dy="1.2em">homes</tspan></text></g><g class="cell" transform="translate(0, 220.1999969482422)"><rect class="swatch" height="15" width="15" style="fill: rgb(254, 224, 145);"/><text class="label" transform="translate( 20, 12.5)" font-family="&quot;Arial&quot;, sans-serif" font-size="10px"><tspan x="0" dy="0em">Industry</tspan></text></g><g class="cell" transform="translate(0, 241.1999969482422)"><rect class="swatch" height="15" width="15" style="fill: rgb(254, 240, 165);"/><text class="label" transform="translate( 20, 12.5)" font-family="&quot;Arial&quot;, sans-serif" font-size="10px"><tspan x="0" dy="0em">International aviation</tspan></text></g><g class="cell" transform="translate(0, 262.1999969482422)"><rect class="swatch" height="15" width="15" style="fill: rgb(251, 248, 176);"/><text class="label" transform="translate( 20, 12.5)" font-family="&quot;Arial&quot;, sans-serif" font-size="10px"><tspan x="0" dy="0em">International shipping</tspan></text></g><g class="cell" transform="translate(0, 283.1999969482422)"><rect class="swatch" height="15" width="15" style="fill: rgb(242, 249, 172);"/><text class="label" transform="translate( 20, 12.5)" font-family="&quot;Arial&quot;, sans-serif" font-size="10px"><tspan x="0" dy="0em">Lighting &amp; appliances -</tspan><tspan x="0" dy="1.2em">commercial</tspan></text></g><g class="cell" transform="translate(0, 319.7999954223633)"><rect class="swatch" height="15" width="15" style="fill: rgb(228, 244, 162);"/><text class="label" transform="translate( 20, 12.5)" font-family="&quot;Arial&quot;, sans-serif" font-size="10px"><tspan x="0" dy="0em">Lighting &amp; appliances -</tspan><tspan x="0" dy="1.2em">homes</tspan></text></g><g class="cell" transform="translate(0, 356.3999938964844)"><rect class="swatch" height="15" width="15" style="fill: rgb(207, 236, 158);"/><text class="label" transform="translate( 20, 12.5)" font-family="&quot;Arial&quot;, sans-serif" font-size="10px"><tspan x="0" dy="0em">Liquid</tspan></text></g><g class="cell" transform="translate(0, 377.3999938964844)"><rect class="swatch" height="15" width="15" style="fill: rgb(181, 225, 161);"/><text class="label" transform="translate( 20, 12.5)" font-family="&quot;Arial&quot;, sans-serif" font-size="10px"><tspan x="0" dy="0em">Losses</tspan></text></g><g class="cell" transform="translate(0, 398.3999938964844)"><rect class="swatch" height="15" width="15" style="fill: rgb(152, 213, 164);"/><text class="label" transform="translate( 20, 12.5)" font-family="&quot;Arial&quot;, sans-serif" font-size="10px"><tspan x="0" dy="0em">National navigation</tspan></text></g><g class="cell" transform="translate(0, 419.3999938964844)"><rect class="swatch" height="15" width="15" style="fill: rgb(122, 199, 166);"/><text class="label" transform="translate( 20, 12.5)" font-family="&quot;Arial&quot;, sans-serif" font-size="10px"><tspan x="0" dy="0em">Natural Gas</tspan></text></g><g class="cell" transform="translate(0, 440.3999938964844)"><rect class="swatch" height="15" width="15" style="fill: rgb(94, 181, 171);"/><text class="label" transform="translate( 20, 12.5)" font-family="&quot;Arial&quot;, sans-serif" font-size="10px"><tspan x="0" dy="0em">Oil</tspan></text></g><g class="cell" transform="translate(0, 461.3999938964844)"><rect class="swatch" height="15" width="15" style="fill: rgb(73, 157, 178);"/><text class="label" transform="translate( 20, 12.5)" font-family="&quot;Arial&quot;, sans-serif" font-size="10px"><tspan x="0" dy="0em">Rail transport</tspan></text></g><g class="cell" transform="translate(0, 482.3999938964844)"><rect class="swatch" height="15" width="15" style="fill: rgb(66, 131, 180);"/><text class="label" transform="translate( 20, 12.5)" font-family="&quot;Arial&quot;, sans-serif" font-size="10px"><tspan x="0" dy="0em">Road transport</tspan></text></g><g class="cell" transform="translate(0, 503.3999938964844)"><rect class="swatch" height="15" width="15" style="fill: rgb(76, 105, 173);"/><text class="label" transform="translate( 20, 12.5)" font-family="&quot;Arial&quot;, sans-serif" font-size="10px"><tspan x="0" dy="0em">Solid</tspan></text></g><g class="cell" transform="translate(0, 524.3999938964844)"><rect class="swatch" height="15" width="15" style="fill: rgb(94, 79, 162);"/><text class="label" transform="translate( 20, 12.5)" font-family="&quot;Arial&quot;, sans-serif" font-size="10px"><tspan x="0" dy="0em">Thermal generation</tspan></text></g></g><text class="legendTitle" font-family="&quot;Arial&quot;, sans-serif" font-size="12px" font-weight="bold"><tspan x="0" dy="0em">To</tspan></text></g></g></g></svg>