<svg xmlns="http://www.w3.org/2000/svg" width="1000" height="500"><rect width="1000" height="500" x="0" y="0" fill="#FFFFFF" id="backgorund"/><g transform="translate(10,10)" id="viz"><g><rect x="0" y="366.9808772467763" height="5.326272639043395" width="5" fill="black"><title>Coal reserves: 63.96</title></rect><rect x="195" y="383.80260515333305" height="7.939443924427962" width="5" fill="black"><title>Coal: 95.34</title></rect><rect x="0" y="382.90469397156664" height="2.6123385348154784" width="5" fill="black"><title>Coal imports: 31.37</title></rect><rect x="0" y="471.03127637234235" height="8.968723627657653" width="5" fill="black"><title>Oil reserves: 107.7</title></rect><rect x="195" y="406.71128792730707" height="73.28871207269293" width="5" fill="black"><title>Oil: 880.08</title></rect><rect x="0" y="396.11457659212914" height="64.31915569446625" width="5" fill="black"><title>Oil imports: 772.37</title></rect><rect x="0" y="286.96627675735846" height="6.8477079285265745" width="5" fill="black"><title>Gas reserves: 82.23</title></rect><rect x="195" y="91.35117551665104" height="176.25582167241407" width="5" fill="black"><title>Natural Gas: 2116.55</title></rect><rect x="0" y="106.96061892772374" height="169.40811374388775" width="5" fill="black"><title>Gas imports: 2034.32</title></rect><rect x="0" y="339.7699989651431" height="1.4706375047765619" width="5" fill="black"><title>UK land based bioenergy: 17.66</title></rect><rect x="195" y="338.6928162768042" height="7.946105928979421" width="5" fill="black"><title>Bio-conversion: 95.42000000000002</title></rect><rect x="0" y="326.05630225036214" height="3.116152629033934" width="5" fill="black"><title>Agricultural 'waste': 37.42</title></rect><rect x="0" y="351.8381805556666" height="4.545152605362659" width="5" fill="black"><title>Other waste: 54.580000000000005</title></rect><rect x="390" y="383.82984019888835" height="11.639354702300011" width="5" fill="black"><title>Solid: 139.77</title></rect><rect x="390" y="406.0667389869353" height="73.93326101306468" width="5" fill="black"><title>Liquid: 887.82</title></rect><rect x="390" y="29.424292255243945" height="179.55268117491153" width="5" fill="black"><title>Gas: 2156.1400000000003</title></rect><rect x="975" y="85.77136001021272" height="56.293938461435985" width="5" fill="black"><title>Losses: 676</title></rect><rect x="585" y="0" height="98.73174020601019" width="5" fill="black"><title>Thermal generation: 1185.6100000000001</title></rect><rect x="780" y="148.3743275139384" height="1.3440594182953305" width="5" fill="black"><title>District heating: 16.14</title></rect><rect x="780" y="65.5455133601645" height="48.4186163308177" width="5" fill="black"><title>Electricity grid: 581.4300000000001</title></rect><rect x="0" y="315.45209616006355" height="0.006662004551628797" width="5" fill="black"><title>Wind: 0.08</title></rect><rect x="0" y="304.411528771632" height="0.443023302684594" width="5" fill="black"><title>Hydro: 5.32</title></rect><rect x="975" y="152.6628425573957" height="70.77213985330755" width="5" fill="black"><title>Industry: 849.8599999999999</title></rect><rect x="975" y="234.0325264964502" height="48.182115169233896" width="5" fill="black"><title>Heating and cooling - homes: 578.59</title></rect><rect x="975" y="292.81218575143106" height="14.39742458668286" width="5" fill="black"><title>Heating and cooling - commercial: 172.89</title></rect><rect x="975" y="317.8071544238609" height="9.279339589878305" width="5" fill="black"><title>Lighting &amp; appliances - homes: 111.43</title></rect><rect x="975" y="337.68403809948614" height="8.442425268077386" width="5" fill="black"><title>Lighting &amp; appliances - commercial: 101.38</title></rect><rect x="975" y="356.7240074533105" height="0.9301823855238922" width="5" fill="black"><title>Agriculture: 11.169999999999998</title></rect><rect x="975" y="368.2517339245814" height="27.96792785839233" width="5" fill="black"><title>Road transport: 335.84999999999997</title></rect><rect x="975" y="406.8172058687207" height="1.2008263204347145" width="5" fill="black"><title>Rail transport: 14.420000000000002</title></rect><rect x="975" y="478.7691946590829" height="1.2308053409170725" width="5" fill="black"><title>Domestic aviation: 14.78</title></rect><rect x="975" y="466.29879454375373" height="1.8728560295822376" width="5" fill="black"><title>National navigation: 22.49</title></rect><rect x="975" y="418.61557627490237" height="15.704010229375456" width="5" fill="black"><title>International aviation: 188.58</title></rect><rect x="975" y="444.9171305900248" height="10.784119867981929" width="5" fill="black"><title>International shipping: 129.5</title></rect></g><g class="links" fill="none" stroke-opacity="0.7"><path d="M5,369.6440135662981C100,369.6440135662981,100,386.46574147285486,195,386.46574147285486" stroke="rgb(240, 112, 74)" style="stroke-width: 5.32627; mix-blend-mode: multiply;"><title>Coal reserves → Coal: 63.96</title></path><path d="M5,384.2108632389744C100,384.2108632389744,100,390.4350470597843,195,390.4350470597843" stroke="rgb(228, 86, 73)" style="stroke-width: 2.61234; mix-blend-mode: multiply;"><title>Coal imports → Coal: 31.37</title></path><path d="M5,475.51563818617115C100,475.51563818617115,100,475.5148054356021,195,475.5148054356021" stroke="rgb(137, 207, 165)" style="stroke-width: 8.96872; mix-blend-mode: multiply;"><title>Oil reserves → Oil: 107.7</title></path><path d="M5,428.27415443936223C100,428.27415443936223,100,438.87086577454016,195,438.87086577454016" stroke="rgb(169, 221, 162)" style="stroke-width: 64.3192; mix-blend-mode: multiply;"><title>Oil imports → Oil: 772.37</title></path><path d="M5,290.39013072162163C100,290.39013072162163,100,264.1831432248018,195,264.1831432248018" stroke="rgb(254, 238, 163)" style="stroke-width: 6.84771; mix-blend-mode: multiply;"><title>Gas reserves → Natural Gas: 82.23</title></path><path d="M5,191.6646757996676C100,191.6646757996676,100,176.0552323885948,195,176.0552323885948" stroke="rgb(254, 221, 141)" style="stroke-width: 169.408; mix-blend-mode: multiply;"><title>Gas imports → Natural Gas: 2034.32</title></path><path d="M5,340.50531771753134C100,340.50531771753134,100,342.5442876582264,195,342.5442876582264" stroke="rgb(74, 108, 174)" style="stroke-width: 1.47064; mix-blend-mode: multiply;"><title>UK land based bioenergy → Bio-conversion: 17.66</title></path><path d="M5,327.61437856487913C100,327.61437856487913,100,340.25089259132113,195,340.25089259132113" stroke="rgb(158, 1, 66)" style="stroke-width: 3.11615; mix-blend-mode: multiply;"><title>Agricultural 'waste' → Bio-conversion: 37.42</title></path><path d="M5,353.51783845325116C100,353.51783845325116,100,344.95926430819924,195,344.95926430819924" stroke="rgb(105, 189, 169)" style="stroke-width: 3.35932; mix-blend-mode: multiply;"><title>Other waste → Bio-conversion: 40.34</title></path><path d="M5,355.7904147559326C197.5,355.7904147559326,197.5,386.93683257166384,390,386.93683257166384" stroke="rgb(105, 189, 169)" style="stroke-width: 1.18584; mix-blend-mode: multiply;"><title>Other waste → Solid: 14.24</title></path><path d="M200,387.77232711554694C295,387.77232711554694,295,391.49947293897446,390,391.49947293897446" stroke="rgb(209, 60, 75)" style="stroke-width: 7.93944; mix-blend-mode: multiply;"><title>Coal → Solid: 95.34</title></path><path d="M200,443.35564396365345C295,443.35564396365345,295,443.3556439636538,390,443.3556439636538" stroke="rgb(200, 233, 159)" style="stroke-width: 73.2887; mix-blend-mode: multiply;"><title>Oil → Liquid: 880.08</title></path><path d="M200,179.47908635285808C295,179.47908635285808,295,117.55220309145098,390,117.55220309145098" stroke="rgb(224, 243, 161)" style="stroke-width: 176.256; mix-blend-mode: multiply;"><title>Natural Gas → Gas: 2116.55</title></path><path d="M200,344.73733628157237C295,344.73733628157237,295,385.0868771827276,390,385.0868771827276" stroke="rgb(185, 31, 72)" style="stroke-width: 2.51407; mix-blend-mode: multiply;"><title>Bio-conversion → Solid: 30.19</title></path><path d="M200,346.3166477355978C295,346.3166477355978,295,406.3890134571214,390,406.3890134571214" stroke="rgb(185, 31, 72)" style="stroke-width: 1; mix-blend-mode: multiply;"><title>Bio-conversion → Liquid: 7.74</title></path><path d="M200,340.34124602805286C295,340.34124602805286,295,207.32854367890673,390,207.32854367890673" stroke="rgb(185, 31, 72)" style="stroke-width: 3.29686; mix-blend-mode: multiply;"><title>Bio-conversion → Gas: 39.59</title></path><path d="M200,342.7349875385173C587.5,342.7349875385173,587.5,141.31998671243278,975,141.31998671243278" stroke="rgb(185, 31, 72)" style="stroke-width: 1.49062; mix-blend-mode: multiply;"><title>Bio-conversion → Losses: 17.9</title></path><path d="M395,385.1963838825454C490,385.1963838825454,490,97.36519652235316,585,97.36519652235316" stroke="rgb(78, 164, 176)" style="stroke-width: 2.73309; mix-blend-mode: multiply;"><title>Solid → Thermal generation: 32.82</title></path><path d="M395,77.423618674592C490,77.423618674592,490,47.999326419348066,585,47.999326419348066" stroke="rgb(253, 198, 118)" style="stroke-width: 95.9987; mix-blend-mode: multiply;"><title>Gas → Thermal generation: 1152.79</title></path><path d="M590,98.05971049686265C685,98.05971049686265,685,149.04635722308606,780,149.04635722308606" stroke="rgb(66, 136, 181)" style="stroke-width: 1.34406; mix-blend-mode: multiply;"><title>Thermal generation → District heating: 16.14</title></path><path d="M590,73.40321527592448C685,73.40321527592448,685,89.52997887195514,780,89.52997887195514" stroke="rgb(66, 136, 181)" style="stroke-width: 47.9689; mix-blend-mode: multiply;"><title>Thermal generation → Electricity grid: 576.03</title></path><path d="M590,24.70937488206692C782.5,24.70937488206692,782.5,113.85753844939686,975,113.85753844939686" stroke="rgb(66, 136, 181)" style="stroke-width: 49.4187; mix-blend-mode: multiply;"><title>Thermal generation → Losses: 593.44</title></path><path d="M5,315.4554271623394C392.5,315.4554271623394,392.5,113.96079868870616,780,113.96079868870616" stroke="rgb(94, 79, 162)" style="stroke-width: 1; mix-blend-mode: multiply;"><title>Wind → Electricity grid: 0.08</title></path><path d="M5,304.63304042297426C392.5,304.63304042297426,392.5,113.73595603508794,780,113.73595603508794" stroke="rgb(251, 248, 176)" style="stroke-width: 1; mix-blend-mode: multiply;"><title>Hydro → Electricity grid: 5.32</title></path><path d="M785,67.2339151387231C880,67.2339151387231,880,87.45976178877133,975,87.45976178877133" stroke="rgb(252, 172, 99)" style="stroke-width: 3.3768; mix-blend-mode: multiply;"><title>Electricity grid → Losses: 40.55</title></path><path d="M785,149.04635722308606C880,149.04635722308606,880,172.30659572850232,975,172.30659572850232" stroke="rgb(248, 142, 83)" style="stroke-width: 1.34406; mix-blend-mode: multiply;"><title>District heating → Industry: 16.14</title></path><path d="M785,90.41935647960025C880,90.41935647960025,880,236.55784259680973,975,236.55784259680973" stroke="rgb(252, 172, 99)" style="stroke-width: 5.05063; mix-blend-mode: multiply;"><title>Electricity grid → Heating and cooling - homes: 60.65</title></path><path d="M395,174.02809755220372C685,174.02809755220372,685,260.64890018142665,975,260.64890018142665" stroke="rgb(253, 198, 118)" style="stroke-width: 43.1315; mix-blend-mode: multiply;"><title>Gas → Heating and cooling - homes: 517.94</title></path><path d="M785,94.25250734850539C880,94.25250734850539,880,294.1200205199766,975,294.1200205199766" stroke="rgb(252, 172, 99)" style="stroke-width: 2.61567; mix-blend-mode: multiply;"><title>Electricity grid → Heating and cooling - commercial: 31.41</title></path><path d="M395,201.48471656125707C685,201.48471656125707,685,301.3187328133182,975,301.3187328133182" stroke="rgb(253, 198, 118)" style="stroke-width: 11.7818; mix-blend-mode: multiply;"><title>Gas → Heating and cooling - commercial: 141.48</title></path><path d="M785,99.86566255855439C880,99.86566255855439,880,322.11247486536416,975,322.11247486536416" stroke="rgb(252, 172, 99)" style="stroke-width: 8.61064; mix-blend-mode: multiply;"><title>Electricity grid → Lighting &amp; appliances - homes: 103.4</title></path><path d="M395,207.70994343948868C685,207.70994343948868,685,326.7521446603033,975,326.7521446603033" stroke="rgb(253, 198, 118)" style="stroke-width: 1; mix-blend-mode: multiply;"><title>Gas → Lighting &amp; appliances - homes: 8.03</title></path><path d="M785,108.01537600164372C880,108.01537600164372,880,341.5284311010722,975,341.5284311010722" stroke="rgb(252, 172, 99)" style="stroke-width: 7.68879; mix-blend-mode: multiply;"><title>Electricity grid → Lighting &amp; appliances - commercial: 92.33</title></path><path d="M395,208.42111242537717C685,208.42111242537717,685,345.7496437351109,975,345.7496437351109" stroke="rgb(253, 198, 118)" style="stroke-width: 1; mix-blend-mode: multiply;"><title>Gas → Lighting &amp; appliances - commercial: 9.05</title></path><path d="M785,78.40817864826127C880,78.40817864826127,880,162.14870428837523,975,162.14870428837523" stroke="rgb(252, 172, 99)" style="stroke-width: 18.9717; mix-blend-mode: multiply;"><title>Electricity grid → Industry: 227.82</title></path><path d="M395,390.97858745809236C685,390.97858745809236,685,202.4259346817928,975,202.4259346817928" stroke="rgb(78, 164, 176)" style="stroke-width: 8.83132; mix-blend-mode: multiply;"><title>Solid → Industry: 106.05</title></path><path d="M395,414.36343290544545C685,414.36343290544545,685,215.13828849219288,975,215.13828849219288" stroke="rgb(241, 249, 171)" style="stroke-width: 16.5934; mix-blend-mode: multiply;"><title>Liquid → Industry: 199.26</title></path><path d="M395,139.94653139181986C685,139.94653139181986,685,185.49445011377634,975,185.49445011377634" stroke="rgb(253, 198, 118)" style="stroke-width: 25.0316; mix-blend-mode: multiply;"><title>Gas → Industry: 300.59</title></path><path d="M785,112.04588875539149C880,112.04588875539149,880,356.91012720547224,975,356.91012720547224" stroke="rgb(252, 172, 99)" style="stroke-width: 1; mix-blend-mode: multiply;"><title>Electricity grid → Agriculture: 4.47</title></path><path d="M395,395.4313047503009C685,395.4313047503009,685,357.30984747857116,975,357.30984747857116" stroke="rgb(78, 164, 176)" style="stroke-width: 1; mix-blend-mode: multiply;"><title>Solid → Agriculture: 0.89</title></path><path d="M395,422.8137693039279C685,422.8137693039279,685,357.50054735886204,975,357.50054735886204" stroke="rgb(241, 249, 171)" style="stroke-width: 1; mix-blend-mode: multiply;"><title>Liquid → Agriculture: 3.69</title></path><path d="M395,208.88620361813912C685,208.88620361813912,685,357.1845185179433,975,357.1845185179433" stroke="rgb(253, 198, 118)" style="stroke-width: 1; mix-blend-mode: multiply;"><title>Gas → Agriculture: 2.12</title></path><path d="M785,112.8082719012709C880,112.8082719012709,880,368.8279973182991,975,368.8279973182991" stroke="rgb(252, 172, 99)" style="stroke-width: 1.15253; mix-blend-mode: multiply;"><title>Electricity grid → Road transport: 13.84</title></path><path d="M395,436.3751123193789C685,436.3751123193789,685,382.8119612474951,975,382.8119612474951" stroke="rgb(241, 249, 171)" style="stroke-width: 26.8154; mix-blend-mode: multiply;"><title>Liquid → Road transport: 322.01</title></path><path d="M785,113.67349974241624C880,113.67349974241624,880,407.10617031614845,975,407.10617031614845" stroke="rgb(252, 172, 99)" style="stroke-width: 1; mix-blend-mode: multiply;"><title>Electricity grid → Rail transport: 6.94</title></path><path d="M395,450.0942615676469C685,450.0942615676469,685,407.70658347636584,975,407.70658347636584" stroke="rgb(241, 249, 171)" style="stroke-width: 1; mix-blend-mode: multiply;"><title>Liquid → Rail transport: 7.48</title></path><path d="M395,479.3820990778348C685,479.3820990778348,685,479.3845973295416,975,479.3845973295416" stroke="rgb(241, 249, 171)" style="stroke-width: 1.23081; mix-blend-mode: multiply;"><title>Liquid → Domestic aviation: 14.78</title></path><path d="M395,477.83026839258497C685,477.83026839258497,685,467.2352225585449,975,467.2352225585449" stroke="rgb(241, 249, 171)" style="stroke-width: 1.87286; mix-blend-mode: multiply;"><title>Liquid → National navigation: 22.49</title></path><path d="M395,458.2577153951241C685,458.2577153951241,685,426.4675813895899,975,426.4675813895899" stroke="rgb(241, 249, 171)" style="stroke-width: 15.704; mix-blend-mode: multiply;"><title>Liquid → International aviation: 188.58</title></path><path d="M395,471.50178044380266C685,471.50178044380266,685,450.30919052401583,975,450.30919052401583" stroke="rgb(241, 249, 171)" style="stroke-width: 10.7841; mix-blend-mode: multiply;"><title>Liquid → International shipping: 129.5</title></path><path d="M395,126.42682590481672C685,126.42682590481672,685,139.57079414234042,975,139.57079414234042" stroke="rgb(253, 198, 118)" style="stroke-width: 2.00776; mix-blend-mode: multiply;"><title>Gas → Losses: 24.11</title></path></g><g><text x="9" y="369.644013566298" text-anchor="start"><tspan alignment-baseline="middle" style="font-family: Arial, sans-serif; font-size: 10px; fill: black; font-weight: bold;">Coal reserves</tspan></text><text x="204" y="387.772327115547" text-anchor="start"><tspan alignment-baseline="middle" style="font-family: Arial, sans-serif; font-size: 10px; fill: black; font-weight: bold;">Coal</tspan></text><text x="9" y="384.2108632389744" text-anchor="start"><tspan alignment-baseline="middle" style="font-family: Arial, sans-serif; font-size: 10px; fill: black; font-weight: bold;">Coal imports</tspan></text><text x="9" y="475.51563818617115" text-anchor="start"><tspan alignment-baseline="middle" style="font-family: Arial, sans-serif; font-size: 10px; fill: black; font-weight: bold;">Oil reserves</tspan></text><text x="204" y="443.3556439636535" text-anchor="start"><tspan alignment-baseline="middle" style="font-family: Arial, sans-serif; font-size: 10px; fill: black; font-weight: bold;">Oil</tspan></text><text x="9" y="428.2741544393623" text-anchor="start"><tspan alignment-baseline="middle" style="font-family: Arial, sans-serif; font-size: 10px; fill: black; font-weight: bold;">Oil imports</tspan></text><text x="9" y="290.39013072162174" text-anchor="start"><tspan alignment-baseline="middle" style="font-family: Arial, sans-serif; font-size: 10px; fill: black; font-weight: bold;">Gas reserves</tspan></text><text x="204" y="179.47908635285808" text-anchor="start"><tspan alignment-baseline="middle" style="font-family: Arial, sans-serif; font-size: 10px; fill: black; font-weight: bold;">Natural Gas</tspan></text><text x="9" y="191.66467579966763" text-anchor="start"><tspan alignment-baseline="middle" style="font-family: Arial, sans-serif; font-size: 10px; fill: black; font-weight: bold;">Gas imports</tspan></text><text x="9" y="340.5053177175314" text-anchor="start"><tspan alignment-baseline="middle" style="font-family: Arial, sans-serif; font-size: 10px; fill: black; font-weight: bold;">UK land based bioenergy</tspan></text><text x="204" y="342.6658692412939" text-anchor="start"><tspan alignment-baseline="middle" style="font-family: Arial, sans-serif; font-size: 10px; fill: black; font-weight: bold;">Bio-conversion</tspan></text><text x="9" y="327.6143785648791" text-anchor="start"><tspan alignment-baseline="middle" style="font-family: Arial, sans-serif; font-size: 10px; fill: black; font-weight: bold;">Agricultural 'waste'</tspan></text><text x="9" y="354.11075685834794" text-anchor="start"><tspan alignment-baseline="middle" style="font-family: Arial, sans-serif; font-size: 10px; fill: black; font-weight: bold;">Other waste</tspan></text><text x="399" y="389.64951755003835" text-anchor="start"><tspan alignment-baseline="middle" style="font-family: Arial, sans-serif; font-size: 10px; fill: black; font-weight: bold;">Solid</tspan></text><text x="399" y="443.03336949346766" text-anchor="start"><tspan alignment-baseline="middle" style="font-family: Arial, sans-serif; font-size: 10px; fill: black; font-weight: bold;">Liquid</tspan></text><text x="399" y="119.2006328426997" text-anchor="start"><tspan alignment-baseline="middle" style="font-family: Arial, sans-serif; font-size: 10px; fill: black; font-weight: bold;">Gas</tspan></text><text x="971" y="113.91832924093072" text-anchor="end"><tspan alignment-baseline="middle" style="font-family: Arial, sans-serif; font-size: 10px; fill: black; font-weight: bold;">Losses</tspan></text><text x="581" y="49.36587010300509" text-anchor="end"><tspan alignment-baseline="middle" style="font-family: Arial, sans-serif; font-size: 10px; fill: black; font-weight: bold;">Thermal generation</tspan></text><text x="776" y="149.04635722308606" text-anchor="end"><tspan alignment-baseline="middle" style="font-family: Arial, sans-serif; font-size: 10px; fill: black; font-weight: bold;">District heating</tspan></text><text x="776" y="89.75482152557336" text-anchor="end"><tspan alignment-baseline="middle" style="font-family: Arial, sans-serif; font-size: 10px; fill: black; font-weight: bold;">Electricity grid</tspan></text><text x="9" y="315.45542716233933" text-anchor="start"><tspan alignment-baseline="middle" style="font-family: Arial, sans-serif; font-size: 10px; fill: black; font-weight: bold;">Wind</tspan></text><text x="9" y="304.6330404229743" text-anchor="start"><tspan alignment-baseline="middle" style="font-family: Arial, sans-serif; font-size: 10px; fill: black; font-weight: bold;">Hydro</tspan></text><text x="971" y="188.04891248404948" text-anchor="end"><tspan alignment-baseline="middle" style="font-family: Arial, sans-serif; font-size: 10px; fill: black; font-weight: bold;">Industry</tspan></text><text x="971" y="258.1235840810672" text-anchor="end"><tspan alignment-baseline="middle" style="font-family: Arial, sans-serif; font-size: 10px; fill: black; font-weight: bold;">Heating and cooling - homes</tspan></text><text x="971" y="300.0108980447725" text-anchor="end"><tspan alignment-baseline="middle" style="font-family: Arial, sans-serif; font-size: 10px; fill: black; font-weight: bold;">Heating and cooling - commercial</tspan></text><text x="971" y="322.44682421880003" text-anchor="end"><tspan alignment-baseline="middle" style="font-family: Arial, sans-serif; font-size: 10px; fill: black; font-weight: bold;">Lighting &amp; appliances - homes</tspan></text><text x="971" y="341.90525073352484" text-anchor="end"><tspan alignment-baseline="middle" style="font-family: Arial, sans-serif; font-size: 10px; fill: black; font-weight: bold;">Lighting &amp; appliances - commercial</tspan></text><text x="971" y="357.18909864607247" text-anchor="end"><tspan alignment-baseline="middle" style="font-family: Arial, sans-serif; font-size: 10px; fill: black; font-weight: bold;">Agriculture</tspan></text><text x="971" y="382.23569785377754" text-anchor="end"><tspan alignment-baseline="middle" style="font-family: Arial, sans-serif; font-size: 10px; fill: black; font-weight: bold;">Road transport</tspan></text><text x="971" y="407.417619028938" text-anchor="end"><tspan alignment-baseline="middle" style="font-family: Arial, sans-serif; font-size: 10px; fill: black; font-weight: bold;">Rail transport</tspan></text><text x="971" y="479.38459732954146" text-anchor="end"><tspan alignment-baseline="middle" style="font-family: Arial, sans-serif; font-size: 10px; fill: black; font-weight: bold;">Domestic aviation</tspan></text><text x="971" y="467.2352225585448" text-anchor="end"><tspan alignment-baseline="middle" style="font-family: Arial, sans-serif; font-size: 10px; fill: black; font-weight: bold;">National navigation</tspan></text><text x="971" y="426.4675813895901" text-anchor="end"><tspan alignment-baseline="middle" style="font-family: Arial, sans-serif; font-size: 10px; fill: black; font-weight: bold;">International aviation</tspan></text><text x="971" y="450.3091905240158" text-anchor="end"><tspan alignment-baseline="middle" style="font-family: Arial, sans-serif; font-size: 10px; fill: black; font-weight: bold;">International shipping</tspan></text></g></g></svg>