<svg xmlns="http://www.w3.org/2000/svg" width="1000" height="1000"><rect width="1000" height="1000" x="0" y="0" fill="#FFFFFF" id="backgorund"/><g transform="translate(10,10)" id="viz"><g><rect x="0" y="695.1203653372852" height="15.848531332528296" width="5" fill="black"><title>Coal reserves: 63.96</title></rect><rect x="195" y="723.9067788805347" height="23.624124096986066" width="5" fill="black"><title>Coal: 95.34</title></rect><rect x="0" y="725.3645813231345" height="7.773114882761433" width="5" fill="black"><title>Coal imports: 31.37</title></rect><rect x="0" y="953.3132141258083" height="26.68678587419174" width="5" fill="black"><title>Oil reserves: 107.7</title></rect><rect x="195" y="761.9265876308418" height="218.0734123691583" width="5" fill="black"><title>Oil: 880.08</title></rect><rect x="0" y="747.533380859217" height="191.38414861327033" width="5" fill="black"><title>Oil imports: 772.37</title></rect><rect x="0" y="559.8601294218231" height="20.375621192523454" width="5" fill="black"><title>Gas reserves: 82.23</title></rect><rect x="195" y="60.210392432745586" height="524.4560505294319" width="5" fill="black"><title>Natural Gas: 2116.55</title></rect><rect x="0" y="41.38401543159369" height="504.0804293369085" width="5" fill="black"><title>Gas imports: 2034.32</title></rect><rect x="0" y="648.4287786531913" height="4.375939076492273" width="5" fill="black"><title>UK land based bioenergy: 17.66</title></rect><rect x="195" y="636.6547197685475" height="23.643947150560393" width="5" fill="black"><title>Bio-conversion: 95.42000000000002</title></rect><rect x="0" y="624.7608606905645" height="9.272233309305875" width="5" fill="black"><title>Agricultural 'waste': 37.42</title></rect><rect x="0" y="667.2004023830046" height="13.524278300959622" width="5" fill="black"><title>Other waste: 54.580000000000005</title></rect><rect x="390" y="710.9796700684955" height="34.63335247572604" width="5" fill="black"><title>Solid: 139.77</title></rect><rect x="390" y="760.0087071975425" height="219.99129280245745" width="5" fill="black"><title>Liquid: 887.82</title></rect><rect x="390" y="0" height="534.265984166936" width="5" fill="black"><title>Gas: 2156.1400000000003</title></rect><rect x="975" y="12.609991296834487" height="167.50480270151664" width="5" fill="black"><title>Losses: 676</title></rect><rect x="585" y="158.1279710068236" height="293.78013185051134" width="5" fill="black"><title>Thermal generation: 1185.6100000000001</title></rect><rect x="780" y="376.78174969867104" height="3.9993010585837396" width="5" fill="black"><title>District heating: 16.14</title></rect><rect x="780" y="496.88668336441907" height="144.07147549518191" width="5" fill="black"><title>Electricity grid: 581.4300000000001</title></rect><rect x="0" y="610.3453529836692" height="0.019823053574441474" width="5" fill="black"><title>Wind: 0.08</title></rect><rect x="0" y="594.6314352676676" height="1.3182330626806333" width="5" fill="black"><title>Hydro: 5.32</title></rect><rect x="975" y="194.51047865167212" height="210.5852538815253" width="5" fill="black"><title>Industry: 849.8599999999999</title></rect><rect x="975" y="419.4914171865184" height="143.36775709329987" width="5" fill="black"><title>Heating and cooling - homes: 578.59</title></rect><rect x="975" y="577.2548589331392" height="42.84009665542169" width="5" fill="black"><title>Heating and cooling - commercial: 172.89</title></rect><rect x="975" y="634.4906402418819" height="27.61103574708568" width="5" fill="black"><title>Lighting &amp; appliances - homes: 111.43</title></rect><rect x="975" y="676.4973606422886" height="25.120764641833944" width="5" fill="black"><title>Lighting &amp; appliances - commercial: 101.38</title></rect><rect x="975" y="716.0138099374435" height="2.7677938552900514" width="5" fill="black"><title>Agriculture: 11.169999999999998</title></rect><rect x="975" y="733.1772884460545" height="83.21965678595029" width="5" fill="black"><title>Road transport: 335.84999999999997</title></rect><rect x="975" y="830.7926298853257" height="3.5731054067396144" width="5" fill="black"><title>Rail transport: 14.420000000000002</title></rect><rect x="975" y="976.3376908521767" height="3.6623091478234073" width="5" fill="black"><title>Domestic aviation: 14.78</title></rect><rect x="975" y="956.3692502628245" height="5.572755936031626" width="5" fill="black"><title>National navigation: 22.49</title></rect><rect x="975" y="848.7614199453863" height="46.72789303765103" width="5" fill="black"><title>International aviation: 188.58</title></rect><rect x="975" y="909.8849976363583" height="32.08856797314513" width="5" fill="black"><title>International shipping: 129.5</title></rect></g><g class="links" fill="none" stroke-opacity="0.7"><path d="M5,703.0446310035493C100,703.0446310035493,100,731.8310445467988,195,731.8310445467988" stroke="rgb(240, 112, 74)" style="stroke-width: 15.8485; mix-blend-mode: multiply;"><title>Coal reserves → Coal: 63.96</title></path><path d="M5,729.2511387645152C100,729.2511387645152,100,743.6418676544433,195,743.6418676544433" stroke="rgb(228, 86, 73)" style="stroke-width: 7.77311; mix-blend-mode: multiply;"><title>Coal imports → Coal: 31.37</title></path><path d="M5,966.6566070629038C100,966.6566070629038,100,966.6541291812076,195,966.6541291812076" stroke="rgb(137, 207, 165)" style="stroke-width: 26.6868; mix-blend-mode: multiply;"><title>Oil reserves → Oil: 107.7</title></path><path d="M5,843.2254551658522C100,843.2254551658522,100,857.6186619374769,195,857.6186619374769" stroke="rgb(169, 221, 162)" style="stroke-width: 191.384; mix-blend-mode: multiply;"><title>Oil imports → Oil: 772.37</title></path><path d="M5,570.0479400180849C100,570.0479400180849,100,574.4786323659155,195,574.4786323659155" stroke="rgb(254, 238, 163)" style="stroke-width: 20.3756; mix-blend-mode: multiply;"><title>Gas reserves → Natural Gas: 82.23</title></path><path d="M5,293.4242301000479C100,293.4242301000479,100,312.2506071011998,195,312.2506071011998" stroke="rgb(254, 221, 141)" style="stroke-width: 504.08; mix-blend-mode: multiply;"><title>Gas imports → Natural Gas: 2034.32</title></path><path d="M5,650.6167481914375C100,650.6167481914375,100,648.1149226160995,195,648.1149226160995" stroke="rgb(74, 108, 174)" style="stroke-width: 4.37594; mix-blend-mode: multiply;"><title>UK land based bioenergy → Bio-conversion: 17.66</title></path><path d="M5,629.3969773452175C100,629.3969773452175,100,641.2908364232004,195,641.2908364232004" stroke="rgb(158, 1, 66)" style="stroke-width: 9.27223; mix-blend-mode: multiply;"><title>Agricultural 'waste' → Bio-conversion: 37.42</title></path><path d="M5,672.1982897653858C100,672.1982897653858,100,655.3007795367267,195,655.3007795367267" stroke="rgb(105, 189, 169)" style="stroke-width: 9.99577; mix-blend-mode: multiply;"><title>Other waste → Bio-conversion: 40.34</title></path><path d="M5,678.9604289158655C197.5,678.9604289158655,197.5,720.224646679137,390,720.224646679137" stroke="rgb(105, 189, 169)" style="stroke-width: 3.5285; mix-blend-mode: multiply;"><title>Other waste → Solid: 14.24</title></path><path d="M200,735.7188409290278C295,735.7188409290278,295,733.8009604957289,390,733.8009604957289" stroke="rgb(209, 60, 75)" style="stroke-width: 23.6241; mix-blend-mode: multiply;"><title>Coal → Solid: 95.34</title></path><path d="M200,870.9632938154209C295,870.9632938154209,295,870.9632938154202,390,870.9632938154202" stroke="rgb(200, 233, 159)" style="stroke-width: 218.073; mix-blend-mode: multiply;"><title>Oil → Liquid: 880.08</title></path><path d="M200,322.43841769746155C295,322.43841769746155,295,262.22802526471594,390,262.22802526471594" stroke="rgb(224, 243, 161)" style="stroke-width: 524.456; mix-blend-mode: multiply;"><title>Natural Gas → Gas: 2116.55</title></path><path d="M200,654.6404240645379C295,654.6404240645379,295,714.7200324897667,390,714.7200324897667" stroke="rgb(185, 31, 72)" style="stroke-width: 7.48072; mix-blend-mode: multiply;"><title>Bio-conversion → Solid: 30.19</title></path><path d="M200,659.3397267024586C295,659.3397267024586,295,760.9676474141918,390,760.9676474141918" stroke="rgb(185, 31, 72)" style="stroke-width: 1.91788; mix-blend-mode: multiply;"><title>Bio-conversion → Liquid: 7.74</title></path><path d="M200,641.5596865872999C295,641.5596865872999,295,529.361017348184,390,529.361017348184" stroke="rgb(185, 31, 72)" style="stroke-width: 9.80993; mix-blend-mode: multiply;"><title>Bio-conversion → Gas: 39.59</title></path><path d="M200,648.6823575246593C587.5,648.6823575246593,587.5,167.8492795993499,975,167.8492795993499" stroke="rgb(185, 31, 72)" style="stroke-width: 4.43541; mix-blend-mode: multiply;"><title>Bio-conversion → Losses: 17.9</title></path><path d="M395,715.0458739328917C490,715.0458739328917,490,447.84189899293835,585,447.84189899293835" stroke="rgb(78, 164, 176)" style="stroke-width: 8.13241; mix-blend-mode: multiply;"><title>Solid → Thermal generation: 32.82</title></path><path d="M395,351.6200853573184C490,351.6200853573184,490,300.951833067683,585,300.951833067683" stroke="rgb(253, 198, 118)" style="stroke-width: 285.648; mix-blend-mode: multiply;"><title>Gas → Thermal generation: 1152.79</title></path><path d="M590,307.1750329491157C685,307.1750329491157,685,378.7814002279627,780,378.7814002279627" stroke="rgb(66, 136, 181)" style="stroke-width: 3.9993; mix-blend-mode: multiply;"><title>Thermal generation → District heating: 16.14</title></path><path d="M590,380.54139316787104C685,380.54139316787104,685,568.2533930538826,780,568.2533930538826" stroke="rgb(66, 136, 181)" style="stroke-width: 142.733; mix-blend-mode: multiply;"><title>Thermal generation → Electricity grid: 576.03</title></path><path d="M590,231.65167671332364C782.5,231.65167671332364,782.5,92.10786977424215,975,92.10786977424215" stroke="rgb(66, 136, 181)" style="stroke-width: 147.047; mix-blend-mode: multiply;"><title>Thermal generation → Losses: 593.44</title></path><path d="M5,610.3552645104563C392.5,610.3552645104563,392.5,640.948247332814,780,640.948247332814" stroke="rgb(94, 79, 162)" style="stroke-width: 1; mix-blend-mode: multiply;"><title>Wind → Electricity grid: 0.08</title></path><path d="M5,595.2905517990077C392.5,595.2905517990077,392.5,640.2792192746864,780,640.2792192746864" stroke="rgb(251, 248, 176)" style="stroke-width: 1.31823; mix-blend-mode: multiply;"><title>Hydro → Electricity grid: 5.32</title></path><path d="M785,501.91058850461616C880,501.91058850461616,880,175.09088885815436,975,175.09088885815436" stroke="rgb(252, 172, 99)" style="stroke-width: 10.0478; mix-blend-mode: multiply;"><title>Electricity grid → Losses: 40.55</title></path><path d="M785,378.7814002279627C880,378.7814002279627,880,270.99277510411315,975,270.99277510411315" stroke="rgb(248, 142, 83)" style="stroke-width: 3.9993; mix-blend-mode: multiply;"><title>District heating → Industry: 16.14</title></path><path d="M785,570.8997707060307C880,570.8997707060307,880,555.3449980343694,975,555.3449980343694" stroke="rgb(252, 172, 99)" style="stroke-width: 15.0284; mix-blend-mode: multiply;"><title>Electricity grid → Heating and cooling - homes: 60.65</title></path><path d="M395,144.62652099525795C685,144.62652099525795,685,483.6611194877194,975,483.6611194877194" stroke="rgb(253, 198, 118)" style="stroke-width: 128.339; mix-blend-mode: multiply;"><title>Gas → Heating and cooling - homes: 517.94</title></path><path d="M785,582.3054601562537C880,582.3054601562537,880,616.203442383787,975,616.203442383787" stroke="rgb(252, 172, 99)" style="stroke-width: 7.78303; mix-blend-mode: multiply;"><title>Electricity grid → Heating and cooling - commercial: 31.41</title></path><path d="M395,511.97248254111435C685,511.97248254111435,685,594.7833940560761,975,594.7833940560761" stroke="rgb(253, 198, 118)" style="stroke-width: 35.0571; mix-blend-mode: multiply;"><title>Gas → Heating and cooling - commercial: 141.48</title></path><path d="M785,599.0076217333185C880,599.0076217333185,880,647.3012886141723,975,647.3012886141723" stroke="rgb(252, 172, 99)" style="stroke-width: 25.6213; mix-blend-mode: multiply;"><title>Electricity grid → Lighting &amp; appliances - homes: 103.4</title></path><path d="M395,530.4958871653037C685,530.4958871653037,685,661.1068064877155,975,661.1068064877155" stroke="rgb(253, 198, 118)" style="stroke-width: 1.98974; mix-blend-mode: multiply;"><title>Gas → Lighting &amp; appliances - homes: 8.03</title></path><path d="M785,623.2574109587388C880,623.2574109587388,880,687.9365014954182,975,687.9365014954182" stroke="rgb(252, 172, 99)" style="stroke-width: 22.8783; mix-blend-mode: multiply;"><title>Electricity grid → Lighting &amp; appliances - commercial: 92.33</title></path><path d="M395,532.6119981343435C685,532.6119981343435,685,700.4968838163351,975,700.4968838163351" stroke="rgb(253, 198, 118)" style="stroke-width: 2.24248; mix-blend-mode: multiply;"><title>Gas → Lighting &amp; appliances - commercial: 9.05</title></path><path d="M785,535.1600440526976C880,535.1600440526976,880,376.87018212531314,975,376.87018212531314" stroke="rgb(252, 172, 99)" style="stroke-width: 56.4511; mix-blend-mode: multiply;"><title>Electricity grid → Industry: 227.82</title></path><path d="M395,732.2510454944004C685,732.2510454944004,685,286.13139333051726,975,286.13139333051726" stroke="rgb(78, 164, 176)" style="stroke-width: 26.2779; mix-blend-mode: multiply;"><title>Solid → Industry: 106.05</title></path><path d="M395,784.6958425424423C685,784.6958425424423,685,323.95749637252936,975,323.95749637252936" stroke="rgb(241, 249, 171)" style="stroke-width: 49.3743; mix-blend-mode: multiply;"><title>Liquid → Industry: 199.26</title></path><path d="M395,43.215495732482445C685,43.215495732482445,685,231.75180161324693,975,231.75180161324693" stroke="rgb(253, 198, 118)" style="stroke-width: 74.4826; mix-blend-mode: multiply;"><title>Gas → Industry: 300.59</title></path><path d="M785,635.2503583710959C880,635.2503583710959,880,716.5676164966711,975,716.5676164966711" stroke="rgb(252, 172, 99)" style="stroke-width: 1.10761; mix-blend-mode: multiply;"><title>Electricity grid → Agriculture: 4.47</title></path><path d="M395,745.500278927019C685,745.500278927019,685,717.7569997111199,975,717.7569997111199" stroke="rgb(78, 164, 176)" style="stroke-width: 1; mix-blend-mode: multiply;"><title>Solid → Agriculture: 0.89</title></path><path d="M395,809.8401470603952C685,809.8401470603952,685,718.3244346196793,975,718.3244346196793" stroke="rgb(241, 249, 171)" style="stroke-width: 1; mix-blend-mode: multiply;"><title>Liquid → Agriculture: 3.69</title></path><path d="M395,533.9958950619884C685,533.9958950619884,685,717.3840785157563,975,717.3840785157563" stroke="rgb(253, 198, 118)" style="stroke-width: 1; mix-blend-mode: multiply;"><title>Gas → Agriculture: 2.12</title></path><path d="M785,637.5188590644871C880,637.5188590644871,880,734.891982580218,975,734.891982580218" stroke="rgb(252, 172, 99)" style="stroke-width: 3.42939; mix-blend-mode: multiply;"><title>Electricity grid → Road transport: 13.84</title></path><path d="M395,850.1924504922623C685,850.1924504922623,685,776.5018109731948,975,776.5018109731948" stroke="rgb(241, 249, 171)" style="stroke-width: 79.7903; mix-blend-mode: multiply;"><title>Liquid → Road transport: 322.01</title></path><path d="M785,640.0933781474292C880,640.0933781474292,880,831.6524548341043,975,831.6524548341043" stroke="rgb(252, 172, 99)" style="stroke-width: 1.71965; mix-blend-mode: multiply;"><title>Electricity grid → Rail transport: 6.94</title></path><path d="M395,891.0143125056668C685,891.0143125056668,685,833.4390075374738,975,833.4390075374738" stroke="rgb(241, 249, 171)" style="stroke-width: 1.85346; mix-blend-mode: multiply;"><title>Liquid → Rail transport: 7.48</title></path><path d="M395,978.1614117809977C685,978.1614117809977,685,978.1688454260884,975,978.1688454260884" stroke="rgb(241, 249, 171)" style="stroke-width: 3.66231; mix-blend-mode: multiply;"><title>Liquid → Domestic aviation: 14.78</title></path><path d="M395,973.5438792390704C685,973.5438792390704,685,959.1556282308401,975,959.1556282308401" stroke="rgb(241, 249, 171)" style="stroke-width: 5.57276; mix-blend-mode: multiply;"><title>Liquid → National navigation: 22.49</title></path><path d="M395,915.3049867790836C685,915.3049867790836,685,872.1253664642117,975,872.1253664642117" stroke="rgb(241, 249, 171)" style="stroke-width: 46.7279; mix-blend-mode: multiply;"><title>Liquid → International aviation: 188.58</title></path><path d="M395,954.7132172844821C685,954.7132172844821,685,925.9292816229311,975,925.9292816229311" stroke="rgb(241, 249, 171)" style="stroke-width: 32.0886; mix-blend-mode: multiply;"><title>Liquid → International shipping: 129.5</title></path><path d="M395,2.9870863854538117C685,2.9870863854538117,685,15.5970776822883,975,15.5970776822883" stroke="rgb(253, 198, 118)" style="stroke-width: 5.97417; mix-blend-mode: multiply;"><title>Gas → Losses: 24.11</title></path></g><g><text x="9" y="703.0446310035493" text-anchor="start"><tspan alignment-baseline="middle" style="font-family: Arial, sans-serif; font-size: 10px; fill: black; font-weight: bold;">Coal reserves</tspan></text><text x="204" y="735.7188409290277" text-anchor="start"><tspan alignment-baseline="middle" style="font-family: Arial, sans-serif; font-size: 10px; fill: black; font-weight: bold;">Coal</tspan></text><text x="9" y="729.2511387645152" text-anchor="start"><tspan alignment-baseline="middle" style="font-family: Arial, sans-serif; font-size: 10px; fill: black; font-weight: bold;">Coal imports</tspan></text><text x="9" y="966.6566070629042" text-anchor="start"><tspan alignment-baseline="middle" style="font-family: Arial, sans-serif; font-size: 10px; fill: black; font-weight: bold;">Oil reserves</tspan></text><text x="204" y="870.9632938154209" text-anchor="start"><tspan alignment-baseline="middle" style="font-family: Arial, sans-serif; font-size: 10px; fill: black; font-weight: bold;">Oil</tspan></text><text x="9" y="843.2254551658522" text-anchor="start"><tspan alignment-baseline="middle" style="font-family: Arial, sans-serif; font-size: 10px; fill: black; font-weight: bold;">Oil imports</tspan></text><text x="9" y="570.0479400180848" text-anchor="start"><tspan alignment-baseline="middle" style="font-family: Arial, sans-serif; font-size: 10px; fill: black; font-weight: bold;">Gas reserves</tspan></text><text x="204" y="322.43841769746155" text-anchor="start"><tspan alignment-baseline="middle" style="font-family: Arial, sans-serif; font-size: 10px; fill: black; font-weight: bold;">Natural Gas</tspan></text><text x="9" y="293.4242301000479" text-anchor="start"><tspan alignment-baseline="middle" style="font-family: Arial, sans-serif; font-size: 10px; fill: black; font-weight: bold;">Gas imports</tspan></text><text x="9" y="650.6167481914374" text-anchor="start"><tspan alignment-baseline="middle" style="font-family: Arial, sans-serif; font-size: 10px; fill: black; font-weight: bold;">UK land based bioenergy</tspan></text><text x="204" y="648.4766933438277" text-anchor="start"><tspan alignment-baseline="middle" style="font-family: Arial, sans-serif; font-size: 10px; fill: black; font-weight: bold;">Bio-conversion</tspan></text><text x="9" y="629.3969773452175" text-anchor="start"><tspan alignment-baseline="middle" style="font-family: Arial, sans-serif; font-size: 10px; fill: black; font-weight: bold;">Agricultural 'waste'</tspan></text><text x="9" y="673.9625415334845" text-anchor="start"><tspan alignment-baseline="middle" style="font-family: Arial, sans-serif; font-size: 10px; fill: black; font-weight: bold;">Other waste</tspan></text><text x="399" y="728.2963463063585" text-anchor="start"><tspan alignment-baseline="middle" style="font-family: Arial, sans-serif; font-size: 10px; fill: black; font-weight: bold;">Solid</tspan></text><text x="399" y="870.0043535987713" text-anchor="start"><tspan alignment-baseline="middle" style="font-family: Arial, sans-serif; font-size: 10px; fill: black; font-weight: bold;">Liquid</tspan></text><text x="399" y="267.132992083468" text-anchor="start"><tspan alignment-baseline="middle" style="font-family: Arial, sans-serif; font-size: 10px; fill: black; font-weight: bold;">Gas</tspan></text><text x="971" y="96.3623926475928" text-anchor="end"><tspan alignment-baseline="middle" style="font-family: Arial, sans-serif; font-size: 10px; fill: black; font-weight: bold;">Losses</tspan></text><text x="581" y="305.01803693207927" text-anchor="end"><tspan alignment-baseline="middle" style="font-family: Arial, sans-serif; font-size: 10px; fill: black; font-weight: bold;">Thermal generation</tspan></text><text x="776" y="378.7814002279629" text-anchor="end"><tspan alignment-baseline="middle" style="font-family: Arial, sans-serif; font-size: 10px; fill: black; font-weight: bold;">District heating</tspan></text><text x="776" y="568.92242111201" text-anchor="end"><tspan alignment-baseline="middle" style="font-family: Arial, sans-serif; font-size: 10px; fill: black; font-weight: bold;">Electricity grid</tspan></text><text x="9" y="610.3552645104564" text-anchor="start"><tspan alignment-baseline="middle" style="font-family: Arial, sans-serif; font-size: 10px; fill: black; font-weight: bold;">Wind</tspan></text><text x="9" y="595.290551799008" text-anchor="start"><tspan alignment-baseline="middle" style="font-family: Arial, sans-serif; font-size: 10px; fill: black; font-weight: bold;">Hydro</tspan></text><text x="971" y="299.80310559243475" text-anchor="end"><tspan alignment-baseline="middle" style="font-family: Arial, sans-serif; font-size: 10px; fill: black; font-weight: bold;">Industry</tspan></text><text x="971" y="491.17529573316835" text-anchor="end"><tspan alignment-baseline="middle" style="font-family: Arial, sans-serif; font-size: 10px; fill: black; font-weight: bold;">Heating and cooling - homes</tspan></text><text x="971" y="598.67490726085" text-anchor="end"><tspan alignment-baseline="middle" style="font-family: Arial, sans-serif; font-size: 10px; fill: black; font-weight: bold;">Heating and cooling - commercial</tspan></text><text x="971" y="648.2961581154248" text-anchor="end"><tspan alignment-baseline="middle" style="font-family: Arial, sans-serif; font-size: 10px; fill: black; font-weight: bold;">Lighting &amp; appliances - homes</tspan></text><text x="971" y="689.0577429632056" text-anchor="end"><tspan alignment-baseline="middle" style="font-family: Arial, sans-serif; font-size: 10px; fill: black; font-weight: bold;">Lighting &amp; appliances - commercial</tspan></text><text x="971" y="717.3977068650886" text-anchor="end"><tspan alignment-baseline="middle" style="font-family: Arial, sans-serif; font-size: 10px; fill: black; font-weight: bold;">Agriculture</tspan></text><text x="971" y="774.7871168390296" text-anchor="end"><tspan alignment-baseline="middle" style="font-family: Arial, sans-serif; font-size: 10px; fill: black; font-weight: bold;">Road transport</tspan></text><text x="971" y="832.5791825886955" text-anchor="end"><tspan alignment-baseline="middle" style="font-family: Arial, sans-serif; font-size: 10px; fill: black; font-weight: bold;">Rail transport</tspan></text><text x="971" y="978.1688454260884" text-anchor="end"><tspan alignment-baseline="middle" style="font-family: Arial, sans-serif; font-size: 10px; fill: black; font-weight: bold;">Domestic aviation</tspan></text><text x="971" y="959.1556282308403" text-anchor="end"><tspan alignment-baseline="middle" style="font-family: Arial, sans-serif; font-size: 10px; fill: black; font-weight: bold;">National navigation</tspan></text><text x="971" y="872.1253664642118" text-anchor="end"><tspan alignment-baseline="middle" style="font-family: Arial, sans-serif; font-size: 10px; fill: black; font-weight: bold;">International aviation</tspan></text><text x="971" y="925.9292816229308" text-anchor="end"><tspan alignment-baseline="middle" style="font-family: Arial, sans-serif; font-size: 10px; fill: black; font-weight: bold;">International shipping</tspan></text></g></g></svg>