<svg xmlns="http://www.w3.org/2000/svg" width="1000" height="1000"><rect width="1000" height="1000" x="0" y="0" fill="#FFFFFF" id="backgorund"/><g transform="translate(450,500)" id="viz"><path fill="rgb(240, 112, 74)" display="" d="M1.4999883781262262,-290.32945851103347A290.3333333333333,290.3333333333333,0,0,1,8.768430476373767,-290.2008943325734L3.6875348378212784,-146.6203028162572A146.66666666666666,146.66666666666666,0,0,0,1.4999883781262,-146.6589961303997Z"><title>Coal reserves</title></path><path fill="rgb(228, 86, 73)" display="" d="M11.766530642967115,-290.094800368901A290.3333333333333,290.3333333333333,0,0,1,13.801495402338512,-290.0051088672468L6.458094534534976,-146.52441477820042Z"><title>Coal imports</title></path><path fill="rgb(137, 207, 165)" display="" d="M16.79730388438095,-289.84702004102127A290.3333333333333,290.3333333333333,0,0,1,31.04014686823361,-288.6692808853116L14.942230935046732,-145.90353267071652A146.66666666666666,146.66666666666666,0,0,0,9.226346971567134,-146.37617850139196Z"><title>Oil reserves</title></path><path fill="rgb(169, 221, 162)" display="" d="M34.0212323268303,-288.3331409939001A290.3333333333333,290.3333333333333,0,0,1,147.8406598090573,-249.87313531403697L74.0443646990311,-126.60388290817933A146.66666666666666,146.66666666666666,0,0,0,17.923316393643386,-145.567392779305Z"><title>Oil imports</title></path><path fill="rgb(254, 238, 163)" display="" d="M150.4146397757845,-248.33219804440463A290.3333333333333,290.3333333333333,0,0,1,159.04720299428934,-242.89386913657938L79.7233052637518,-123.1068873334622A146.66666666666666,146.66666666666666,0,0,0,76.61834466575829,-125.06294563854706Z"><title>Gas reserves</title></path><path fill="rgb(254, 221, 141)" display="" d="M161.54846981807745,-241.23751023396454A290.3333333333333,290.3333333333333,0,0,1,287.7305114304258,38.78913812435207L145.44911490353292,18.85911145547397A146.66666666666666,146.66666666666666,0,0,0,82.22457208753993,-121.45052843084736Z"><title>Gas imports</title></path><path fill="rgb(74, 108, 174)" display="" d="M287.3261655718502,41.67875984505975L145.14754632791514,21.054712206459573Z"><title>UK land based bioenergy</title></path><path fill="rgb(158, 1, 66)" display="" d="M286.8928005498586,44.56417212406721A290.3333333333333,290.3333333333333,0,0,1,286.4156443294773,47.53444149009004L144.80725481171743,23.280250535710476A146.66666666666666,146.66666666666666,0,0,0,144.81283638670274,23.2455055601975Z"><title>Agricultural 'waste'</title></path><path fill="rgb(105, 189, 169)" display="" d="M285.9091936095508,50.491360191431085A290.3333333333333,290.3333333333333,0,0,1,284.85057418275636,56.1568769804594L144.0386880246687,27.63996134663132A146.66666666666666,146.66666666666666,0,0,0,144.30080409179092,26.237169237051525Z"><title>Other waste</title></path><path fill="rgb(209, 60, 75)" display="" d="M284.2551136918251,59.09716392934625A290.3333333333333,290.3333333333333,0,0,1,281.49511834218913,71.09108800659463L142.38182663054738,35.192706012181766A146.66666666666666,146.66666666666666,0,0,0,143.44322753373743,30.58024829551818Z"><title>Coal</title></path><path fill="rgb(200, 233, 159)" display="" d="M280.74552576911736,73.99590667777709A290.3333333333333,290.3333333333333,0,0,1,215.55466775340753,194.4984052740858L109.38685049295812,97.70173002737636A146.66666666666666,146.66666666666666,0,0,0,141.63223405747564,38.09752468336423Z"><title>Oil</title></path><path fill="rgb(224, 243, 161)" display="" d="M213.53346053369876,196.71529090781874A290.3333333333333,290.3333333333333,0,0,1,-95.13155380480424,274.305362534399L-47.35536913678849,138.81131122869493A146.66666666666666,146.66666666666666,0,0,0,107.36564327324933,99.91861566110931Z"><title>Natural Gas</title></path><path fill="rgb(185, 31, 72)" display="" d="M-97.96079927246814,273.3077500736919A290.3333333333333,290.3333333333333,0,0,1,-109.46774206074164,268.9056672749151L-54.61124290422442,136.12025293675774A146.66666666666666,146.66666666666666,0,0,0,-50.184614604452356,137.81369876798786Z"><title>Bio-conversion</title></path><path fill="rgb(78, 164, 176)" display="" d="M-112.24042859618578,267.7602110713781A290.3333333333333,290.3333333333333,0,0,1,-129.904640366475,259.6502048058141L-64.95880902391528,131.49701229041523A146.66666666666666,146.66666666666666,0,0,0,-57.383929439668535,134.97479673322073Z"><title>Solid</title></path><path fill="rgb(253, 198, 118)" display="" d="M-132.58060167692977,258.29407369010175A290.3333333333333,290.3333333333333,0,0,1,-289.2726046509983,-24.795254442567774L-146.1923420599783,-11.786018586842818A146.66666666666666,146.66666666666666,0,0,0,-67.63477033437006,130.14088117470283Z"><title>Gas</title></path><path fill="rgb(66, 136, 181)" display="" d="M-289.00095935566696,-27.782907262354293A290.3333333333333,290.3333333333333,0,0,1,-214.16811030807511,-196.02414384843672L-108.6903178180658,-98.47601699763733A146.66666666666666,146.66666666666666,0,0,0,-145.92069676464698,-14.773671406629369Z"><title>Thermal generation</title></path><path fill="rgb(94, 79, 162)" display="" d="M-213.14814511922188,-197.132728578183L-107.67529718996283,-99.58484566521298Z"><title>Wind</title></path><path fill="rgb(251, 248, 176)" display="" d="M-212.8535485531265,-197.45078200094892L-107.52647688102832,-99.74551559175377Z"><title>Hydro</title></path><path fill="rgb(252, 172, 99)" display="" d="M-211.5382820718804,-198.85924585626387A290.3333333333333,290.3333333333333,0,0,1,-140.48423227287682,-254.0819256207431L-71.6165996653163,-127.99286606482771A146.66666666666666,146.66666666666666,0,0,0,-106.35227768954093,-100.99655509648773Z"><title>Electricity grid</title></path><path fill="rgb(248, 142, 83)" display="" d="M-138.03108147208667,-255.42291399185507L-69.72867491127226,-129.03109317613803Z"><title>District heating</title></path><path fill="rgb(241, 249, 171)" display="" d="M-135.5651315934849,-256.7402180035017A290.3333333333333,290.3333333333333,0,0,1,-1.4999883781261971,-290.32945851103347L-1.4999883781261854,-146.6589961303997A146.66666666666666,146.66666666666666,0,0,0,-67.82570245753077,-130.04147491186654Z"><title>Liquid</title></path><path fill="rgb(240, 112, 74)" display="" d="M1.49998837812626,-436.99742566159983A437,437,0,0,1,13.955332656978998,-436.7771155754764L8.874526663550018,-293.19905733297026A293.3333333333333,293.3333333333333,0,0,0,1.4999883781261856,-293.3294981404187Z"><title>Coal</title></path><path fill="rgb(228, 86, 73)" display="" d="M16.9534328235724,-436.671021611804A437,437,0,0,1,21.53041087589659,-436.4692903372642L13.95958754176965,-293.0009801350639A293.3333333333333,293.3333333333333,0,0,0,11.872626830143284,-293.0929633692979Z"><title>Coal</title></path><path fill="rgb(137, 207, 165)" display="" d="M24.526219357939073,-436.31120151103875A437,437,0,0,1,47.47392571294825,-434.41365813864724L31.376293804422414,-291.6504288211197A293.3333333333333,293.3333333333333,0,0,0,16.955396023812007,-292.8428913088384Z"><title>Oil</title></path><path fill="rgb(169, 221, 162)" display="" d="M50.455011171544996,-434.07751824723573A437,437,0,0,1,223.17662245359458,-375.71424672243364L149.3816293734577,-252.4471692259102A293.3333333333333,293.3333333333333,0,0,0,34.35737926301902,-291.3142889297082Z"><title>Oil</title></path><path fill="rgb(254, 238, 163)" display="" d="M225.7506024203218,-374.1733094528013A437,437,0,0,1,240.02609478468435,-365.18005671505904L160.70359661066425,-245.3951883816008A293.3333333333333,293.3333333333333,0,0,0,151.95560934018488,-250.90623195627796Z"><title>Natural Gas</title></path><path fill="rgb(254, 221, 141)" display="" d="M242.5273616084725,-363.52369781244414A437,437,0,0,1,432.980431602994,59.13497990939908L290.70154542747713,39.20530487728512A293.3333333333333,293.3333333333333,0,0,0,163.20486343445236,-243.73882947898593Z"><title>Natural Gas</title></path><path fill="rgb(74, 108, 174)" display="" d="M432.5642735718483,62.10595164120122A437,437,0,0,1,432.3822398851556,63.360860410001926L290.2950926558303,42.10942441291915Z"><title>Bio-conversion</title></path><path fill="rgb(158, 1, 66)" display="" d="M431.937085723986,66.32762604126569A437,437,0,0,1,430.9785160421742,72.294665848079L289.37262500154594,48.04090282414658A293.3333333333333,293.3333333333333,0,0,0,289.8596283582207,45.009335614721365Z"><title>Bio-conversion</title></path><path fill="rgb(105, 189, 169)" display="" d="M430.4720653222477,75.25158454942004A437,437,0,0,1,429.2585404344592,81.89081428388523L288.2289333226655,54.48418522950374A293.3333333333333,293.3333333333333,0,0,0,288.86617428161946,50.99782152548762Z"><title>Bio-conversion</title></path><path fill="rgb(105, 189, 169)" display="" d="M428.6862536927419,84.8356994129368A437,437,0,0,1,428.6003244879212,85.26876244468795L287.7239836213629,57.09074963160077Z"><title>Solid</title></path><path fill="rgb(209, 60, 75)" display="" d="M428.00486399698997,88.20904939357482A437,437,0,0,1,423.51083514912915,107.73844490843159L284.3999978921933,71.84069628953259A293.3333333333333,293.3333333333333,0,0,0,287.19546226287343,59.69263689986306Z"><title>Solid</title></path><path fill="rgb(200, 233, 159)" display="" d="M422.7612425760574,110.64326357961404A437,437,0,0,1,323.9375439297836,293.3146222620678L217.7715998483488,196.51965485399947A293.3333333333333,293.3333333333333,0,0,0,283.6504053191216,74.74551496071503Z"><title>Liquid</title></path><path fill="rgb(224, 243, 161)" display="" d="M321.91633671007486,295.53150789580076A437,437,0,0,1,-143.90452889903958,412.62632800434034L-96.12918717334695,277.134667297031A293.3333333333333,293.3333333333333,0,0,0,215.75039262864,198.73654048773244Z"><title>Gas</title></path><path fill="rgb(185, 31, 72)" display="" d="M-146.73377436670353,411.62871554363323A437,437,0,0,1,-150.77344923796488,410.1662675121966L-100.74267366155294,275.4911217225816A293.3333333333333,293.3333333333333,0,0,0,-98.95843264101077,276.1370548363239Z"><title>Solid</title></path><path fill="rgb(185, 31, 72)" display="" d="M-153.05684257563752,409.3196830605346L-102.73838403246452,274.7531053343024Z"><title>Liquid</title></path><path fill="rgb(185, 31, 72)" display="" d="M-155.33548269453436,408.4603870830757A437,437,0,0,1,-161.4567939330436,406.0796765326513L-107.91839889107034,272.76008436945506A293.3333333333333,293.3333333333333,0,0,0,-104.72868846553806,274.0006318546231Z"><title>Gas</title></path><path fill="rgb(185, 31, 72)" display="" d="M-164.2406837304633,404.9617238798624A437,437,0,0,1,-165.46875356279477,404.46148344975336L-110.65775696639881,271.6602754684789Z"><title>Losses</title></path><path fill="rgb(78, 164, 176)" display="" d="M-168.24144009823877,403.3160272462164A437,437,0,0,1,-172.78235522670568,401.3916512862624L-115.5258858093162,269.6260635628857A293.3333333333333,293.3333333333333,0,0,0,-113.3859088060488,270.5329557164354Z"><title>Thermal generation</title></path><path fill="rgb(78, 164, 176)" display="" d="M-175.53379535161315,400.19606031226493A437,437,0,0,1,-196.0132672975499,390.5736794042057L-131.1316660626326,262.3907974759836A293.3333333333333,293.3333333333333,0,0,0,-118.27732593422353,268.4304725888883Z"><title>Industry</title></path><path fill="rgb(78, 164, 176)" display="" d="M-197.44869291792054,389.8499886687246L-132.53611729044246,261.6842029202728Z"><title>Agriculture</title></path><path fill="rgb(253, 198, 118)" display="" d="M-198.88144668068873,389.1210225189541A437,437,0,0,1,-390.0826794158679,196.98858652149679L-261.61773195497926,132.66727844942417A293.3333333333333,293.3333333333333,0,0,0,-133.93676121426634,260.9700910830148Z"><title>Thermal generation</title></path><path fill="rgb(253, 198, 118)" display="" d="M-391.42579358530924,194.30606814021755A437,437,0,0,1,-429.84607731807404,78.74864960279835L-288.4420383196122,53.344493384714085A293.3333333333333,293.3333333333333,0,0,0,-262.9608461244206,129.98476006814508Z"><title>Heating and cooling - homes</title></path><path fill="rgb(253, 198, 118)" display="" d="M-430.3765497727228,75.79594583964939A437,437,0,0,1,-434.68627845652435,44.90923425774494L-291.7291727480705,30.63550574367708A293.3333333333333,293.3333333333333,0,0,0,-288.9725107742609,50.39178962156526Z"><title>Heating and cooling - commercial</title></path><path fill="rgb(253, 198, 118)" display="" d="M-434.9332001902768,42.45128233922489L-291.9460077554871,28.495139937847366Z"><title>Lighting &amp; appliances - homes</title></path><path fill="rgb(253, 198, 118)" display="" d="M-435.1288436178863,40.39665149193784L-292.0773321004881,27.11598269481716Z"><title>Lighting &amp; appliances - commercial</title></path><path fill="rgb(253, 198, 118)" display="" d="M-435.36093172264077,37.81347814727045A437,437,0,0,1,-435.8445718947672,-31.757033077210977L-292.59318294162074,-20.824834706083532A293.3333333333333,293.3333333333333,0,0,0,-292.2753775979889,24.890723058951966Z"><title>Industry</title></path><path fill="rgb(253, 198, 118)" display="" d="M-435.7134310010481,-33.50829815575341L-292.46973247972716,-22.492221492801676Z"><title>Agriculture</title></path><path fill="rgb(253, 198, 118)" display="" d="M-435.5752533857062,-35.25902207914798A437,437,0,0,1,-435.33805823043116,-38.07591175740547L-292.26032008563425,-25.066905431007058A293.3333333333333,293.3333333333333,0,0,0,-292.33678023804464,-24.158877550449915Z"><title>Losses</title></path><path fill="rgb(66, 136, 181)" display="" d="M-435.06641293509983,-41.063564577191784A437,437,0,0,1,-434.9808534883054,-41.960184682451214L-292.0068653754693,-27.864583579105556Z"><title>District heating</title></path><path fill="rgb(66, 136, 181)" display="" d="M-434.6825514845257,-44.94529380149462A437,437,0,0,1,-399.95280674741485,-176.08734302858056L-268.663979669451,-117.74595735148291A293.3333333333333,293.3333333333333,0,0,0,-291.72663035489774,-30.65970623181676Z"><title>Electricity grid</title></path><path fill="rgb(66, 136, 181)" display="" d="M-398.734561283875,-178.828827759273A437,437,0,0,1,-321.8465652089363,-295.6074905397526L-216.37063372344318,-198.06108478588123A293.3333333333333,293.3333333333333,0,0,0,-267.4457342059112,-120.4874420821752Z"><title>Losses</title></path><path fill="rgb(94, 79, 162)" display="" d="M-320.8234423091847,-296.717574243396L-215.35059437992567,-199.16969133042596Z"><title>Electricity grid</title></path><path fill="rgb(251, 248, 176)" display="" d="M-320.38002543415485,-297.1962975927027L-215.05295376205663,-199.49103118350754Z"><title>Electricity grid</title></path><path fill="rgb(252, 172, 99)" display="" d="M-318.91886107061435,-298.7637194396638A437,437,0,0,1,-314.2314544806519,-303.6899619924472L-211.26816941384828,-203.4949754587713A293.3333333333333,293.3333333333333,0,0,0,-213.7347125446081,-200.90275532684507Z"><title>Losses</title></path><path fill="rgb(252, 172, 99)" display="" d="M-312.13925035492764,-305.83997186087987A437,437,0,0,1,-303.8703256177427,-314.05704133002183L-204.3250394446185,-210.46549052136675A293.3333333333333,293.3333333333333,0,0,0,-209.17596528812422,-205.64498532720387Z"><title>Heating and cooling - homes</title></path><path fill="rgb(252, 172, 99)" display="" d="M-301.7071967278637,-316.13567885104993A437,437,0,0,1,-298.3692949363243,-319.2879011788589L-200.6384173313474,-213.9828729950519A293.3333333333333,293.3333333333333,0,0,0,-202.1619105547396,-212.5441280423948Z"><title>Heating and cooling - commercial</title></path><path fill="rgb(252, 172, 99)" display="" d="M-296.1703863676644,-321.32865144401364A437,437,0,0,1,-279.63334225932016,-335.8186920004333L-188.08070619756523,-225.10018303117744A293.3333333333333,293.3333333333333,0,0,0,-198.43950876268758,-216.0236232602066Z"><title>Lighting &amp; appliances - homes</title></path><path fill="rgb(252, 172, 99)" display="" d="M-277.3213930363756,-337.73043239300193A437,437,0,0,1,-262.12875367335846,-349.65342340330625L-176.34649643745053,-234.40639419324867A293.3333333333333,293.3333333333333,0,0,0,-185.76875697462043,-227.01192342374628Z"><title>Lighting &amp; appliances - commercial</title></path><path fill="rgb(252, 172, 99)" display="" d="M-259.7222429453026,-351.4446706374436A437,437,0,0,1,-216.11349871425165,-379.8209521254524L-145.4931500590691,-254.70804410213202A293.3333333333333,293.3333333333333,0,0,0,-173.93998570939442,-236.19764142738617Z"><title>Industry</title></path><path fill="rgb(252, 172, 99)" display="" d="M-214.33795057363486,-380.8257382896986L-143.87291876796237,-255.62673508385566Z"><title>Agriculture</title></path><path fill="rgb(252, 172, 99)" display="" d="M-212.55773094066205,-381.82222436280097A437,437,0,0,1,-212.25637049824113,-381.98983387377393L-142.57682622556254,-256.3518930452634Z"><title>Road transport</title></path><path fill="rgb(252, 172, 99)" display="" d="M-210.209116196466,-383.1202519678393L-141.10146624934407,-257.1669120760477Z"><title>Rail transport</title></path><path fill="rgb(248, 142, 83)" display="" d="M-208.1558417884042,-384.23969801331157A437,437,0,0,1,-207.36345033420588,-384.66790802651235L-139.45734982254453,-258.06218635227606Z"><title>Industry</title></path><path fill="rgb(241, 249, 171)" display="" d="M-204.71785931971985,-386.0823721378009A437,437,0,0,1,-163.80162732913539,-405.13951533308506L-110.40777605588954,-271.7619683304435A293.3333333333333,293.3333333333333,0,0,0,-136.9796253489333,-259.38586446394936Z"><title>Industry</title></path><path fill="rgb(241, 249, 171)" display="" d="M-161.9959922609754,-405.8648771344744L-108.73872859623063,-272.4340899148264Z"><title>Agriculture</title></path><path fill="rgb(241, 249, 171)" display="" d="M-160.18714519191963,-406.5821915864772A437,437,0,0,1,-88.56998992228814,-427.93031779153694L-59.93483135621376,-287.14501638500826A293.3333333333333,293.3333333333333,0,0,0,-107.06558978551395,-273.09596102528593Z"><title>Road transport</title></path><path fill="rgb(241, 249, 171)" display="" d="M-86.21468719009553,-428.4110499423585L-57.87103335414498,-287.56805793232303Z"><title>Rail transport</title></path><path fill="rgb(241, 249, 171)" display="" d="M-83.85677567712354,-428.87881875074754A437,437,0,0,1,-83.29532247472937,-428.9882157517044L-56.099877145923095,-287.918822289646Z"><title>Domestic aviation</title></path><path fill="rgb(241, 249, 171)" display="" d="M-80.34840070480305,-429.5499208522572A437,437,0,0,1,-77.95333798330944,-429.9910197867624L-52.81081008394889,-288.54022732146296A293.3333333333333,293.3333333333333,0,0,0,-53.4485230619777,-288.4227796602371Z"><title>National navigation</title></path><path fill="rgb(241, 249, 171)" display="" d="M-74.9996579458023,-430.5160290953319A437,437,0,0,1,-32.76645545161996,-435.7698468195534L-22.485980792406153,-292.47021235033145A293.3333333333333,293.3333333333333,0,0,0,-49.8571300464415,-289.0652366300325Z"><title>International aviation</title></path><path fill="rgb(241, 249, 171)" display="" d="M-29.774169142459517,-435.9845167570475A437,437,0,0,1,-1.4999883781261194,-436.99742566159983L-1.4999883781262213,-293.3294981404187A293.3333333333333,293.3333333333333,0,0,0,-19.493694483245456,-292.6848822878256Z"><title>International shipping</title></path></g><g id="labels" transform="translate(450,500)" text-anchor="middle"><text transform="rotate(90) translate(73.33333333333333,0) rotate(180)"><tspan x="0" y="4" style="font-family: Arial, sans-serif; font-size: 10px; fill: black; font-weight: bold;"/></text><text transform="rotate(-88.98665812298327) translate(220,0) rotate(0)"><tspan x="0" y="4" style="font-family: Arial, sans-serif; font-size: 10px; fill: black; font-weight: bold;">Coal reserves</tspan></text><text transform="rotate(-87.4763097625079) translate(220,0) rotate(0)"><tspan x="0" y="4" style="font-family: Arial, sans-serif; font-size: 10px; fill: black; font-weight: bold;">Coal imports</tspan></text><text transform="rotate(-85.27297244486067) translate(220,0) rotate(0)"><tspan x="0" y="4" style="font-family: Arial, sans-serif; font-size: 10px; fill: black; font-weight: bold;">Oil reserves</tspan></text><text transform="rotate(-71.3296987471416) translate(220,0) rotate(0)"><tspan x="0" y="4" style="font-family: Arial, sans-serif; font-size: 10px; fill: black; font-weight: bold;">Oil imports</tspan></text><text transform="rotate(-57.78995565617074) translate(220,0) rotate(0)"><tspan x="0" y="4" style="font-family: Arial, sans-serif; font-size: 10px; fill: black; font-weight: bold;">Gas reserves</tspan></text><text transform="rotate(-24.256673138976282) translate(220,0) rotate(0)"><tspan x="0" y="4" style="font-family: Arial, sans-serif; font-size: 10px; fill: black; font-weight: bold;">Gas imports</tspan></text><text transform="rotate(8.253603046151696) translate(220,0) rotate(0)"><tspan x="0" y="4" style="font-family: Arial, sans-serif; font-size: 10px; fill: black; font-weight: bold;">UK land based bioenergy</tspan></text><text transform="rotate(9.12625580703478) translate(220,0) rotate(0)"><tspan x="0" y="4" style="font-family: Arial, sans-serif; font-size: 10px; fill: black; font-weight: bold;">Agricultural 'waste'</tspan></text><text transform="rotate(10.58384574896003) translate(220,0) rotate(0)"><tspan x="0" y="4" style="font-family: Arial, sans-serif; font-size: 10px; fill: black; font-weight: bold;">Other waste</tspan></text><text transform="rotate(12.959083619540834) translate(220,0) rotate(0)"><tspan x="0" y="4" style="font-family: Arial, sans-serif; font-size: 10px; fill: black; font-weight: bold;">Coal</tspan></text><text transform="rotate(28.413022545113975) translate(220,0) rotate(0)"><tspan x="0" y="4" style="font-family: Arial, sans-serif; font-size: 10px; fill: black; font-weight: bold;">Oil</tspan></text><text transform="rotate(75.88973719371683) translate(220,0) rotate(0)"><tspan x="0" y="4" style="font-family: Arial, sans-serif; font-size: 10px; fill: black; font-weight: bold;">Natural Gas</tspan></text><text transform="rotate(110.93479397459072) translate(220,0) rotate(180)"><tspan x="0" y="4" style="font-family: Arial, sans-serif; font-size: 10px; fill: black; font-weight: bold;">Bio-conversion</tspan></text><text transform="rotate(114.66083748048183) translate(220,0) rotate(180)"><tspan x="0" y="4" style="font-family: Arial, sans-serif; font-size: 10px; fill: black; font-weight: bold;">Solid</tspan></text><text transform="rotate(151.03515291491578) translate(220,0) rotate(180)"><tspan x="0" y="4" style="font-family: Arial, sans-serif; font-size: 10px; fill: black; font-weight: bold;">Gas</tspan></text><text transform="rotate(203.97925574894242) translate(220,0) rotate(180)"><tspan x="0" y="4" style="font-family: Arial, sans-serif; font-size: 10px; fill: black; font-weight: bold;">Thermal generation</tspan></text><text transform="rotate(222.7645798602615) translate(220,0) rotate(180)"><tspan x="0" y="4" style="font-family: Arial, sans-serif; font-size: 10px; fill: black; font-weight: bold;">Wind</tspan></text><text transform="rotate(222.85013405250487) translate(220,0) rotate(180)"><tspan x="0" y="4" style="font-family: Arial, sans-serif; font-size: 10px; fill: black; font-weight: bold;">Hydro</tspan></text><text transform="rotate(232.14591390713326) translate(220,0) rotate(180)"><tspan x="0" y="4" style="font-family: Arial, sans-serif; font-size: 10px; fill: black; font-weight: bold;">Electricity grid</tspan></text><text transform="rotate(241.61311901362706) translate(220,0) rotate(180)"><tspan x="0" y="4" style="font-family: Arial, sans-serif; font-size: 10px; fill: black; font-weight: bold;">District heating</tspan></text><text transform="rotate(255.93441549411068) translate(220,0) rotate(180)"><tspan x="0" y="4" style="font-family: Arial, sans-serif; font-size: 10px; fill: black; font-weight: bold;">Liquid</tspan></text><text transform="rotate(-88.98665812298327) translate(366.66666666666663,0) rotate(0)"><tspan x="0" y="4" style="font-family: Arial, sans-serif; font-size: 10px; fill: black; font-weight: normal;">Coal</tspan></text><text transform="rotate(-87.4763097625079) translate(366.66666666666663,0) rotate(0)"><tspan x="0" y="4" style="font-family: Arial, sans-serif; font-size: 10px; fill: black; font-weight: normal;">Coal</tspan></text><text transform="rotate(-85.27297244486067) translate(366.66666666666663,0) rotate(0)"><tspan x="0" y="4" style="font-family: Arial, sans-serif; font-size: 10px; fill: black; font-weight: normal;">Oil</tspan></text><text transform="rotate(-71.3296987471416) translate(366.66666666666663,0) rotate(0)"><tspan x="0" y="4" style="font-family: Arial, sans-serif; font-size: 10px; fill: black; font-weight: normal;">Oil</tspan></text><text transform="rotate(-57.78995565617074) translate(366.66666666666663,0) rotate(0)"><tspan x="0" y="4" style="font-family: Arial, sans-serif; font-size: 10px; fill: black; font-weight: normal;">Natural Gas</tspan></text><text transform="rotate(-24.256673138976282) translate(366.66666666666663,0) rotate(0)"><tspan x="0" y="4" style="font-family: Arial, sans-serif; font-size: 10px; fill: black; font-weight: normal;">Natural Gas</tspan></text><text transform="rotate(8.253603046151696) translate(366.66666666666663,0) rotate(0)"><tspan x="0" y="4" style="font-family: Arial, sans-serif; font-size: 10px; fill: black; font-weight: normal;">Bio-conversion</tspan></text><text transform="rotate(9.12625580703478) translate(366.66666666666663,0) rotate(0)"><tspan x="0" y="4" style="font-family: Arial, sans-serif; font-size: 10px; fill: black; font-weight: normal;">Bio-conversion</tspan></text><text transform="rotate(10.358236175340295) translate(366.66666666666663,0) rotate(0)"><tspan x="0" y="4" style="font-family: Arial, sans-serif; font-size: 10px; fill: black; font-weight: normal;">Bio-conversion</tspan></text><text transform="rotate(11.222967251756387) translate(366.66666666666663,0) rotate(0)"><tspan x="0" y="4" style="font-family: Arial, sans-serif; font-size: 10px; fill: black; font-weight: normal;">Solid</tspan></text><text transform="rotate(12.959083619540834) translate(366.66666666666663,0) rotate(0)"><tspan x="0" y="4" style="font-family: Arial, sans-serif; font-size: 10px; fill: black; font-weight: normal;">Solid</tspan></text><text transform="rotate(28.413022545113975) translate(366.66666666666663,0) rotate(0)"><tspan x="0" y="4" style="font-family: Arial, sans-serif; font-size: 10px; fill: black; font-weight: normal;">Liquid</tspan></text><text transform="rotate(75.88973719371683) translate(366.66666666666663,0) rotate(0)"><tspan x="0" y="4" style="font-family: Arial, sans-serif; font-size: 10px; fill: black; font-weight: normal;">Gas</tspan></text><text transform="rotate(109.90133101902782) translate(366.66666666666663,0) rotate(180)"><tspan x="0" y="4" style="font-family: Arial, sans-serif; font-size: 10px; fill: black; font-weight: normal;">Solid</tspan></text><text transform="rotate(110.50227000269336) translate(366.66666666666663,0) rotate(180)"><tspan x="0" y="4" style="font-family: Arial, sans-serif; font-size: 10px; fill: black; font-weight: normal;">Liquid</tspan></text><text transform="rotate(111.25213665433816) translate(366.66666666666663,0) rotate(180)"><tspan x="0" y="4" style="font-family: Arial, sans-serif; font-size: 10px; fill: black; font-weight: normal;">Gas</tspan></text><text transform="rotate(112.16297193435213) translate(366.66666666666663,0) rotate(180)"><tspan x="0" y="4" style="font-family: Arial, sans-serif; font-size: 10px; fill: black; font-weight: normal;">Losses</tspan></text><text transform="rotate(112.96654760668306) translate(366.66666666666663,0) rotate(180)"><tspan x="0" y="4" style="font-family: Arial, sans-serif; font-size: 10px; fill: black; font-weight: normal;">Thermal generation</tspan></text><text transform="rotate(115.16671625054349) translate(366.66666666666663,0) rotate(180)"><tspan x="0" y="4" style="font-family: Arial, sans-serif; font-size: 10px; fill: black; font-weight: normal;">Industry</tspan></text><text transform="rotate(116.86100612434225) translate(366.66666666666663,0) rotate(180)"><tspan x="0" y="4" style="font-family: Arial, sans-serif; font-size: 10px; fill: black; font-weight: normal;">Agriculture</tspan></text><text transform="rotate(135.13918399608488) translate(366.66666666666663,0) rotate(180)"><tspan x="0" y="4" style="font-family: Arial, sans-serif; font-size: 10px; fill: black; font-weight: normal;">Thermal generation</tspan></text><text transform="rotate(161.6091757751368) translate(366.66666666666663,0) rotate(180)"><tspan x="0" y="4" style="font-family: Arial, sans-serif; font-size: 10px; fill: black; font-weight: normal;">Heating and cooling - homes</tspan></text><text transform="rotate(172.05661011757536) translate(366.66666666666663,0) rotate(180)"><tspan x="0" y="4" style="font-family: Arial, sans-serif; font-size: 10px; fill: black; font-weight: normal;">Heating and cooling - commercial</tspan></text><text transform="rotate(174.42535220689325) translate(366.66666666666663,0) rotate(180)"><tspan x="0" y="4" style="font-family: Arial, sans-serif; font-size: 10px; fill: black; font-weight: normal;">Lighting &amp; appliances - homes</tspan></text><text transform="rotate(174.69595694828547) translate(366.66666666666663,0) rotate(180)"><tspan x="0" y="4" style="font-family: Arial, sans-serif; font-size: 10px; fill: black; font-weight: normal;">Lighting &amp; appliances - commercial</tspan></text><text transform="rotate(179.601697705) translate(366.66666666666663,0) rotate(180)"><tspan x="0" y="4" style="font-family: Arial, sans-serif; font-size: 10px; fill: black; font-weight: normal;">Industry</tspan></text><text transform="rotate(184.3976439150021) translate(366.66666666666663,0) rotate(180)"><tspan x="0" y="4" style="font-family: Arial, sans-serif; font-size: 10px; fill: black; font-weight: normal;">Agriculture</tspan></text><text transform="rotate(184.8132154821401) translate(366.66666666666663,0) rotate(180)"><tspan x="0" y="4" style="font-family: Arial, sans-serif; font-size: 10px; fill: black; font-weight: normal;">Losses</tspan></text><text transform="rotate(185.4509110817324) translate(366.66666666666663,0) rotate(180)"><tspan x="0" y="4" style="font-family: Arial, sans-serif; font-size: 10px; fill: black; font-weight: normal;">District heating</tspan></text><text transform="rotate(194.8328788633615) translate(366.66666666666663,0) rotate(180)"><tspan x="0" y="4" style="font-family: Arial, sans-serif; font-size: 10px; fill: black; font-weight: normal;">Electricity grid</tspan></text><text transform="rotate(213.36122353057152) translate(366.66666666666663,0) rotate(180)"><tspan x="0" y="4" style="font-family: Arial, sans-serif; font-size: 10px; fill: black; font-weight: normal;">Losses</tspan></text><text transform="rotate(222.7645798602615) translate(366.66666666666663,0) rotate(180)"><tspan x="0" y="4" style="font-family: Arial, sans-serif; font-size: 10px; fill: black; font-weight: normal;">Electricity grid</tspan></text><text transform="rotate(222.85013405250487) translate(366.66666666666663,0) rotate(180)"><tspan x="0" y="4" style="font-family: Arial, sans-serif; font-size: 10px; fill: black; font-weight: normal;">Electricity grid</tspan></text><text transform="rotate(223.57686938550614) translate(366.66666666666663,0) rotate(180)"><tspan x="0" y="4" style="font-family: Arial, sans-serif; font-size: 10px; fill: black; font-weight: normal;">Losses</tspan></text><text transform="rotate(225.18021832162395) translate(366.66666666666663,0) rotate(180)"><tspan x="0" y="4" style="font-family: Arial, sans-serif; font-size: 10px; fill: black; font-weight: normal;">Heating and cooling - homes</tspan></text><text transform="rotate(226.6387588656852) translate(366.66666666666663,0) rotate(180)"><tspan x="0" y="4" style="font-family: Arial, sans-serif; font-size: 10px; fill: black; font-weight: normal;">Heating and cooling - commercial</tspan></text><text transform="rotate(228.7746034316737) translate(366.66666666666663,0) rotate(180)"><tspan x="0" y="4" style="font-family: Arial, sans-serif; font-size: 10px; fill: black; font-weight: normal;">Lighting &amp; appliances - homes</tspan></text><text transform="rotate(231.87562603311966) translate(366.66666666666663,0) rotate(180)"><tspan x="0" y="4" style="font-family: Arial, sans-serif; font-size: 10px; fill: black; font-weight: normal;">Lighting &amp; appliances - commercial</tspan></text><text transform="rotate(236.94788059733025) translate(366.66666666666663,0) rotate(180)"><tspan x="0" y="4" style="font-family: Arial, sans-serif; font-size: 10px; fill: black; font-weight: normal;">Industry</tspan></text><text transform="rotate(240.62813676700216) translate(366.66666666666663,0) rotate(180)"><tspan x="0" y="4" style="font-family: Arial, sans-serif; font-size: 10px; fill: black; font-weight: normal;">Agriculture</tspan></text><text transform="rotate(240.91822885218318) translate(366.66666666666663,0) rotate(180)"><tspan x="0" y="4" style="font-family: Arial, sans-serif; font-size: 10px; fill: black; font-weight: normal;">Road transport</tspan></text><text transform="rotate(241.2474540586311) translate(366.66666666666663,0) rotate(180)"><tspan x="0" y="4" style="font-family: Arial, sans-serif; font-size: 10px; fill: black; font-weight: normal;">Rail transport</tspan></text><text transform="rotate(241.61311901362706) translate(366.66666666666663,0) rotate(180)"><tspan x="0" y="4" style="font-family: Arial, sans-serif; font-size: 10px; fill: black; font-weight: normal;">Industry</tspan></text><text transform="rotate(245.02578068200427) translate(366.66666666666663,0) rotate(180)"><tspan x="0" y="4" style="font-family: Arial, sans-serif; font-size: 10px; fill: black; font-weight: normal;">Industry</tspan></text><text transform="rotate(248.2411924071535) translate(366.66666666666663,0) rotate(180)"><tspan x="0" y="4" style="font-family: Arial, sans-serif; font-size: 10px; fill: black; font-weight: normal;">Agriculture</tspan></text><text transform="rotate(253.40137766894748) translate(366.66666666666663,0) rotate(180)"><tspan x="0" y="4" style="font-family: Arial, sans-serif; font-size: 10px; fill: black; font-weight: normal;">Road transport</tspan></text><text transform="rotate(258.62160929900136) translate(366.66666666666663,0) rotate(180)"><tspan x="0" y="4" style="font-family: Arial, sans-serif; font-size: 10px; fill: black; font-weight: normal;">Rail transport</tspan></text><text transform="rotate(258.9742826914715) translate(366.66666666666663,0) rotate(180)"><tspan x="0" y="4" style="font-family: Arial, sans-serif; font-size: 10px; fill: black; font-weight: normal;">Domestic aviation</tspan></text><text transform="rotate(259.5647650516406) translate(366.66666666666663,0) rotate(180)"><tspan x="0" y="4" style="font-family: Arial, sans-serif; font-size: 10px; fill: black; font-weight: normal;">National navigation</tspan></text><text transform="rotate(262.9088249325337) translate(366.66666666666663,0) rotate(180)"><tspan x="0" y="4" style="font-family: Arial, sans-serif; font-size: 10px; fill: black; font-weight: normal;">International aviation</tspan></text><text transform="rotate(267.94828372305085) translate(366.66666666666663,0) rotate(180)"><tspan x="0" y="4" style="font-family: Arial, sans-serif; font-size: 10px; fill: black; font-weight: normal;">International shipping</tspan></text></g><g id="legend" transform="translate(900,10)"><g transform="translate(5,0)"><g class="legendColor" transform="translate(0,0)"><g class="legendCells" transform="translate(0,16)"><g class="cell" transform="translate(0, 0)"><rect class="swatch" height="15" width="15" style="fill: rgb(158, 1, 66);"/><text class="label" transform="translate( 20, 12.5)" font-family="&quot;Arial&quot;, sans-serif" font-size="10px"><tspan x="0" dy="0em">Agricultural</tspan><tspan x="0" dy="1.2em">'waste'</tspan></text></g><g class="cell" transform="translate(0, 36.599998474121094)"><rect class="swatch" height="15" width="15" style="fill: rgb(185, 31, 72);"/><text class="label" transform="translate( 20, 12.5)" font-family="&quot;Arial&quot;, sans-serif" font-size="10px"><tspan x="0" dy="0em">Bio-conversion</tspan></text></g><g class="cell" transform="translate(0, 57.599998474121094)"><rect class="swatch" height="15" width="15" style="fill: rgb(209, 60, 75);"/><text class="label" transform="translate( 20, 12.5)" font-family="&quot;Arial&quot;, sans-serif" font-size="10px"><tspan x="0" dy="0em">Coal</tspan></text></g><g class="cell" transform="translate(0, 78.5999984741211)"><rect class="swatch" height="15" width="15" style="fill: rgb(228, 86, 73);"/><text class="label" transform="translate( 20, 12.5)" font-family="&quot;Arial&quot;, sans-serif" font-size="10px"><tspan x="0" dy="0em">Coal</tspan><tspan x="0" dy="1.2em">imports</tspan></text></g><g class="cell" transform="translate(0, 115.19999694824219)"><rect class="swatch" height="15" width="15" style="fill: rgb(240, 112, 74);"/><text class="label" transform="translate( 20, 12.5)" font-family="&quot;Arial&quot;, sans-serif" font-size="10px"><tspan x="0" dy="0em">Coal</tspan><tspan x="0" dy="1.2em">reserves</tspan></text></g><g class="cell" transform="translate(0, 151.79999542236328)"><rect class="swatch" height="15" width="15" style="fill: rgb(248, 142, 83);"/><text class="label" transform="translate( 20, 12.5)" font-family="&quot;Arial&quot;, sans-serif" font-size="10px"><tspan x="0" dy="0em">District</tspan><tspan x="0" dy="1.2em">heating</tspan></text></g><g class="cell" transform="translate(0, 188.39999389648438)"><rect class="swatch" height="15" width="15" style="fill: rgb(252, 172, 99);"/><text class="label" transform="translate( 20, 12.5)" font-family="&quot;Arial&quot;, sans-serif" font-size="10px"><tspan x="0" dy="0em">Electricity</tspan><tspan x="0" dy="1.2em">grid</tspan></text></g><g class="cell" transform="translate(0, 224.99999237060547)"><rect class="swatch" height="15" width="15" style="fill: rgb(253, 198, 118);"/><text class="label" transform="translate( 20, 12.5)" font-family="&quot;Arial&quot;, sans-serif" font-size="10px"><tspan x="0" dy="0em">Gas</tspan></text></g><g class="cell" transform="translate(0, 245.99999237060547)"><rect class="swatch" height="15" width="15" style="fill: rgb(254, 221, 141);"/><text class="label" transform="translate( 20, 12.5)" font-family="&quot;Arial&quot;, sans-serif" font-size="10px"><tspan x="0" dy="0em">Gas</tspan><tspan x="0" dy="1.2em">imports</tspan></text></g><g class="cell" transform="translate(0, 282.59999084472656)"><rect class="swatch" height="15" width="15" style="fill: rgb(254, 238, 163);"/><text class="label" transform="translate( 20, 12.5)" font-family="&quot;Arial&quot;, sans-serif" font-size="10px"><tspan x="0" dy="0em">Gas</tspan><tspan x="0" dy="1.2em">reserves</tspan></text></g><g class="cell" transform="translate(0, 319.19998931884766)"><rect class="swatch" height="15" width="15" style="fill: rgb(251, 248, 176);"/><text class="label" transform="translate( 20, 12.5)" font-family="&quot;Arial&quot;, sans-serif" font-size="10px"><tspan x="0" dy="0em">Hydro</tspan></text></g><g class="cell" transform="translate(0, 340.19998931884766)"><rect class="swatch" height="15" width="15" style="fill: rgb(241, 249, 171);"/><text class="label" transform="translate( 20, 12.5)" font-family="&quot;Arial&quot;, sans-serif" font-size="10px"><tspan x="0" dy="0em">Liquid</tspan></text></g><g class="cell" transform="translate(0, 361.19998931884766)"><rect class="swatch" height="15" width="15" style="fill: rgb(224, 243, 161);"/><text class="label" transform="translate( 20, 12.5)" font-family="&quot;Arial&quot;, sans-serif" font-size="10px"><tspan x="0" dy="0em">Natural</tspan><tspan x="0" dy="1.2em">Gas</tspan></text></g><g class="cell" transform="translate(0, 397.79998779296875)"><rect class="swatch" height="15" width="15" style="fill: rgb(200, 233, 159);"/><text class="label" transform="translate( 20, 12.5)" font-family="&quot;Arial&quot;, sans-serif" font-size="10px"><tspan x="0" dy="0em">Oil</tspan></text></g><g class="cell" transform="translate(0, 418.79998779296875)"><rect class="swatch" height="15" width="15" style="fill: rgb(169, 221, 162);"/><text class="label" transform="translate( 20, 12.5)" font-family="&quot;Arial&quot;, sans-serif" font-size="10px"><tspan x="0" dy="0em">Oil imports</tspan></text></g><g class="cell" transform="translate(0, 439.79998779296875)"><rect class="swatch" height="15" width="15" style="fill: rgb(137, 207, 165);"/><text class="label" transform="translate( 20, 12.5)" font-family="&quot;Arial&quot;, sans-serif" font-size="10px"><tspan x="0" dy="0em">Oil</tspan><tspan x="0" dy="1.2em">reserves</tspan></text></g><g class="cell" transform="translate(0, 476.39998626708984)"><rect class="swatch" height="15" width="15" style="fill: rgb(105, 189, 169);"/><text class="label" transform="translate( 20, 12.5)" font-family="&quot;Arial&quot;, sans-serif" font-size="10px"><tspan x="0" dy="0em">Other</tspan><tspan x="0" dy="1.2em">waste</tspan></text></g><g class="cell" transform="translate(0, 512.9999847412109)"><rect class="swatch" height="15" width="15" style="fill: rgb(78, 164, 176);"/><text class="label" transform="translate( 20, 12.5)" font-family="&quot;Arial&quot;, sans-serif" font-size="10px"><tspan x="0" dy="0em">Solid</tspan></text></g><g class="cell" transform="translate(0, 533.9999847412109)"><rect class="swatch" height="15" width="15" style="fill: rgb(66, 136, 181);"/><text class="label" transform="translate( 20, 12.5)" font-family="&quot;Arial&quot;, sans-serif" font-size="10px"><tspan x="0" dy="0em">Thermal</tspan><tspan x="0" dy="1.2em">generation</tspan></text></g><g class="cell" transform="translate(0, 570.599983215332)"><rect class="swatch" height="15" width="15" style="fill: rgb(74, 108, 174);"/><text class="label" transform="translate( 20, 12.5)" font-family="&quot;Arial&quot;, sans-serif" font-size="10px"><tspan x="0" dy="0em">UK land</tspan><tspan x="0" dy="1.2em">based</tspan><tspan x="0" dy="1.2em">bioenergy</tspan></text></g><g class="cell" transform="translate(0, 622.7999839782715)"><rect class="swatch" height="15" width="15" style="fill: rgb(94, 79, 162);"/><text class="label" transform="translate( 20, 12.5)" font-family="&quot;Arial&quot;, sans-serif" font-size="10px"><tspan x="0" dy="0em">Wind</tspan></text></g></g><text class="legendTitle" font-family="&quot;Arial&quot;, sans-serif" font-size="12px" font-weight="bold"><tspan x="0" dy="0em">From</tspan></text></g></g></g></svg>